<svg xmlns="http://www.w3.org/2000/svg" xmlns:xlink="http://www.w3.org/1999/xlink" xmlns:lucid="lucid" width="1210.2" height="1520"><g transform="translate(-80 60)" lucid:page-tab-id="dq3a_lle_jgk"><path d="M480-32c0-4.42 3.58-8 8-8h285.33c4.42 0 8 3.58 8 8v44c0 4.42-3.58 8-8 8H488c-4.42 0-8-3.58-8-8z" fill="none"/><use xlink:href="#a" transform="matrix(1,0,0,1,480,-40) translate(4.829012345679075 35.37777777777778)"/><use xlink:href="#b" transform="matrix(1,0,0,1,480,-40) translate(143.4561728395062 35.37777777777778)"/><use xlink:href="#c" transform="matrix(1,0,0,1,480,-40) translate(201.56604938271605 35.37777777777778)"/><path d="M100 108c0-4.42 3.58-8 8-8h144c4.42 0 8 3.58 8 8v84c0 4.42-3.58 8-8 8H108c-4.42 0-8-3.58-8-8z" stroke="#000" stroke-width="2" fill="#99d5ca"/><use xlink:href="#d" transform="matrix(1,0,0,1,100,100) translate(20.963024691358036 51.46944444444445)"/><use xlink:href="#e" transform="matrix(1,0,0,1,100,100) translate(90.84944444444444 51.46944444444445)"/><path d="M100 1348c0-4.42 3.58-8 8-8h144c4.42 0 8 3.58 8 8v84c0 4.42-3.58 8-8 8H108c-4.42 0-8-3.58-8-8z" stroke="#000" stroke-width="2" fill="#99d5ca"/><use xlink:href="#d" transform="matrix(1,0,0,1,100,1340) translate(20.963024691358036 51.46944444444445)"/><use xlink:href="#e" transform="matrix(1,0,0,1,100,1340) translate(90.84944444444444 51.46944444444445)"/><path d="M180 201.5v5m0 4.97v9.98m0 4.98v9.98m0 5v9.97m0 5v9.96m0 5v9.96m0 4.98v9.97m0 5v9.96m0 5v9.97m0 5v9.96m0 5v9.96m0 4.98v9.97m0 5V386m0 5v9.97m0 5v9.96m0 5v9.96m0 4.98v9.98m0 4.98v9.98m0 4.98v9.98m0 4.98v9.98m0 4.98v9.98m0 4.98v9.98m0 4.98v9.98m0 5v9.96m0 5v9.96m0 5v9.96m0 5v9.96m0 5v9.96m0 5v9.96m0 5v9.96m0 5v9.96m0 5v9.96m0 5v9.96m0 5v9.96m0 5v9.96m0 5v9.97m0 5v9.97m0 4.98v9.98m0 4.98v10m0 4.97v9.98m0 4.98v9.98m0 5v9.97m0 5v9.96m0 5v9.96m0 4.98v9.97m0 5v9.96m0 5v9.97m0 5v9.96m0 5v9.96m0 4.98v9.97m0 5v9.96m0 5v9.97m0 5v9.96m0 5v9.96m0 4.98v9.98m0 4.98v9.98m0 4.98v9.98m0 4.98v9.98m0 4.98v9.98m0 4.98v9.98m0 4.98v9.98m0 5v9.96m0 5v9.96m0 5v9.96m0 5v9.96m0 5v9.96m0 5v9.96m0 5v9.96m0 5v9.96m0 5v9.96m0 5v9.96m0 5v9.96m0 5v9.96m0 5v9.97m0 5v9.97m0 4.98v9.98m0 4.98v5" stroke="#333" fill="none"/><path d="M180.5 201.5h-1v-.5h1zM180.5 1339h-1v-.5h1z" fill="#333"/><path d="M371.6 108c0-4.42 3.58-8 8-8h144c4.42 0 8 3.58 8 8v84c0 4.42-3.58 8-8 8h-144c-4.42 0-8-3.58-8-8z" stroke="#000" stroke-width="2" fill="#99d5ca"/><use xlink:href="#f" transform="matrix(1,0,0,1,371.6,100) translate(21.414876543209886 51.46944444444445)"/><path d="M451.6 201.5v4.96m0 4.96v9.93m0 4.96v9.93m0 4.96v9.9m0 4.98V266m0 4.96v9.92m0 4.96v9.93m0 4.96v9.92m0 4.96v9.94m0 4.96v9.92m0 4.96v9.92m0 4.96v9.93m0 4.95v9.92m0 4.96v9.93m0 4.96v9.92m0 4.96v9.92m0 4.97v9.9m0 4.97v9.92m0 4.95v9.93m0 4.96v9.92m0 4.96v9.93m0 4.96v9.93m0 4.96v9.9m0 4.98v9.92m0 4.96v9.92m0 4.96v9.93m0 4.96v9.92m0 4.96v9.94m0 4.96v9.92m0 4.96v9.92m0 4.96V653m0 4.95v9.92m0 4.96v9.93m0 4.96v9.92m0 4.96v9.92m0 4.97v9.9m0 4.97v9.92m0 4.95v9.93m0 4.96v4.96l-.85 2.05-2.05.85-2.05.85-.85 2.05v4.96m0 4.96v9.93m0 4.96v9.93m0 4.96v9.9m0 4.98v9.92m0 4.96v9.92m0 4.96v9.93m0 4.96v9.92m0 4.96v9.94m0 4.96v9.92m0 4.96v9.92m0 4.96v9.93m0 4.95v9.92m0 4.96v9.93m0 4.96v9.92m0 4.96v9.92m0 4.97v9.9m0 4.97v9.92m0 4.95v9.93m0 4.96v9.92m0 4.96v9.93m0 4.96v9.93m0 4.96v9.9m0 4.98v9.92m0 4.96v9.92m0 4.96v9.93m0 4.96v9.92m0 4.96v9.94m0 4.96v9.92m0 4.96v9.92m0 4.96v9.93m0 4.95v9.92m0 4.96v9.93m0 4.96v9.92m0 4.96v9.92m0 4.97v9.9m0 4.97v9.92m0 4.95v9.93m0 4.96v4.96" stroke="#333" fill="none"/><path d="M452.1 201.5h-1v-.5h1zM446.3 1339h-1v-.5h1z" fill="#333"/><path d="M371.6 1348c0-4.42 3.58-8 8-8H512c4.42 0 8 3.58 8 8v84c0 4.42-3.58 8-8 8H379.6c-4.42 0-8-3.58-8-8z" stroke="#000" stroke-width="2" fill="#99d5ca"/><use xlink:href="#f" transform="matrix(1,0,0,1,371.6,1340) translate(15.414876543209887 51.46944444444445)"/><path d="M611.6 108c0-4.42 3.58-8 8-8H752c4.42 0 8 3.58 8 8v84c0 4.42-3.58 8-8 8H619.6c-4.42 0-8-3.58-8-8z" stroke="#000" stroke-width="2" fill="#99d5ca"/><use xlink:href="#g" transform="matrix(1,0,0,1,611.6,100) translate(11.649444444444464 51.46944444444445)"/><path d="M611.6 1348c0-4.42 3.58-8 8-8H752c4.42 0 8 3.58 8 8v84c0 4.42-3.58 8-8 8H619.6c-4.42 0-8-3.58-8-8z" stroke="#000" stroke-width="2" fill="#99d5ca"/><use xlink:href="#g" transform="matrix(1,0,0,1,611.6,1340) translate(11.649444444444464 51.46944444444445)"/><path d="M685.8 201.5v5m0 4.97v9.98m0 4.98v9.98m0 5v9.97m0 5v9.96m0 5v9.96m0 4.98v9.97m0 5v9.96m0 5v9.97m0 5v9.96m0 5v9.96m0 4.98v9.97m0 5V386m0 5v9.97m0 5v9.96m0 5v9.96m0 4.98v9.98m0 4.98v9.98m0 4.98v9.98m0 4.98v9.98m0 4.98v9.98m0 4.98v9.98m0 4.98v9.98m0 5v9.96m0 5v9.96m0 5v9.96m0 5v9.96m0 5v9.96m0 5v9.96m0 5v9.96m0 5v9.96m0 5v9.96m0 5v9.96m0 5v9.96m0 5v9.96m0 5v9.97m0 5v9.97m0 4.98v9.98m0 4.98v10m0 4.97v9.98m0 4.98v9.98m0 5v9.97m0 5v9.96m0 5v9.96m0 4.98v9.97m0 5v9.96m0 5v9.97m0 5v9.96m0 5v9.96m0 4.98v9.97m0 5v9.96m0 5v9.97m0 5v9.96m0 5v9.96m0 4.98v9.98m0 4.98v9.98m0 4.98v9.98m0 4.98v9.98m0 4.98v9.98m0 4.98v9.98m0 4.98v9.98m0 5v9.96m0 5v9.96m0 5v9.96m0 5v9.96m0 5v9.96m0 5v9.96m0 5v9.96m0 5v9.96m0 5v9.96m0 5v9.96m0 5v9.96m0 5v9.96m0 5v9.97m0 5v9.97m0 4.98v9.98m0 4.98v5" stroke="#333" fill="none"/><path d="M686.3 201.5h-1v-.5h1zM686.3 1339h-1v-.5h1z" fill="#333"/><path d="M851.6 108c0-4.42 3.58-8 8-8H992c4.42 0 8 3.58 8 8v84c0 4.42-3.58 8-8 8H859.6c-4.42 0-8-3.58-8-8z" stroke="#000" stroke-width="2" fill="#99d5ca"/><use xlink:href="#h" transform="matrix(1,0,0,1,851.6,100) translate(11.649444444444464 51.46944444444445)"/><path d="M851.6 1348c0-4.42 3.58-8 8-8H992c4.42 0 8 3.58 8 8v84c0 4.42-3.58 8-8 8H859.6c-4.42 0-8-3.58-8-8z" stroke="#000" stroke-width="2" fill="#99d5ca"/><use xlink:href="#h" transform="matrix(1,0,0,1,851.6,1340) translate(11.649444444444464 51.46944444444445)"/><path d="M925.8 201.5v5m0 4.97v9.98m0 4.98v9.98m0 5v9.97m0 5v9.96m0 5v9.96m0 4.98v9.97m0 5v9.96m0 5v9.97m0 5v9.96m0 5v9.96m0 4.98v9.97m0 5V386m0 5v9.97m0 5v9.96m0 5v9.96m0 4.98v9.98m0 4.98v9.98m0 4.98v9.98m0 4.98v9.98m0 4.98v9.98m0 4.98v9.98m0 4.98v9.98m0 5v9.96m0 5v9.96m0 5v9.96m0 5v9.96m0 5v9.96m0 5v9.96m0 5v9.96m0 5v9.96m0 5v9.96m0 5v9.96m0 5v9.96m0 5v9.96m0 5v9.97m0 5v9.97m0 4.98v9.98m0 4.98v10m0 4.97v9.98m0 4.98v9.98m0 5v9.97m0 5v9.96m0 5v9.96m0 4.98v9.97m0 5v9.96m0 5v9.97m0 5v9.96m0 5v9.96m0 4.98v9.97m0 5v9.96m0 5v9.97m0 5v9.96m0 5v9.96m0 4.98v9.98m0 4.98v9.98m0 4.98v9.98m0 4.98v9.98m0 4.98v9.98m0 4.98v9.98m0 4.98v9.98m0 5v9.96m0 5v9.96m0 5v9.96m0 5v9.96m0 5v9.96m0 5v9.96m0 5v9.96m0 5v9.96m0 5v9.96m0 5v9.96m0 5v9.96m0 5v9.96m0 5v9.97m0 5v9.97m0 4.98v9.98m0 4.98v5" stroke="#333" fill="none"/><path d="M926.3 201.5h-1v-.5h1zM926.3 1339h-1v-.5h1z" fill="#333"/><path d="M1150.2 108c0-4.42 3.58-8 8-8h104c4.42 0 8 3.58 8 8v84c0 4.42-3.58 8-8 8h-104c-4.42 0-8-3.58-8-8z" stroke="#000" stroke-width="2" fill="#99d5ca"/><use xlink:href="#i" transform="matrix(1,0,0,1,1150.2,100) translate(44.962098765432096 51.46944444444445)"/><path d="M1210.2 201.5v5m0 4.97v9.98m0 4.98v9.98m0 5v9.97m0 5v9.96m0 5v9.96m0 4.98v9.97m0 5v9.96m0 5v9.97m0 5v9.96m0 5v9.96m0 4.98v9.97m0 5V386m0 5v9.97m0 5v9.96m0 5v9.96m0 4.98v9.98m0 4.98v9.98m0 4.98v9.98m0 4.98v9.98m0 4.98v9.98m0 4.98v9.98m0 4.98v9.98m0 5v9.96m0 5v9.96m0 5v9.96m0 5v9.96m0 5v9.96m0 5v9.96m0 5v9.96m0 5v9.96m0 5v9.96m0 5v9.96m0 5v9.96m0 5v9.96m0 5v9.97m0 5v9.97m0 4.98v9.98m0 4.98v10m0 4.97v9.98m0 4.98v9.98m0 5v9.97m0 5v9.96m0 5v9.96m0 4.98v9.97m0 5v9.96m0 5v9.97m0 5v9.96m0 5v9.96m0 4.98v9.97m0 5v9.96m0 5v9.97m0 5v9.96m0 5v9.96m0 4.98v9.98m0 4.98v9.98m0 4.98v9.98m0 4.98v9.98m0 4.98v9.98m0 4.98v9.98m0 4.98v9.98m0 5v9.96m0 5v9.96m0 5v9.96m0 5v9.96m0 5v9.96m0 5v9.96m0 5v9.96m0 5v9.96m0 5v9.96m0 5v9.96m0 5v9.96m0 5v9.96m0 5v9.97m0 5v9.97m0 4.98v9.98m0 4.98v5" stroke="#333" fill="none"/><path d="M1210.7 201.5h-1v-.5h1zM1210.7 1339h-1v-.5h1z" fill="#333"/><path d="M1150.2 1348c0-4.42 3.58-8 8-8h104c4.42 0 8 3.58 8 8v84c0 4.42-3.58 8-8 8h-104c-4.42 0-8-3.58-8-8z" stroke="#000" stroke-width="2" fill="#99d5ca"/><use xlink:href="#i" transform="matrix(1,0,0,1,1150.2,1340) translate(44.962098765432096 51.46944444444445)"/><path d="M140 328.4c0-4.42 3.58-8 8-8h24c4.42 0 8 3.58 8 8v1003.1c0 4.42-3.58 8-8 8h-24c-4.42 0-8-3.58-8-8zM411.6 408.32c0-4.4 3.58-8 8-8h24c4.42 0 8 3.6 8 8v923.18c0 4.42-3.58 8-8 8h-24c-4.42 0-8-3.58-8-8zM651.6 408.32c0-4.4 3.58-8 8-8h24c4.42 0 8 3.6 8 8v923.18c0 4.42-3.58 8-8 8h-24c-4.42 0-8-3.58-8-8zM891.6 408.32c0-4.4 3.58-8 8-8h24c4.42 0 8 3.6 8 8v923.18c0 4.42-3.58 8-8 8h-24c-4.42 0-8-3.58-8-8zM1190.2 788c0-4.43 3.58-8 8-8h24c4.42 0 8 3.57 8 8v543.5c0 4.42-3.58 8-8 8h-24c-4.42 0-8-3.58-8-8z" stroke="#333" fill="#fff"/><path d="M120 220.43h819.6l12 12v48H120z" stroke="#000" stroke-width="2" fill="#99d5ca"/><path d="M939.6 221.38v11.05h11.05" stroke="#000" stroke-width="2" fill="#99d5ca"/><use xlink:href="#j" transform="matrix(1,0,0,1,124.99999999999994,225.4298245614035) translate(384.3030864197531 26.469444444444445)"/><path d="M180.5 360.36H268c6.63 0 12 5.37 12 12v15.96c0 6.63-5.37 12-12 12h-71.62" stroke="#333" fill="none"/><path d="M180.5 360.86v-1z" fill="#333"/><path d="M181.62 400.32l14.26-4.63v9.26z" stroke="#333" fill="#333"/><use xlink:href="#k" transform="matrix(1,0,0,1,288,372.20877192982465) translate(0.004999999999999005 10.844444444444445)"/><path d="M651.1 580.17H196.38" stroke="#333" fill="none"/><path d="M651.1 580.67v-1z" fill="#333"/><path d="M181.62 580.17l14.26-4.64v9.27z" stroke="#333" fill="#333"/><use xlink:href="#l" transform="matrix(1,0,0,1,374.85092592592594,559.9) translate(0.005000000000002558 10.844444444444445)"/><path d="M411.1 520.22H196.38" stroke="#333" fill="none"/><path d="M411.1 520.72v-1z" fill="#333"/><path d="M181.62 520.22l14.26-4.64v9.27z" stroke="#333" fill="#333"/><use xlink:href="#l" transform="matrix(1,0,0,1,254.85092592592594,499.95263157894743) translate(0.005000000000002558 10.844444444444445)"/><path d="M891.1 640.1H196.38" stroke="#333" fill="none"/><path d="M891.1 640.6v-1z" fill="#333"/><path d="M181.62 640.1l14.26-4.62v9.27z" stroke="#333" fill="#333"/><use xlink:href="#l" transform="matrix(1,0,0,1,494.8509259259259,619.8473684210526) translate(0.005000000000002558 10.844444444444445)"/><path d="M130 428.3c0-4.4 3.58-8 8-8h84c4.42 0 8 3.6 8 8v4.94c0 3.9-2.24 9.3-5 12.07-2.76 2.77-8.17 5-12.07 5H138c-4.42 0-8-3.57-8-8z" fill="#99d5ca"/><path d="M230 420.3v20l-10 10h-90" stroke="#000" stroke-width="2" fill="none"/><path d="M130 428.3c0-4.4 3.58-8 8-8h795.6c4.42 0 8 3.6 8 8v223.8c0 4.4-3.58 8-8 8H138c-4.42 0-8-3.6-8-8z" stroke="#000" stroke-width="2" fill="none"/><use xlink:href="#m" transform="matrix(1,0,0,1,137.99999999999994,420.3070175438597) translate(30.080246913580247 17.711111111111112)"/><path d="M180.5 939.85H268c6.63 0 12 5.37 12 12v15.97c0 6.62-5.37 12-12 12h-71.62" stroke="#333" fill="none"/><path d="M180.5 940.35v-1z" fill="#333"/><path d="M181.62 979.82l14.26-4.64v9.27z" stroke="#333" fill="#333"/><use xlink:href="#n" transform="matrix(1,0,0,1,288,951.7000000000002) translate(0.005000000000002558 10.844444444444445)"/><path d="M452.1 1299.54h721.72" stroke="#333" fill="none"/><path d="M452.1 1300.04v-1z" fill="#333"/><path d="M1188.58 1299.54l-14.26 4.63v-9.27z" stroke="#333" fill="#333"/><use xlink:href="#o" transform="matrix(1,0,0,1,801.3762345679013,1279.2684210526313) translate(0.004999999999999005 10.844444444444445)"/><path d="M932.1 1079.73h87.5c6.63 0 12 5.37 12 12v15.96c0 6.62-5.37 12-12 12h-71.62" stroke="#333" fill="none"/><path d="M932.1 1080.23v-1z" fill="#333"/><path d="M933.22 1119.7l14.26-4.64v9.27z" stroke="#333" fill="#333"/><use xlink:href="#p" transform="matrix(1,0,0,1,1039.6,1091.577192982456) translate(0.005000000000002558 10.844444444444445)"/><path d="M410.6 900.64H295.92c-.2 0-.37-.17-.37-.38 0-.2-.17-.37-.37-.37h-98.8" stroke="#333" fill="none"/><path d="M411.1 901.14h-.5v-1h.5z" fill="#333"/><path d="M181.62 899.9l14.26-4.65v9.27z" stroke="#333" fill="#333"/><use xlink:href="#q" transform="matrix(1,0,0,1,230.2325473335938,879.6201751172717) translate(0.0049999999999954525 10.844444444444445)"/><path d="M391.6 680.03h846.6l12 12v48H391.6z" stroke="#000" stroke-width="2" fill="#99d5ca"/><path d="M1238.2 680.98v11.05h11.05" stroke="#000" stroke-width="2" fill="#99d5ca"/><use xlink:href="#r" transform="matrix(1,0,0,1,396.6000000000001,685.0263157894736) translate(361.0148148148148 26.469444444444445)"/><use xlink:href="#s" transform="matrix(1,0,0,1,396.6000000000001,685.0263157894736) translate(421.8641975308642 26.469444444444445)"/><path d="M1189.7 839.94H821.52c-.2 0-.37-.17-.37-.38 0-.2-.17-.37-.37-.37h-352.3" stroke="#333" fill="none"/><path d="M1189.7 840.44v-1z" fill="#333"/><path d="M453.72 839.2l14.26-4.65v9.27z" stroke="#333" fill="#333"/><use xlink:href="#q" transform="matrix(1,0,0,1,755.8325473335939,818.9234645909557) translate(0.0049999999999954525 10.844444444444445)"/><path d="M180.5 1039.76h694.72" stroke="#333" fill="none"/><path d="M180.5 1040.26v-1z" fill="#333"/><path d="M889.98 1039.76l-14.26 4.64v-9.27z" stroke="#333" fill="#333"/><use xlink:href="#p" transform="matrix(1,0,0,1,476.47561728395056,1019.4964912280701) translate(0.005000000000002558 10.844444444444445)"/><path d="M891.1 1179.64H196.38" stroke="#333" fill="none"/><path d="M891.1 1180.14v-1z" fill="#333"/><path d="M181.62 1179.64l14.26-4.63v9.28z" stroke="#333" fill="#333"/><use xlink:href="#o" transform="matrix(1,0,0,1,516.2762345679012,1159.3736842105263) translate(0.004999999999999005 10.844444444444445)"/><path d="M180.5 1239.6h214.72" stroke="#333" fill="none"/><path d="M180.5 1240.1v-1z" fill="#333"/><path d="M409.98 1239.6l-14.26 4.62v-9.27z" stroke="#333" fill="#333"/><g><use xlink:href="#o" transform="matrix(1,0,0,1,276.27623456790127,1219.321052631579) translate(0.004999999999999005 10.844444444444445)"/></g><defs><path fill="#333" d="M67-125c0 53 21 87 73 88 37 1 54-22 65-47l45 17C233-25 199 4 140 4 58 4 20-42 15-125 8-235 124-281 211-232c18 10 29 29 36 50l-46 12c-8-25-30-41-62-41-52 0-71 34-72 86" id="t"/><path fill="#333" d="M110-194c64 0 96 36 96 99 0 64-35 99-97 99-61 0-95-36-95-99 0-62 34-99 96-99zm-1 164c35 0 45-28 45-65 0-40-10-65-43-65-34 0-45 26-45 65 0 36 10 65 43 65" id="u"/><path fill="#333" d="M220-157c-53 9-28 100-34 157h-49v-107c1-27-5-49-29-50C55-147 81-57 75 0H25l-1-190h47c2 12-1 28 3 38 10-53 101-56 108 0 13-22 24-43 59-42 82 1 51 116 57 194h-49v-107c-1-25-5-48-29-50" id="v"/><path fill="#333" d="M133-34C117-15 103 5 69 4 32 3 11-16 11-54c-1-60 55-63 116-61 1-26-3-47-28-47-18 1-26 9-28 27l-52-2c7-38 36-58 82-57s74 22 75 68l1 82c-1 14 12 18 25 15v27c-30 8-71 5-69-32zm-48 3c29 0 43-24 42-57-32 0-66-3-65 30 0 17 8 27 23 27" id="w"/><path fill="#333" d="M135-194c87-1 58 113 63 194h-50c-7-57 23-157-34-157-59 0-34 97-39 157H25l-1-190h47c2 12-1 28 3 38 12-26 28-41 61-42" id="x"/><path fill="#333" d="M88-194c31-1 46 15 58 34l-1-101h50l1 261h-48c-2-10 0-23-3-31C134-8 116 4 84 4 32 4 16-41 15-95c0-56 19-97 73-99zm17 164c33 0 40-30 41-66 1-37-9-64-41-64s-38 30-39 65c0 43 13 65 39 65" id="y"/><g id="a"><use transform="matrix(0.07469135802469135,0,0,0.07469135802469135,0,0)" xlink:href="#t"/><use transform="matrix(0.07469135802469135,0,0,0.07469135802469135,19.34506172839506,0)" xlink:href="#u"/><use transform="matrix(0.07469135802469135,0,0,0.07469135802469135,35.70246913580246,0)" xlink:href="#v"/><use transform="matrix(0.07469135802469135,0,0,0.07469135802469135,59.60370370370369,0)" xlink:href="#v"/><use transform="matrix(0.07469135802469135,0,0,0.07469135802469135,83.50493827160491,0)" xlink:href="#w"/><use transform="matrix(0.07469135802469135,0,0,0.07469135802469135,98.44320987654318,0)" xlink:href="#x"/><use transform="matrix(0.07469135802469135,0,0,0.07469135802469135,114.80061728395059,0)" xlink:href="#y"/></g><path fill="#333" d="M182-130c37 4 62 22 62 59C244 23 116-4 24 0v-248c84 5 203-23 205 63 0 31-19 50-47 55zM76-148c40-3 101 13 101-30 0-44-60-28-101-31v61zm0 110c48-3 116 14 116-37 0-48-69-32-116-35v72" id="z"/><path fill="#333" d="M85 4C-2 5 27-109 22-190h50c7 57-23 150 33 157 60-5 35-97 40-157h50l1 190h-47c-2-12 1-28-3-38-12 25-28 42-61 42" id="A"/><path fill="#333" d="M137-138c1-29-70-34-71-4 15 46 118 7 119 86 1 83-164 76-172 9l43-7c4 19 20 25 44 25 33 8 57-30 24-41C81-84 22-81 20-136c-2-80 154-74 161-7" id="B"/><g id="b"><use transform="matrix(0.07469135802469135,0,0,0.07469135802469135,0,0)" xlink:href="#z"/><use transform="matrix(0.07469135802469135,0,0,0.07469135802469135,19.34506172839506,0)" xlink:href="#A"/><use transform="matrix(0.07469135802469135,0,0,0.07469135802469135,35.70246913580246,0)" xlink:href="#B"/></g><path fill="#333" d="M169-182c-1-43-94-46-97-3 18 66 151 10 154 114 3 95-165 93-204 36-6-8-10-19-12-30l50-8c3 46 112 56 116 5-17-69-150-10-154-114-4-87 153-88 188-35 5 8 8 18 10 28" id="C"/><path fill="#333" d="M185-48c-13 30-37 53-82 52C43 2 14-33 14-96s30-98 90-98c62 0 83 45 84 108H66c0 31 8 55 39 56 18 0 30-7 34-22zm-45-69c5-46-57-63-70-21-2 6-4 13-4 21h74" id="D"/><path fill="#333" d="M135-150c-39-12-60 13-60 57V0H25l-1-190h47c2 13-1 29 3 40 6-28 27-53 61-41v41" id="E"/><path fill="#333" d="M128 0H69L1-190h53L99-40l48-150h52" id="F"/><path fill="#333" d="M25-224v-37h50v37H25zM25 0v-190h50V0H25" id="G"/><path fill="#333" d="M190-63c-7 42-38 67-86 67-59 0-84-38-90-98-12-110 154-137 174-36l-49 2c-2-19-15-32-35-32-30 0-35 28-38 64-6 74 65 87 74 30" id="H"/><g id="c"><use transform="matrix(0.07469135802469135,0,0,0.07469135802469135,0,0)" xlink:href="#C"/><use transform="matrix(0.07469135802469135,0,0,0.07469135802469135,17.925925925925924,0)" xlink:href="#D"/><use transform="matrix(0.07469135802469135,0,0,0.07469135802469135,32.86419753086419,0)" xlink:href="#E"/><use transform="matrix(0.07469135802469135,0,0,0.07469135802469135,43.32098765432097,0)" xlink:href="#F"/><use transform="matrix(0.07469135802469135,0,0,0.07469135802469135,58.25925925925924,0)" xlink:href="#G"/><use transform="matrix(0.07469135802469135,0,0,0.07469135802469135,65.72839506172838,0)" xlink:href="#H"/><use transform="matrix(0.07469135802469135,0,0,0.07469135802469135,80.66666666666664,0)" xlink:href="#D"/></g><g id="d"><use transform="matrix(0.03765432098765432,0,0,0.03765432098765432,0,0)" xlink:href="#t"/><use transform="matrix(0.03765432098765432,0,0,0.03765432098765432,9.752469135802468,0)" xlink:href="#u"/><use transform="matrix(0.03765432098765432,0,0,0.03765432098765432,17.998765432098764,0)" xlink:href="#v"/><use transform="matrix(0.03765432098765432,0,0,0.03765432098765432,30.048148148148144,0)" xlink:href="#v"/><use transform="matrix(0.03765432098765432,0,0,0.03765432098765432,42.09753086419753,0)" xlink:href="#w"/><use transform="matrix(0.03765432098765432,0,0,0.03765432098765432,49.62839506172838,0)" xlink:href="#x"/><use transform="matrix(0.03765432098765432,0,0,0.03765432098765432,57.87469135802468,0)" xlink:href="#y"/></g><g id="e"><use transform="matrix(0.03765432098765432,0,0,0.03765432098765432,0,0)" xlink:href="#C"/><use transform="matrix(0.03765432098765432,0,0,0.03765432098765432,9.037037037037036,0)" xlink:href="#D"/><use transform="matrix(0.03765432098765432,0,0,0.03765432098765432,16.5679012345679,0)" xlink:href="#E"/><use transform="matrix(0.03765432098765432,0,0,0.03765432098765432,21.839506172839503,0)" xlink:href="#F"/><use transform="matrix(0.03765432098765432,0,0,0.03765432098765432,29.370370370370367,0)" xlink:href="#G"/><use transform="matrix(0.03765432098765432,0,0,0.03765432098765432,33.1358024691358,0)" xlink:href="#H"/><use transform="matrix(0.03765432098765432,0,0,0.03765432098765432,40.66666666666666,0)" xlink:href="#D"/></g><path fill="#333" d="M24-248c93 1 206-16 204 79-1 75-69 88-152 82V0H24v-248zm52 121c47 0 100 7 100-41 0-47-54-39-100-39v80" id="I"/><path fill="#333" d="M135-194c52 0 70 43 70 98 0 56-19 99-73 100-30 1-46-15-58-35L72 0H24l1-261h50v104c11-23 29-37 60-37zM114-30c31 0 40-27 40-66 0-37-7-63-39-63s-41 28-41 65c0 36 8 64 40 64" id="J"/><g id="f"><use transform="matrix(0.03765432098765432,0,0,0.03765432098765432,0,0)" xlink:href="#I"/><use transform="matrix(0.03765432098765432,0,0,0.03765432098765432,9.037037037037036,0)" xlink:href="#A"/><use transform="matrix(0.03765432098765432,0,0,0.03765432098765432,17.28333333333333,0)" xlink:href="#J"/><use transform="matrix(0.03765432098765432,0,0,0.03765432098765432,25.52962962962962,0)" xlink:href="#t"/><use transform="matrix(0.03765432098765432,0,0,0.03765432098765432,35.282098765432096,0)" xlink:href="#u"/><use transform="matrix(0.03765432098765432,0,0,0.03765432098765432,43.52839506172839,0)" xlink:href="#v"/><use transform="matrix(0.03765432098765432,0,0,0.03765432098765432,55.577777777777776,0)" xlink:href="#v"/><use transform="matrix(0.03765432098765432,0,0,0.03765432098765432,67.62716049382715,0)" xlink:href="#w"/><use transform="matrix(0.03765432098765432,0,0,0.03765432098765432,75.15802469135801,0)" xlink:href="#x"/><use transform="matrix(0.03765432098765432,0,0,0.03765432098765432,83.4043209876543,0)" xlink:href="#y"/><use transform="matrix(0.03765432098765432,0,0,0.03765432098765432,91.6506172839506,0)" xlink:href="#z"/><use transform="matrix(0.03765432098765432,0,0,0.03765432098765432,101.40308641975307,0)" xlink:href="#A"/><use transform="matrix(0.03765432098765432,0,0,0.03765432098765432,109.64938271604936,0)" xlink:href="#B"/></g><path fill="#333" d="M23 0v-37h61v-169l-59 37v-38l62-41h46v211h57V0H23" id="K"/><g id="g"><use transform="matrix(0.03765432098765432,0,0,0.03765432098765432,0,0)" xlink:href="#C"/><use transform="matrix(0.03765432098765432,0,0,0.03765432098765432,9.037037037037036,0)" xlink:href="#A"/><use transform="matrix(0.03765432098765432,0,0,0.03765432098765432,17.28333333333333,0)" xlink:href="#J"/><use transform="matrix(0.03765432098765432,0,0,0.03765432098765432,25.52962962962962,0)" xlink:href="#t"/><use transform="matrix(0.03765432098765432,0,0,0.03765432098765432,35.282098765432096,0)" xlink:href="#u"/><use transform="matrix(0.03765432098765432,0,0,0.03765432098765432,43.52839506172839,0)" xlink:href="#v"/><use transform="matrix(0.03765432098765432,0,0,0.03765432098765432,55.577777777777776,0)" xlink:href="#v"/><use transform="matrix(0.03765432098765432,0,0,0.03765432098765432,67.62716049382715,0)" xlink:href="#w"/><use transform="matrix(0.03765432098765432,0,0,0.03765432098765432,75.15802469135801,0)" xlink:href="#x"/><use transform="matrix(0.03765432098765432,0,0,0.03765432098765432,83.4043209876543,0)" xlink:href="#y"/><use transform="matrix(0.03765432098765432,0,0,0.03765432098765432,91.6506172839506,0)" xlink:href="#z"/><use transform="matrix(0.03765432098765432,0,0,0.03765432098765432,101.40308641975307,0)" xlink:href="#A"/><use transform="matrix(0.03765432098765432,0,0,0.03765432098765432,109.64938271604936,0)" xlink:href="#B"/><use transform="matrix(0.03765432098765432,0,0,0.03765432098765432,117.18024691358022,0)" xlink:href="#K"/></g><path fill="#333" d="M182-182c0 78-84 86-111 141h115V0H12c-6-101 99-100 120-180 1-22-12-31-33-32-23 0-32 14-35 34l-49-3c5-45 32-70 84-70 51 0 83 22 83 69" id="L"/><g id="h"><use transform="matrix(0.03765432098765432,0,0,0.03765432098765432,0,0)" xlink:href="#C"/><use transform="matrix(0.03765432098765432,0,0,0.03765432098765432,9.037037037037036,0)" xlink:href="#A"/><use transform="matrix(0.03765432098765432,0,0,0.03765432098765432,17.28333333333333,0)" xlink:href="#J"/><use transform="matrix(0.03765432098765432,0,0,0.03765432098765432,25.52962962962962,0)" xlink:href="#t"/><use transform="matrix(0.03765432098765432,0,0,0.03765432098765432,35.282098765432096,0)" xlink:href="#u"/><use transform="matrix(0.03765432098765432,0,0,0.03765432098765432,43.52839506172839,0)" xlink:href="#v"/><use transform="matrix(0.03765432098765432,0,0,0.03765432098765432,55.577777777777776,0)" xlink:href="#v"/><use transform="matrix(0.03765432098765432,0,0,0.03765432098765432,67.62716049382715,0)" xlink:href="#w"/><use transform="matrix(0.03765432098765432,0,0,0.03765432098765432,75.15802469135801,0)" xlink:href="#x"/><use transform="matrix(0.03765432098765432,0,0,0.03765432098765432,83.4043209876543,0)" xlink:href="#y"/><use transform="matrix(0.03765432098765432,0,0,0.03765432098765432,91.6506172839506,0)" xlink:href="#z"/><use transform="matrix(0.03765432098765432,0,0,0.03765432098765432,101.40308641975307,0)" xlink:href="#A"/><use transform="matrix(0.03765432098765432,0,0,0.03765432098765432,109.64938271604936,0)" xlink:href="#B"/><use transform="matrix(0.03765432098765432,0,0,0.03765432098765432,117.18024691358022,0)" xlink:href="#L"/></g><path fill="#333" d="M238-95c0 69-44 99-111 99C63 4 22-25 22-93v-155h51v151c-1 38 19 59 55 60 90 1 49-130 58-211h52v153" id="M"/><g id="i"><use transform="matrix(0.03765432098765432,0,0,0.03765432098765432,0,0)" xlink:href="#M"/><use transform="matrix(0.03765432098765432,0,0,0.03765432098765432,9.752469135802468,0)" xlink:href="#B"/><use transform="matrix(0.03765432098765432,0,0,0.03765432098765432,17.28333333333333,0)" xlink:href="#D"/><use transform="matrix(0.03765432098765432,0,0,0.03765432098765432,24.814197530864195,0)" xlink:href="#E"/></g><path fill="#333" d="M24 0v-248h52V0H24" id="N"/><path fill="#333" d="M115-3C79 11 28 4 28-45v-112H4v-33h27l15-45h31v45h36v33H77v99c-1 23 16 31 38 25v30" id="O"/><path fill="#333" d="M25 0v-261h50V0H25" id="P"/><path fill="#333" d="M12 0v-35l95-120H19v-35h142v35L67-36h103V0H12" id="Q"/><g id="j"><use transform="matrix(0.03765432098765432,0,0,0.03765432098765432,0,0)" xlink:href="#N"/><use transform="matrix(0.03765432098765432,0,0,0.03765432098765432,3.765432098765432,0)" xlink:href="#x"/><use transform="matrix(0.03765432098765432,0,0,0.03765432098765432,12.011728395061727,0)" xlink:href="#G"/><use transform="matrix(0.03765432098765432,0,0,0.03765432098765432,15.777160493827159,0)" xlink:href="#O"/><use transform="matrix(0.03765432098765432,0,0,0.03765432098765432,20.258024691358024,0)" xlink:href="#G"/><use transform="matrix(0.03765432098765432,0,0,0.03765432098765432,24.023456790123454,0)" xlink:href="#w"/><use transform="matrix(0.03765432098765432,0,0,0.03765432098765432,31.554320987654318,0)" xlink:href="#P"/><use transform="matrix(0.03765432098765432,0,0,0.03765432098765432,35.31975308641975,0)" xlink:href="#G"/><use transform="matrix(0.03765432098765432,0,0,0.03765432098765432,39.08518518518518,0)" xlink:href="#Q"/><use transform="matrix(0.03765432098765432,0,0,0.03765432098765432,45.86296296296296,0)" xlink:href="#D"/></g><path fill="#333" d="M67-93c0 74 22 123 53 168H70C40 30 18-18 18-93s22-123 52-168h50c-32 44-53 94-53 168" id="R"/><path fill="#333" d="M102-93c0 74-22 123-52 168H0C30 29 54-18 53-93c0-74-22-123-53-168h50c30 45 52 94 52 168" id="S"/><g id="k"><use transform="matrix(0.03765432098765432,0,0,0.03765432098765432,0,0)" xlink:href="#P"/><use transform="matrix(0.03765432098765432,0,0,0.03765432098765432,3.765432098765432,0)" xlink:href="#G"/><use transform="matrix(0.03765432098765432,0,0,0.03765432098765432,7.530864197530864,0)" xlink:href="#B"/><use transform="matrix(0.03765432098765432,0,0,0.03765432098765432,15.061728395061728,0)" xlink:href="#O"/><use transform="matrix(0.03765432098765432,0,0,0.03765432098765432,19.54259259259259,0)" xlink:href="#D"/><use transform="matrix(0.03765432098765432,0,0,0.03765432098765432,27.073456790123455,0)" xlink:href="#x"/><use transform="matrix(0.03765432098765432,0,0,0.03765432098765432,35.31975308641975,0)" xlink:href="#R"/><use transform="matrix(0.03765432098765432,0,0,0.03765432098765432,39.800617283950615,0)" xlink:href="#S"/></g><path fill="#333" d="M195-6C206 82 75 100 31 46c-4-6-6-13-8-21l49-6c3 16 16 24 34 25 40 0 42-37 40-79-11 22-30 35-61 35-53 0-70-43-70-97 0-56 18-96 73-97 30 0 46 14 59 34l2-30h47zm-90-29c32 0 41-27 41-63 0-35-9-62-40-62-32 0-39 29-40 63 0 36 9 62 39 62" id="T"/><path fill="#333" d="M121-226c-27-7-43 5-38 36h38v33H83V0H34v-157H6v-33h28c-9-59 32-81 87-68v32" id="U"/><g id="l"><use transform="matrix(0.03765432098765432,0,0,0.03765432098765432,0,0)" xlink:href="#E"/><use transform="matrix(0.03765432098765432,0,0,0.03765432098765432,5.271604938271604,0)" xlink:href="#D"/><use transform="matrix(0.03765432098765432,0,0,0.03765432098765432,12.802469135802468,0)" xlink:href="#T"/><use transform="matrix(0.03765432098765432,0,0,0.03765432098765432,21.048765432098765,0)" xlink:href="#G"/><use transform="matrix(0.03765432098765432,0,0,0.03765432098765432,24.81419753086419,0)" xlink:href="#B"/><use transform="matrix(0.03765432098765432,0,0,0.03765432098765432,32.34506172839505,0)" xlink:href="#O"/><use transform="matrix(0.03765432098765432,0,0,0.03765432098765432,36.825925925925915,0)" xlink:href="#D"/><use transform="matrix(0.03765432098765432,0,0,0.03765432098765432,44.356790123456776,0)" xlink:href="#E"/><use transform="matrix(0.03765432098765432,0,0,0.03765432098765432,49.62839506172838,0)" xlink:href="#R"/><use transform="matrix(0.03765432098765432,0,0,0.03765432098765432,54.10925925925925,0)" xlink:href="#B"/><use transform="matrix(0.03765432098765432,0,0,0.03765432098765432,61.64012345679011,0)" xlink:href="#D"/><use transform="matrix(0.03765432098765432,0,0,0.03765432098765432,69.17098765432097,0)" xlink:href="#P"/><use transform="matrix(0.03765432098765432,0,0,0.03765432098765432,72.9364197530864,0)" xlink:href="#U"/><use transform="matrix(0.03765432098765432,0,0,0.03765432098765432,77.41728395061726,0)" xlink:href="#S"/></g><g id="m"><use transform="matrix(0.03765432098765432,0,0,0.03765432098765432,0,0)" xlink:href="#I"/><use transform="matrix(0.03765432098765432,0,0,0.03765432098765432,9.037037037037036,0)" xlink:href="#w"/><use transform="matrix(0.03765432098765432,0,0,0.03765432098765432,16.5679012345679,0)" xlink:href="#E"/></g><path fill="#333" d="M186 0v-106H76V0H24v-248h52v99h110v-99h50V0h-50" id="V"/><g id="n"><use transform="matrix(0.03765432098765432,0,0,0.03765432098765432,0,0)" xlink:href="#B"/><use transform="matrix(0.03765432098765432,0,0,0.03765432098765432,7.530864197530864,0)" xlink:href="#D"/><use transform="matrix(0.03765432098765432,0,0,0.03765432098765432,15.061728395061728,0)" xlink:href="#P"/><use transform="matrix(0.03765432098765432,0,0,0.03765432098765432,18.827160493827158,0)" xlink:href="#D"/><use transform="matrix(0.03765432098765432,0,0,0.03765432098765432,26.358024691358022,0)" xlink:href="#H"/><use transform="matrix(0.03765432098765432,0,0,0.03765432098765432,33.888888888888886,0)" xlink:href="#O"/><use transform="matrix(0.03765432098765432,0,0,0.03765432098765432,38.36975308641975,0)" xlink:href="#V"/><use transform="matrix(0.03765432098765432,0,0,0.03765432098765432,48.12222222222222,0)" xlink:href="#w"/><use transform="matrix(0.03765432098765432,0,0,0.03765432098765432,55.65308641975308,0)" xlink:href="#x"/><use transform="matrix(0.03765432098765432,0,0,0.03765432098765432,63.899382716049374,0)" xlink:href="#y"/><use transform="matrix(0.03765432098765432,0,0,0.03765432098765432,72.14567901234567,0)" xlink:href="#P"/><use transform="matrix(0.03765432098765432,0,0,0.03765432098765432,75.9111111111111,0)" xlink:href="#D"/><use transform="matrix(0.03765432098765432,0,0,0.03765432098765432,83.44197530864196,0)" xlink:href="#E"/><use transform="matrix(0.03765432098765432,0,0,0.03765432098765432,88.71358024691357,0)" xlink:href="#R"/><use transform="matrix(0.03765432098765432,0,0,0.03765432098765432,93.19444444444444,0)" xlink:href="#S"/></g><g id="o"><use transform="matrix(0.03765432098765432,0,0,0.03765432098765432,0,0)" xlink:href="#E"/><use transform="matrix(0.03765432098765432,0,0,0.03765432098765432,5.271604938271604,0)" xlink:href="#D"/><use transform="matrix(0.03765432098765432,0,0,0.03765432098765432,12.802469135802468,0)" xlink:href="#O"/><use transform="matrix(0.03765432098765432,0,0,0.03765432098765432,17.28333333333333,0)" xlink:href="#A"/><use transform="matrix(0.03765432098765432,0,0,0.03765432098765432,25.52962962962962,0)" xlink:href="#E"/><use transform="matrix(0.03765432098765432,0,0,0.03765432098765432,30.80123456790123,0)" xlink:href="#x"/></g><path fill="#333" d="M114-157C55-157 80-60 75 0H25v-261h50l-1 109c12-26 28-41 61-42 86-1 58 113 63 194h-50c-7-57 23-157-34-157" id="W"/><g id="p"><use transform="matrix(0.03765432098765432,0,0,0.03765432098765432,0,0)" xlink:href="#W"/><use transform="matrix(0.03765432098765432,0,0,0.03765432098765432,8.246296296296295,0)" xlink:href="#w"/><use transform="matrix(0.03765432098765432,0,0,0.03765432098765432,15.777160493827159,0)" xlink:href="#x"/><use transform="matrix(0.03765432098765432,0,0,0.03765432098765432,24.023456790123454,0)" xlink:href="#y"/><use transform="matrix(0.03765432098765432,0,0,0.03765432098765432,32.26975308641975,0)" xlink:href="#P"/><use transform="matrix(0.03765432098765432,0,0,0.03765432098765432,36.03518518518518,0)" xlink:href="#D"/><use transform="matrix(0.03765432098765432,0,0,0.03765432098765432,43.566049382716045,0)" xlink:href="#R"/><use transform="matrix(0.03765432098765432,0,0,0.03765432098765432,48.04691358024691,0)" xlink:href="#t"/><use transform="matrix(0.03765432098765432,0,0,0.03765432098765432,57.79938271604938,0)" xlink:href="#u"/><use transform="matrix(0.03765432098765432,0,0,0.03765432098765432,66.04567901234567,0)" xlink:href="#v"/><use transform="matrix(0.03765432098765432,0,0,0.03765432098765432,78.09506172839505,0)" xlink:href="#v"/><use transform="matrix(0.03765432098765432,0,0,0.03765432098765432,90.14444444444443,0)" xlink:href="#w"/><use transform="matrix(0.03765432098765432,0,0,0.03765432098765432,97.6753086419753,0)" xlink:href="#x"/><use transform="matrix(0.03765432098765432,0,0,0.03765432098765432,105.92160493827157,0)" xlink:href="#y"/><use transform="matrix(0.03765432098765432,0,0,0.03765432098765432,114.16790123456788,0)" xlink:href="#S"/></g><path fill="#333" d="M135-194c53 0 70 44 70 98 0 56-19 98-73 100-31 1-45-17-59-34 3 33 2 69 2 105H25l-1-265h48c2 10 0 23 3 31 11-24 29-35 60-35zM114-30c33 0 39-31 40-66 0-38-9-64-40-64-56 0-55 130 0 130" id="X"/><g id="q"><use transform="matrix(0.03765432098765432,0,0,0.03765432098765432,0,0)" xlink:href="#y"/><use transform="matrix(0.03765432098765432,0,0,0.03765432098765432,8.246296296296295,0)" xlink:href="#G"/><use transform="matrix(0.03765432098765432,0,0,0.03765432098765432,12.011728395061727,0)" xlink:href="#B"/><use transform="matrix(0.03765432098765432,0,0,0.03765432098765432,19.54259259259259,0)" xlink:href="#X"/><use transform="matrix(0.03765432098765432,0,0,0.03765432098765432,27.788888888888888,0)" xlink:href="#w"/><use transform="matrix(0.03765432098765432,0,0,0.03765432098765432,35.31975308641975,0)" xlink:href="#O"/><use transform="matrix(0.03765432098765432,0,0,0.03765432098765432,39.800617283950615,0)" xlink:href="#H"/><use transform="matrix(0.03765432098765432,0,0,0.03765432098765432,47.331481481481475,0)" xlink:href="#W"/><use transform="matrix(0.03765432098765432,0,0,0.03765432098765432,55.577777777777776,0)" xlink:href="#R"/><use transform="matrix(0.03765432098765432,0,0,0.03765432098765432,60.058641975308625,0)" xlink:href="#t"/><use transform="matrix(0.03765432098765432,0,0,0.03765432098765432,69.8111111111111,0)" xlink:href="#u"/><use transform="matrix(0.03765432098765432,0,0,0.03765432098765432,78.0574074074074,0)" xlink:href="#v"/><use transform="matrix(0.03765432098765432,0,0,0.03765432098765432,90.10679012345678,0)" xlink:href="#v"/><use transform="matrix(0.03765432098765432,0,0,0.03765432098765432,102.15617283950617,0)" xlink:href="#w"/><use transform="matrix(0.03765432098765432,0,0,0.03765432098765432,109.68703703703702,0)" xlink:href="#x"/><use transform="matrix(0.03765432098765432,0,0,0.03765432098765432,117.93333333333331,0)" xlink:href="#y"/><use transform="matrix(0.03765432098765432,0,0,0.03765432098765432,126.1796296296296,0)" xlink:href="#S"/></g><path fill="#333" d="M24-248c120-7 223 5 221 122C244-46 201 0 124 0H24v-248zM76-40c74 7 117-18 117-86 0-67-45-88-117-82v168" id="Y"/><g id="r"><use transform="matrix(0.03765432098765432,0,0,0.03765432098765432,0,0)" xlink:href="#Y"/><use transform="matrix(0.03765432098765432,0,0,0.03765432098765432,9.752469135802468,0)" xlink:href="#G"/><use transform="matrix(0.03765432098765432,0,0,0.03765432098765432,13.5179012345679,0)" xlink:href="#B"/><use transform="matrix(0.03765432098765432,0,0,0.03765432098765432,21.048765432098765,0)" xlink:href="#X"/><use transform="matrix(0.03765432098765432,0,0,0.03765432098765432,29.295061728395055,0)" xlink:href="#w"/><use transform="matrix(0.03765432098765432,0,0,0.03765432098765432,36.825925925925915,0)" xlink:href="#O"/><use transform="matrix(0.03765432098765432,0,0,0.03765432098765432,41.30679012345678,0)" xlink:href="#H"/><use transform="matrix(0.03765432098765432,0,0,0.03765432098765432,48.83765432098764,0)" xlink:href="#W"/></g><g id="s"><use transform="matrix(0.03765432098765432,0,0,0.03765432098765432,0,0)" xlink:href="#t"/><use transform="matrix(0.03765432098765432,0,0,0.03765432098765432,9.752469135802468,0)" xlink:href="#u"/><use transform="matrix(0.03765432098765432,0,0,0.03765432098765432,17.998765432098764,0)" xlink:href="#v"/><use transform="matrix(0.03765432098765432,0,0,0.03765432098765432,30.048148148148144,0)" xlink:href="#v"/><use transform="matrix(0.03765432098765432,0,0,0.03765432098765432,42.09753086419753,0)" xlink:href="#w"/><use transform="matrix(0.03765432098765432,0,0,0.03765432098765432,49.62839506172838,0)" xlink:href="#x"/><use transform="matrix(0.03765432098765432,0,0,0.03765432098765432,57.87469135802468,0)" xlink:href="#y"/></g></defs></g></svg>