<svg xmlns="http://www.w3.org/2000/svg" xmlns:xlink="http://www.w3.org/1999/xlink" xmlns:lucid="lucid" width="1836.8" height="2092.9"><g transform="translate(-120 92.8953232663334)" lucid:page-tab-id="0_0"><path d="M560-64.9c0-4.4 3.58-8 8-8h836.75c4.42 0 8 3.6 8 8v47.1c0 4.43-3.58 8-8 8H568c-4.42 0-8-3.57-8-8z" stroke="#000" stroke-width="2" fill="#99d5ca"/><use xlink:href="#a" transform="matrix(1,0,0,1,564,-68.8953232663334) translate(250.66740740740744 34.15777777777778)"/><use xlink:href="#b" transform="matrix(1,0,0,1,564,-68.8953232663334) translate(416.3772839506173 34.15777777777778)"/><use xlink:href="#c" transform="matrix(1,0,0,1,564,-68.8953232663334) translate(551.5674074074075 34.15777777777778)"/><path d="M560-1.8c0-4.4 3.58-8 8-8h837.7c4.43 0 8 3.6 8 8v12.9c0 4.42-3.57 8-8 8H568c-4.42 0-8-3.58-8-8z" stroke="#000" stroke-width="2" fill="#99d5ca"/><use xlink:href="#d" transform="matrix(1,0,0,1,564.0000000000005,-5.7906465326667895) translate(302.11257201646094 14.917037037037037)"/><use xlink:href="#e" transform="matrix(1,0,0,1,564.0000000000005,-5.7906465326667895) translate(354.7573251028807 14.917037037037037)"/><use xlink:href="#f" transform="matrix(1,0,0,1,564.0000000000005,-5.7906465326667895) translate(421.7636008230453 14.917037037037037)"/><use xlink:href="#g" transform="matrix(1,0,0,1,564.0000000000005,-5.7906465326667895) translate(434.2130864197531 14.917037037037037)"/><use xlink:href="#h" transform="matrix(1,0,0,1,564.0000000000005,-5.7906465326667895) translate(499.5197736625514 14.917037037037037)"/><use xlink:href="#i" transform="matrix(1,0,0,1,564.0000000000005,-5.7906465326667895) translate(516.5156584362139 14.917037037037037)"/><path d="M140 188c0-4.42 3.58-8 8-8h104c4.42 0 8 3.58 8 8v84c0 4.42-3.58 8-8 8H148c-4.42 0-8-3.58-8-8z" stroke="#000" stroke-width="2" fill="#99d5ca"/><use xlink:href="#j" transform="matrix(1,0,0,1,140,180) translate(40.029999999999994 55.025)"/><path d="M200 281.5v5.02m0 5.02v10.05m0 5v10.05m0 5.03v10.04m0 5.02v10.05m0 5v10.05m0 5.02v10.05m0 5.02v10.04m0 5.03v10.05m0 5.02v10.05m0 5.02v10.04m0 5.02v10.05m0 5.02v10.04m0 5.04v10.04m0 5.02v10.05m0 5.02v10.04m0 5.03v10.05m0 5.02v10.04m0 5.03v10.04m0 5.03v10.05m0 5.02v10.04m0 5.02v10.05m0 5.03v10.04m0 5.03v10.04m0 5.02v10.05m0 5.03v10.04m0 5.02v10.04m0 5.02v10.05m0 5.03v10.04m0 5.02v10.04m0 5.02v10.04m0 5.03v10.04m0 5.02v10.04m0 5.02v10.04m0 5.02v10.05m0 5.02v10.03m0 5.03v10.04m0 5.02v10.05m0 5.02v10.03m0 5.02v10.05m0 5.02v10.04m0 5.03v10.03m0 5.02v10.05m0 5.02v10.04m0 5.02v10.05m0 5.02v10.04m0 5.02v10.04m0 5.02v10.05m0 5.02v10.04m0 5v10.06m0 5.02v10.04m0 5.03v10.04m0 5v10.06m0 5.02v10.04m0 5.02v10.05m0 5v10.05m0 5.03v10.04m0 5.02v10.05m0 5v10.05m0 5.02v10.05m0 5.02v10.04m0 5.03v10.05m0 5.02v10.05m0 5.02v10.04m0 5.02v10.05m0 5.02v10.04m0 5.04v10.04m0 5.02v10.05m0 5.02V1311m0 5.03v10.05m0 5.02v10.04m0 5.03v10.04m0 5.03v10.05m0 5.02v10.04m0 5.02v10.05m0 5.03v10.04m0 5.03v10.04m0 5.02v10.05m0 5.03v10.04m0 5.02v10.04m0 5.02v10.05m0 5.03v10.04m0 5.02v10.04m0 5.02V1537m0 5.03v10.04m0 5.02v10.04m0 5.02v10.04m0 5.02v10.05m0 5.02v10.03m0 5.03v10.04m0 5.02v10.05m0 5.02v10.03m0 5.02v10.05m0 5.02v10.04m0 5.03v10.03m0 5.02v10.05m0 5.02v10.04m0 5.02v10.05m0 5.02V1763m0 5.02v10.04m0 5.02v10.05m0 5.02v10.04m0 5v10.06m0 5.02v10.04m0 5.03v10.04m0 5v10.06m0 5.02v5.02" stroke="#333" fill="none"/><path d="M200.5 281.5h-1v-.5h1zM200.5 1879h-1v-.5h1z" fill="#333"/><path d="M140 1888c0-4.42 3.58-8 8-8h104c4.42 0 8 3.58 8 8v84c0 4.42-3.58 8-8 8H148c-4.42 0-8-3.58-8-8z" stroke="#000" stroke-width="2" fill="#99d5ca"/><use xlink:href="#j" transform="matrix(1,0,0,1,140,1880) translate(40.029999999999994 55.025)"/><path d="M380 188c0-4.42 3.58-8 8-8h184c4.42 0 8 3.58 8 8v84c0 4.42-3.58 8-8 8H388c-4.42 0-8-3.58-8-8z" stroke="#000" stroke-width="2" fill="#99d5ca"/><use xlink:href="#k" transform="matrix(1,0,0,1,380,180) translate(22.205000000000005 55.025)"/><path d="M480 281.5v5.02m0 5.02v10.05m0 5v10.05m0 5.03v10.04m0 5.02v10.05m0 5v10.05m0 5.02v10.05m0 5.02v10.04m0 5.03v10.05m0 5.02v10.05m0 5.02v10.04m0 5.02v10.05m0 5.02v10.04m0 5.04v10.04m0 5.02v10.05m0 5.02v10.04m0 5.03v10.05m0 5.02v10.04m0 5.03v10.04m0 5.03v10.05m0 5.02v10.04m0 5.02v10.05m0 5.03v10.04m0 5.03v10.04m0 5.02v10.05m0 5.03v10.04m0 5.02v10.04m0 5.02v10.05m0 5.03v10.04m0 5.02v10.04m0 5.02v10.04m0 5.03v10.04m0 5.02v10.04m0 5.02v10.04m0 5.02v10.05m0 5.02v10.03m0 5.03v10.04m0 5.02v10.05m0 5.02v10.03m0 5.02v10.05m0 5.02v10.04m0 5.03v10.03m0 5.02v10.05m0 5.02v10.04m0 5.02v10.05m0 5.02v10.04m0 5.02v10.04m0 5.02v10.05m0 5.02v10.04m0 5v10.06m0 5.02v10.04m0 5.03v10.04m0 5v10.06m0 5.02v10.04m0 5.02v10.05m0 5v10.05m0 5.03v10.04m0 5.02v10.05m0 5v10.05m0 5.02v10.05m0 5.02v10.04m0 5.03v10.05m0 5.02v10.05m0 5.02v10.04m0 5.02v10.05m0 5.02v10.04m0 5.04v10.04m0 5.02v10.05m0 5.02V1311m0 5.03v10.05m0 5.02v10.04m0 5.03v10.04m0 5.03v10.05m0 5.02v10.04m0 5.02v10.05m0 5.03v10.04m0 5.03v10.04m0 5.02v10.05m0 5.03v10.04m0 5.02v10.04m0 5.02v10.05m0 5.03v10.04m0 5.02v10.04m0 5.02V1537m0 5.03v10.04m0 5.02v10.04m0 5.02v10.04m0 5.02v10.05m0 5.02v10.03m0 5.03v10.04m0 5.02v10.05m0 5.02v10.03m0 5.02v10.05m0 5.02v10.04m0 5.03v10.03m0 5.02v10.05m0 5.02v10.04m0 5.02v10.05m0 5.02V1763m0 5.02v10.04m0 5.02v10.05m0 5.02v10.04m0 5v10.06m0 5.02v10.04m0 5.03v10.04m0 5v10.06m0 5.02v5.02" stroke="#333" fill="none"/><path d="M480.5 281.5h-1v-.5h1zM480.5 1879h-1v-.5h1z" fill="#333"/><path d="M380 1888c0-4.42 3.58-8 8-8h184c4.42 0 8 3.58 8 8v84c0 4.42-3.58 8-8 8H388c-4.42 0-8-3.58-8-8z" stroke="#000" stroke-width="2" fill="#99d5ca"/><use xlink:href="#k" transform="matrix(1,0,0,1,380,1880) translate(22.205000000000005 55.025)"/><path d="M1006.1 188c0-4.42 3.58-8 8-8h184c4.42 0 8 3.58 8 8v84c0 4.42-3.58 8-8 8h-184c-4.42 0-8-3.58-8-8z" stroke="#000" stroke-width="2" fill="#99d5ca"/><use xlink:href="#l" transform="matrix(1,0,0,1,1006.0999999999999,180) translate(17.205000000000005 55.025)"/><path d="M1106.1 281.5v5.02m0 5.02v10.05m0 5v10.05m0 5.03v10.04m0 5.02v10.05m0 5v10.05m0 5.02v10.05m0 5.02v10.04m0 5.03v10.05m0 5.02v10.05m0 5.02v10.04m0 5.02v10.05m0 5.02v10.04m0 5.04v10.04m0 5.02v10.05m0 5.02v10.04m0 5.03v10.05m0 5.02v10.04m0 5.03v10.04m0 5.03v10.05m0 5.02v10.04m0 5.02v10.05m0 5.03v10.04m0 5.03v10.04m0 5.02v10.05m0 5.03v10.04m0 5.02v10.04m0 5.02v10.05m0 5.03v10.04m0 5.02v10.04m0 5.02v10.04m0 5.03v10.04m0 5.02v10.04m0 5.02v10.04m0 5.02v10.05m0 5.02v10.03m0 5.03v10.04m0 5.02v10.05m0 5.02v10.03m0 5.02v10.05m0 5.02v10.04m0 5.03v10.03m0 5.02v10.05m0 5.02v10.04m0 5.02v10.05m0 5.02v10.04m0 5.02v10.04m0 5.02v10.05m0 5.02v10.04m0 5v10.06m0 5.02v10.04m0 5.03v10.04m0 5v10.06m0 5.02v10.04m0 5.02v10.05m0 5v10.05m0 5.03v10.04m0 5.02v10.05m0 5v10.05m0 5.02v10.05m0 5.02v10.04m0 5.03v10.05m0 5.02v10.05m0 5.02v10.04m0 5.02v10.05m0 5.02v10.04m0 5.04v10.04m0 5.02v10.05m0 5.02V1311m0 5.03v10.05m0 5.02v10.04m0 5.03v10.04m0 5.03v10.05m0 5.02v10.04m0 5.02v10.05m0 5.03v10.04m0 5.03v10.04m0 5.02v10.05m0 5.03v10.04m0 5.02v10.04m0 5.02v10.05m0 5.03v10.04m0 5.02v10.04m0 5.02V1537m0 5.03v10.04m0 5.02v10.04m0 5.02v10.04m0 5.02v10.05m0 5.02v10.03m0 5.03v10.04m0 5.02v10.05m0 5.02v10.03m0 5.02v10.05m0 5.02v10.04m0 5.03v10.03m0 5.02v10.05m0 5.02v10.04m0 5.02v10.05m0 5.02V1763m0 5.02v10.04m0 5.02v10.05m0 5.02v10.04m0 5v10.06m0 5.02v10.04m0 5.03v10.04m0 5v10.06m0 5.02v5.02" stroke="#333" fill="none"/><path d="M1106.6 281.5h-1v-.5h1zM1106.6 1879h-1v-.5h1z" fill="#333"/><path d="M1006.1 1888c0-4.42 3.58-8 8-8h184c4.42 0 8 3.58 8 8v84c0 4.42-3.58 8-8 8h-184c-4.42 0-8-3.58-8-8z" stroke="#000" stroke-width="2" fill="#99d5ca"/><use xlink:href="#l" transform="matrix(1,0,0,1,1006.0999999999999,1880) translate(17.205000000000005 55.025)"/><path d="M1411.45 188c0-4.42 3.58-8 8-8H1612c4.42 0 8 3.58 8 8v84c0 4.42-3.58 8-8 8h-192.55c-4.42 0-8-3.58-8-8z" stroke="#000" stroke-width="2" fill="#99d5ca"/><use xlink:href="#m" transform="matrix(1,0,0,1,1411.4499999999998,180) translate(21.705000000000005 55.025)"/><path d="M1515.72 281.5v5.02m0 5.02v10.05m0 5v10.05m0 5.03v10.04m0 5.02v10.05m0 5v10.05m0 5.02v10.05m0 5.02v10.04m0 5.03v10.05m0 5.02v10.05m0 5.02v10.04m0 5.02v10.05m0 5.02v10.04m0 5.04v10.04m0 5.02v10.05m0 5.02v10.04m0 5.03v10.05m0 5.02v10.04m0 5.03v10.04m0 5.03v10.05m0 5.02v10.04m0 5.02v10.05m0 5.03v10.04m0 5.03v10.04m0 5.02v10.05m0 5.03v10.04m0 5.02v10.04m0 5.02v10.05m0 5.03v10.04m0 5.02v10.04m0 5.02v10.04m0 5.03v10.04m0 5.02v10.04m0 5.02v10.04m0 5.02v10.05m0 5.02v10.03m0 5.03v10.04m0 5.02v10.05m0 5.02v10.03m0 5.02v10.05m0 5.02v10.04m0 5.03v10.03m0 5.02v10.05m0 5.02v10.04m0 5.02v10.05m0 5.02v10.04m0 5.02v10.04m0 5.02v10.05m0 5.02v10.04m0 5v10.06m0 5.02v10.04m0 5.03v10.04m0 5v10.06m0 5.02v10.04m0 5.02v10.05m0 5v10.05m0 5.03v10.04m0 5.02v10.05m0 5v10.05m0 5.02v10.05m0 5.02v10.04m0 5.03v10.05m0 5.02v10.05m0 5.02v10.04m0 5.02v10.05m0 5.02v10.04m0 5.04v10.04m0 5.02v10.05m0 5.02V1311m0 5.03v10.05m0 5.02v10.04m0 5.03v10.04m0 5.03v10.05m0 5.02v10.04m0 5.02v10.05m0 5.03v10.04m0 5.03v10.04m0 5.02v10.05m0 5.03v10.04m0 5.02v10.04m0 5.02v10.05m0 5.03v10.04m0 5.02v10.04m0 5.02V1537m0 5.03v10.04m0 5.02v10.04m0 5.02v10.04m0 5.02v10.05m0 5.02v10.03m0 5.03v10.04m0 5.02v10.05m0 5.02v10.03m0 5.02v10.05m0 5.02v10.04m0 5.03v10.03m0 5.02v10.05m0 5.02v10.04m0 5.02v10.05m0 5.02V1763m0 5.02v10.04m0 5.02v10.05m0 5.02v10.04m0 5v10.06m0 5.02v10.04m0 5.03v10.04m0 5v10.06m0 5.02v5.02" stroke="#333" fill="none"/><path d="M1516.22 281.5h-1v-.5h1zM1516.22 1879h-1v-.5h1z" fill="#333"/><path d="M1411.45 1888c0-4.42 3.58-8 8-8H1612c4.42 0 8 3.58 8 8v84c0 4.42-3.58 8-8 8h-192.55c-4.42 0-8-3.58-8-8z" stroke="#000" stroke-width="2" fill="#99d5ca"/><use xlink:href="#m" transform="matrix(1,0,0,1,1411.4499999999998,1880) translate(21.705000000000005 55.025)"/><path d="M1816.8 188c0-4.42 3.58-8 8-8h104c4.42 0 8 3.58 8 8v84c0 4.42-3.58 8-8 8h-104c-4.42 0-8-3.58-8-8z" stroke="#000" stroke-width="2" fill="#99d5ca"/><use xlink:href="#n" transform="matrix(1,0,0,1,1816.7999999999997,180) translate(18.60499999999999 55.025)"/><path d="M1876.8 281.5v5.02m0 5.02v10.05m0 5v10.05m0 5.03v10.04m0 5.02v10.05m0 5v10.05m0 5.02v10.05m0 5.02v10.04m0 5.03v10.05m0 5.02v10.05m0 5.02v10.04m0 5.02v10.05m0 5.02v10.04m0 5.04v10.04m0 5.02v10.05m0 5.02v10.04m0 5.03v10.05m0 5.02v10.04m0 5.03v10.04m0 5.03v10.05m0 5.02v10.04m0 5.02v10.05m0 5.03v10.04m0 5.03v10.04m0 5.02v10.05m0 5.03v10.04m0 5.02v10.04m0 5.02v10.05m0 5.03v10.04m0 5.02v10.04m0 5.02v10.04m0 5.03v10.04m0 5.02v10.04m0 5.02v10.04m0 5.02v10.05m0 5.02v10.03m0 5.03v10.04m0 5.02v10.05m0 5.02v10.03m0 5.02v10.05m0 5.02v10.04m0 5.03v10.03m0 5.02v10.05m0 5.02v10.04m0 5.02v10.05m0 5.02v10.04m0 5.02v10.04m0 5.02v10.05m0 5.02v10.04m0 5v10.06m0 5.02v10.04m0 5.03v10.04m0 5v10.06m0 5.02v10.04m0 5.02v10.05m0 5v10.05m0 5.03v10.04m0 5.02v10.05m0 5v10.05m0 5.02v10.05m0 5.02v10.04m0 5.03v10.05m0 5.02v10.05m0 5.02v10.04m0 5.02v10.05m0 5.02v10.04m0 5.04v10.04m0 5.02v10.05m0 5.02V1311m0 5.03v10.05m0 5.02v10.04m0 5.03v10.04m0 5.03v10.05m0 5.02v10.04m0 5.02v10.05m0 5.03v10.04m0 5.03v10.04m0 5.02v10.05m0 5.03v10.04m0 5.02v10.04m0 5.02v10.05m0 5.03v10.04m0 5.02v10.04m0 5.02V1537m0 5.03v10.04m0 5.02v10.04m0 5.02v10.04m0 5.02v10.05m0 5.02v10.03m0 5.03v10.04m0 5.02v10.05m0 5.02v10.03m0 5.02v10.05m0 5.02v10.04m0 5.03v10.03m0 5.02v10.05m0 5.02v10.04m0 5.02v10.05m0 5.02V1763m0 5.02v10.04m0 5.02v10.05m0 5.02v10.04m0 5v10.06m0 5.02v10.04m0 5.03v10.04m0 5v10.06m0 5.02v5.02" stroke="#333" fill="none"/><path d="M1877.3 281.5h-1v-.5h1zM1877.3 1879h-1v-.5h1z" fill="#333"/><path d="M1816.8 1888c0-4.42 3.58-8 8-8h104c4.42 0 8 3.58 8 8v84c0 4.42-3.58 8-8 8h-104c-4.42 0-8-3.58-8-8z" stroke="#000" stroke-width="2" fill="#99d5ca"/><use xlink:href="#n" transform="matrix(1,0,0,1,1816.7999999999997,1880) translate(18.60499999999999 55.025)"/><path d="M180 328.48c0-4.42 3.58-8 8-8h24c4.42 0 8 3.58 8 8v463.7c0 4.4-3.58 8-8 8h-24c-4.42 0-8-3.6-8-8zM180 1527.73c0-4.42 3.58-8 8-8h24c4.42 0 8 3.58 8 8v343.77c0 4.42-3.58 8-8 8h-24c-4.42 0-8-3.58-8-8z" stroke="#333" fill="#fff"/><path d="M400 340.43h1504.8l12 12v48H400z" stroke="#000" stroke-width="2" fill="#99d5ca"/><path d="M1904.8 341.38v11.05h11.05" stroke="#000" stroke-width="2" fill="#99d5ca"/><use xlink:href="#o" transform="matrix(1,0,0,1,404.9999999999998,345.425) translate(718.05 30.025)"/><path d="M480.5 520.7h1379.92M480.5 520.7h-.5" stroke="#333" fill="none"/><path d="M1875.18 520.7l-14.26 4.64v-9.28z" stroke="#333" fill="#333"/><use xlink:href="#p" transform="matrix(1,0,0,1,859.1499999999999,495.1000000000001) translate(0.0049999999999954525 14.4)"/><use xlink:href="#q" transform="matrix(1,0,0,1,859.1499999999999,495.1000000000001) translate(285.35499999999996 14.4)"/><use xlink:href="#r" transform="matrix(1,0,0,1,859.1499999999999,495.1000000000001) translate(463.9549999999999 14.4)"/><path d="M410 428.4c0-4.4 3.58-8 8-8h84c4.42 0 8 3.6 8 8v4.94c0 3.9-2.24 9.3-5 12.07-2.76 2.77-8.17 5-12.07 5H418c-4.42 0-8-3.57-8-8z" fill="#99d5ca"/><path d="M510 420.4v20l-10 10h-90" stroke="#000" stroke-width="2" fill="none"/><path d="M410 428.4c0-4.4 3.58-8 8-8h1480.8c4.42 0 8 3.6 8 8v223.86c0 4.42-3.58 8-8 8H418c-4.42 0-8-3.58-8-8z" stroke="#000" stroke-width="2" fill="none"/><use xlink:href="#s" transform="matrix(1,0,0,1,417.9999999999998,420.4125000000001) translate(26.5 18.6)"/><path d="M1516.22 640.55h344.2M1516.24 640.55h-.52" stroke="#333" fill="none"/><path d="M1875.18 640.55l-14.26 4.64v-9.3z" stroke="#333" fill="#333"/><use xlink:href="#p" transform="matrix(1,0,0,1,1543.1124999999997,614.95) translate(0.0049999999999954525 14.4)"/><use xlink:href="#t" transform="matrix(1,0,0,1,1543.1124999999997,614.95) translate(285.35499999999996 14.4)"/><path d="M1106.6 580.63h753.82M1106.6 580.63h-.5" stroke="#333" fill="none"/><path d="M1875.18 580.63l-14.26 4.63V576z" stroke="#333" fill="#333"/><use xlink:href="#p" transform="matrix(1,0,0,1,1338.2999999999997,555.0250000000001) translate(0.0049999999999954525 14.4)"/><use xlink:href="#t" transform="matrix(1,0,0,1,1338.2999999999997,555.0250000000001) translate(285.35499999999996 14.4)"/><path d="M220.13 795.8h127.4c1.27 0 2.3 1 2.3 2.27 0 1.26 1 2.28 2.27 2.28h111.52" stroke="#333" fill="none"/><path d="M220.15 796.3h-.85l.54-.8.04-.2h.27z" fill="#333"/><path d="M478.38 800.35L464.12 805v-9.3z" stroke="#333" fill="#333"/><use xlink:href="#u" transform="matrix(1,0,0,1,263.15741292848617,770.1987123298934) translate(0.0049999999999954525 14.4)"/><path d="M160 680.2h1744.8l12 12v48H160z" stroke="#000" stroke-width="2" fill="#99d5ca"/><path d="M1904.8 681.16v11.05h11.05" stroke="#000" stroke-width="2" fill="#99d5ca"/><use xlink:href="#v" transform="matrix(1,0,0,1,165,685.2125) translate(781.7 30.025)"/><use xlink:href="#w" transform="matrix(1,0,0,1,165,685.2125) translate(862.5 30.025)"/><use xlink:href="#x" transform="matrix(1,0,0,1,165,685.2125) translate(877.5 30.025)"/><path d="M480.5 860.27h1379.92M480.5 860.27h-.5" stroke="#333" fill="none"/><path d="M1875.18 860.27l-14.26 4.64v-9.26z" stroke="#333" fill="#333"/><use xlink:href="#y" transform="matrix(1,0,0,1,1048.2749999999999,834.6750000000001) translate(0.0049999999999954525 14.4)"/><path d="M1036.1 888.13c0-4.42 3.58-8 8-8h84c4.42 0 8 3.58 8 8v4.92c0 3.9-2.24 9.3-5 12.08-2.76 2.76-8.17 5-12.07 5h-74.93c-4.42 0-8-3.6-8-8z" fill="#99d5ca"/><path d="M1136.1 880.13v20l-10 10h-90" stroke="#000" stroke-width="2" fill="none"/><path d="M1036.1 888.13c0-4.42 3.58-8 8-8h854.7c4.42 0 8 3.58 8 8V1052c0 4.43-3.58 8-8 8h-854.7c-4.42 0-8-3.57-8-8z" stroke="#000" stroke-width="2" fill="none"/><use xlink:href="#s" transform="matrix(1,0,0,1,1044.1,880.125) translate(26.5 18.6)"/><path d="M1876.3 1040.05h-344.2M1876.3 1040.05h.5" stroke="#333" fill="none"/><path d="M1517.34 1040.05l14.27-4.64v9.3z" stroke="#333" fill="#333"/><use xlink:href="#z" transform="matrix(1,0,0,1,1577.0874999999999,1014.45) translate(0.0049999999999954525 14.4)"/><path d="M1876.3 980.13h-753.82M1876.3 980.13h.5" stroke="#333" fill="none"/><path d="M1107.72 980.13l14.26-4.64v9.26z" stroke="#333" fill="#333"/><use xlink:href="#z" transform="matrix(1,0,0,1,1372.2749999999999,954.5250000000001) translate(0.0049999999999954525 14.4)"/><path d="M1106.6 1179.88h753.82M1106.6 1179.88h-.5" stroke="#333" fill="none"/><path d="M1875.18 1179.88l-14.26 4.63v-9.26z" stroke="#333" fill="#333"/><use xlink:href="#A" transform="matrix(1,0,0,1,1369.3,1154.2749999999999) translate(0.0049999999999954525 14.4)"/><path d="M1036.1 1088c0-4.42 3.58-8 8-8h84c4.42 0 8 3.58 8 8v4.93c0 3.9-2.24 9.3-5 12.07-2.76 2.76-8.17 5-12.07 5h-74.93c-4.42 0-8-3.58-8-8z" fill="#99d5ca"/><path d="M1136.1 1080v20l-10 10h-90" stroke="#000" stroke-width="2" fill="none"/><path d="M1036.1 1088c0-4.42 3.58-8 8-8h854.7c4.42 0 8 3.58 8 8v163.9c0 4.4-3.58 8-8 8h-854.7c-4.42 0-8-3.6-8-8z" stroke="#000" stroke-width="2" fill="none"/><use xlink:href="#s" transform="matrix(1,0,0,1,1044.1,1080) translate(26.5 18.6)"/><path d="M1516.22 1239.8h344.2M1516.24 1239.8h-.52" stroke="#333" fill="none"/><path d="M1875.18 1239.8l-14.26 4.64v-9.28z" stroke="#333" fill="#333"/><use xlink:href="#A" transform="matrix(1,0,0,1,1574.1125,1214.2) translate(0.0049999999999954525 14.4)"/><path d="M410 1287.88c0-4.42 3.58-8 8-8h84c4.42 0 8 3.58 8 8v4.92c0 3.9-2.24 9.3-5 12.08-2.76 2.76-8.17 5-12.07 5H418c-4.42 0-8-3.6-8-8z" fill="#99d5ca"/><path d="M510 1279.88v20l-10 10h-90" stroke="#000" stroke-width="2" fill="none"/><path d="M410 1287.88c0-4.42 3.58-8 8-8h1480.8c4.42 0 8 3.58 8 8v163.88c0 4.42-3.58 8-8 8H418c-4.42 0-8-3.58-8-8z" stroke="#000" stroke-width="2" fill="none"/><use xlink:href="#s" transform="matrix(1,0,0,1,417.9999999999998,1279.875) translate(26.5 18.6)"/><path d="M1876.3 1439.55H496.38M1876.3 1439.55h.5" stroke="#333" fill="none"/><path d="M481.62 1439.55l14.26-4.64v9.3z" stroke="#333" fill="#333"/><use xlink:href="#B" transform="matrix(1,0,0,1,978.4499999999999,1413.95) translate(0.0049999999999954525 14.4)"/><path d="M479.5 1559.4H350.15c-.08 0-.15.07-.15.15 0 .08-.07.15-.15.15H236.38M479.5 1559.4h.5" stroke="#333" fill="none"/><path d="M221.62 1559.7l14.26-4.64v9.28z" stroke="#333" fill="#333"/><path d="M480.5 1519.45h1379.92M480.5 1519.45h-.5" stroke="#333" fill="none"/><path d="M1875.18 1519.45l-14.26 4.64v-9.3z" stroke="#333" fill="#333"/><use xlink:href="#C" transform="matrix(1,0,0,1,967.5,1493.85) translate(0.0049999999999954525 14.4)"/><path d="M1876.3 1379.63H496.38M1876.3 1379.63h.5" stroke="#333" fill="none"/><path d="M481.62 1379.63l14.26-4.64v9.26z" stroke="#333" fill="#333"/><use xlink:href="#D" transform="matrix(1,0,0,1,978.4499999999999,1354.025) translate(0.0049999999999954525 14.4)"/><path d="M1516.22 1799.1h63.23c6.63 0 12 5.37 12 12v15.95c0 6.63-5.37 12-12 12h-47.34M1516.24 1799.1h-.52" stroke="#333" fill="none"/><path d="M1517.34 1839.05l14.27-4.64v9.3z" stroke="#333" fill="#333"/><use xlink:href="#E" transform="matrix(1,0,0,1,1599.4499999999996,1808.2749999999999) translate(0.0049999999999954525 14.4)"/><path d="M1036.1 1587.7c0-4.43 3.58-8 8-8h84c4.42 0 8 3.57 8 8v4.92c0 3.9-2.24 9.3-5 12.07-2.76 2.75-8.17 5-12.07 5h-74.93c-4.42 0-8-3.6-8-8z" fill="#99d5ca"/><path d="M1136.1 1579.7v20l-10 10h-90" stroke="#000" stroke-width="2" fill="none"/><path d="M1036.1 1587.7c0-4.43 3.58-8 8-8h854.7c4.42 0 8 3.57 8 8v163.88c0 4.4-3.58 8-8 8h-854.7c-4.42 0-8-3.6-8-8z" stroke="#000" stroke-width="2" fill="none"/><g><use xlink:href="#s" transform="matrix(1,0,0,1,1044.1,1579.6875) translate(26.5 18.6)"/></g><path d="M1876.3 1679.25h-753.82M1876.3 1679.25h.5" stroke="#333" fill="none"/><path d="M1107.72 1679.25l14.26-4.64v9.3z" stroke="#333" fill="#333"/><g><use xlink:href="#F" transform="matrix(1,0,0,1,1291.5,1653.65) translate(0.0049999999999954525 14.4)"/></g><path d="M1876.3 1739.17h-344.2M1876.3 1739.17h.5" stroke="#333" fill="none"/><path d="M1517.34 1739.17l14.27-4.63v9.27z" stroke="#333" fill="#333"/><g><use xlink:href="#F" transform="matrix(1,0,0,1,1496.3125,1713.5749999999998) translate(0.0049999999999954525 14.4)"/></g><defs><path d="M24 0v-248h195v40H76v63h132v40H76v65h150V0H24" id="G"/><path d="M128 0H69L1-190h53L99-40l48-150h52" id="H"/><path d="M185-48c-13 30-37 53-82 52C43 2 14-33 14-96s30-98 90-98c62 0 83 45 84 108H66c0 31 8 55 39 56 18 0 30-7 34-22zm-45-69c5-46-57-63-70-21-2 6-4 13-4 21h74" id="I"/><path d="M135-194c87-1 58 113 63 194h-50c-7-57 23-157-34-157-59 0-34 97-39 157H25l-1-190h47c2 12-1 28 3 38 12-26 28-41 61-42" id="J"/><path d="M115-3C79 11 28 4 28-45v-112H4v-33h27l15-45h31v45h36v33H77v99c-1 23 16 31 38 25v30" id="K"/><path d="M14-72v-43h91v43H14" id="L"/><path d="M88-194c31-1 46 15 58 34l-1-101h50l1 261h-48c-2-10 0-23-3-31C134-8 116 4 84 4 32 4 16-41 15-95c0-56 19-97 73-99zm17 164c33 0 40-30 41-66 1-37-9-64-41-64s-38 30-39 65c0 43 13 65 39 65" id="M"/><path d="M135-150c-39-12-60 13-60 57V0H25l-1-190h47c2 13-1 29 3 40 6-28 27-53 61-41v41" id="N"/><path d="M25-224v-37h50v37H25zM25 0v-190h50V0H25" id="O"/><g id="a"><use transform="matrix(0.0728395061728395,0,0,0.0728395061728395,0,0)" xlink:href="#G"/><use transform="matrix(0.0728395061728395,0,0,0.0728395061728395,17.48148148148148,0)" xlink:href="#H"/><use transform="matrix(0.0728395061728395,0,0,0.0728395061728395,32.04938271604938,0)" xlink:href="#I"/><use transform="matrix(0.0728395061728395,0,0,0.0728395061728395,46.61728395061728,0)" xlink:href="#J"/><use transform="matrix(0.0728395061728395,0,0,0.0728395061728395,62.56913580246913,0)" xlink:href="#K"/><use transform="matrix(0.0728395061728395,0,0,0.0728395061728395,71.23703703703703,0)" xlink:href="#L"/><use transform="matrix(0.0728395061728395,0,0,0.0728395061728395,79.90493827160493,0)" xlink:href="#M"/><use transform="matrix(0.0728395061728395,0,0,0.0728395061728395,95.85679012345679,0)" xlink:href="#N"/><use transform="matrix(0.0728395061728395,0,0,0.0728395061728395,106.05432098765432,0)" xlink:href="#O"/><use transform="matrix(0.0728395061728395,0,0,0.0728395061728395,113.33827160493827,0)" xlink:href="#H"/><use transform="matrix(0.0728395061728395,0,0,0.0728395061728395,127.90617283950617,0)" xlink:href="#I"/><use transform="matrix(0.0728395061728395,0,0,0.0728395061728395,142.47407407407408,0)" xlink:href="#J"/></g><path d="M67-125c0 53 21 87 73 88 37 1 54-22 65-47l45 17C233-25 199 4 140 4 58 4 20-42 15-125 8-235 124-281 211-232c18 10 29 29 36 50l-46 12c-8-25-30-41-62-41-52 0-71 34-72 86" id="P"/><path d="M110-194c64 0 96 36 96 99 0 64-35 99-97 99-61 0-95-36-95-99 0-62 34-99 96-99zm-1 164c35 0 45-28 45-65 0-40-10-65-43-65-34 0-45 26-45 65 0 36 10 65 43 65" id="Q"/><path d="M220-157c-53 9-28 100-34 157h-49v-107c1-27-5-49-29-50C55-147 81-57 75 0H25l-1-190h47c2 12-1 28 3 38 10-53 101-56 108 0 13-22 24-43 59-42 82 1 51 116 57 194h-49v-107c-1-25-5-48-29-50" id="R"/><path d="M133-34C117-15 103 5 69 4 32 3 11-16 11-54c-1-60 55-63 116-61 1-26-3-47-28-47-18 1-26 9-28 27l-52-2c7-38 36-58 82-57s74 22 75 68l1 82c-1 14 12 18 25 15v27c-30 8-71 5-69-32zm-48 3c29 0 43-24 42-57-32 0-66-3-65 30 0 17 8 27 23 27" id="S"/><g id="b"><use transform="matrix(0.0728395061728395,0,0,0.0728395061728395,0,0)" xlink:href="#P"/><use transform="matrix(0.0728395061728395,0,0,0.0728395061728395,18.86543209876543,0)" xlink:href="#Q"/><use transform="matrix(0.0728395061728395,0,0,0.0728395061728395,34.81728395061728,0)" xlink:href="#R"/><use transform="matrix(0.0728395061728395,0,0,0.0728395061728395,58.12592592592593,0)" xlink:href="#R"/><use transform="matrix(0.0728395061728395,0,0,0.0728395061728395,81.43456790123457,0)" xlink:href="#S"/><use transform="matrix(0.0728395061728395,0,0,0.0728395061728395,96.00246913580247,0)" xlink:href="#J"/><use transform="matrix(0.0728395061728395,0,0,0.0728395061728395,111.95432098765431,0)" xlink:href="#M"/></g><path d="M182-130c37 4 62 22 62 59C244 23 116-4 24 0v-248c84 5 203-23 205 63 0 31-19 50-47 55zM76-148c40-3 101 13 101-30 0-44-60-28-101-31v61zm0 110c48-3 116 14 116-37 0-48-69-32-116-35v72" id="T"/><path d="M85 4C-2 5 27-109 22-190h50c7 57-23 150 33 157 60-5 35-97 40-157h50l1 190h-47c-2-12 1-28-3-38-12 25-28 42-61 42" id="U"/><path d="M137-138c1-29-70-34-71-4 15 46 118 7 119 86 1 83-164 76-172 9l43-7c4 19 20 25 44 25 33 8 57-30 24-41C81-84 22-81 20-136c-2-80 154-74 161-7" id="V"/><g id="c"><use transform="matrix(0.0728395061728395,0,0,0.0728395061728395,0,0)" xlink:href="#T"/><use transform="matrix(0.0728395061728395,0,0,0.0728395061728395,18.86543209876543,0)" xlink:href="#U"/><use transform="matrix(0.0728395061728395,0,0,0.0728395061728395,34.81728395061728,0)" xlink:href="#V"/></g><path d="M185-189c-5-48-123-54-124 2 14 75 158 14 163 119 3 78-121 87-175 55-17-10-28-26-33-46l33-7c5 56 141 63 141-1 0-78-155-14-162-118-5-82 145-84 179-34 5 7 8 16 11 25" id="W"/><path d="M141-36C126-15 110 5 73 4 37 3 15-17 15-53c-1-64 63-63 125-63 3-35-9-54-41-54-24 1-41 7-42 31l-33-3c5-37 33-52 76-52 45 0 72 20 72 64v82c-1 20 7 32 28 27v20c-31 9-61-2-59-35zM48-53c0 20 12 33 32 33 41-3 63-29 60-74-43 2-92-5-92 41" id="X"/><path d="M210-169c-67 3-38 105-44 169h-31v-121c0-29-5-50-35-48C34-165 62-65 56 0H25l-1-190h30c1 10-1 24 2 32 10-44 99-50 107 0 11-21 27-35 58-36 85-2 47 119 55 194h-31v-121c0-29-5-49-35-48" id="Y"/><path d="M117-194c89-4 53 116 60 194h-32v-121c0-31-8-49-39-48C34-167 62-67 57 0H25l-1-190h30c1 10-1 24 2 32 11-22 29-35 61-36" id="Z"/><g id="d"><use transform="matrix(0.04248971193415638,0,0,0.04248971193415638,0,0)" xlink:href="#W"/><use transform="matrix(0.04248971193415638,0,0,0.04248971193415638,10.19753086419753,0)" xlink:href="#X"/><use transform="matrix(0.04248971193415638,0,0,0.04248971193415638,18.695473251028805,0)" xlink:href="#Y"/><use transform="matrix(0.04248971193415638,0,0,0.04248971193415638,31.399897119341556,0)" xlink:href="#X"/><use transform="matrix(0.04248971193415638,0,0,0.04248971193415638,39.897839506172836,0)" xlink:href="#Z"/></g><path d="M197 0v-115H63V0H30v-248h33v105h134v-105h34V0h-34" id="aa"/><path d="M100-194c62-1 85 37 85 99 1 63-27 99-86 99S16-35 15-95c0-66 28-99 85-99zM99-20c44 1 53-31 53-75 0-43-8-75-51-75s-53 32-53 75 10 74 51 75" id="ab"/><path d="M135-143c-3-34-86-38-87 0 15 53 115 12 119 90S17 21 10-45l28-5c4 36 97 45 98 0-10-56-113-15-118-90-4-57 82-63 122-42 12 7 21 19 24 35" id="ac"/><path d="M100-194c63 0 86 42 84 106H49c0 40 14 67 53 68 26 1 43-12 49-29l28 8c-11 28-37 45-77 45C44 4 14-33 15-96c1-61 26-98 85-98zm52 81c6-60-76-77-97-28-3 7-6 17-6 28h103" id="ad"/><path d="M24-231v-30h32v30H24zM24 0v-190h32V0H24" id="ae"/><g id="e"><use transform="matrix(0.04248971193415638,0,0,0.04248971193415638,0,0)" xlink:href="#aa"/><use transform="matrix(0.04248971193415638,0,0,0.04248971193415638,11.004835390946502,0)" xlink:href="#ab"/><use transform="matrix(0.04248971193415638,0,0,0.04248971193415638,19.502777777777776,0)" xlink:href="#ac"/><use transform="matrix(0.04248971193415638,0,0,0.04248971193415638,27.150925925925925,0)" xlink:href="#ac"/><use transform="matrix(0.04248971193415638,0,0,0.04248971193415638,34.79907407407407,0)" xlink:href="#ad"/><use transform="matrix(0.04248971193415638,0,0,0.04248971193415638,43.29701646090535,0)" xlink:href="#ae"/><use transform="matrix(0.04248971193415638,0,0,0.04248971193415638,46.6537037037037,0)" xlink:href="#Z"/><use transform="matrix(0.04248971193415638,0,0,0.04248971193415638,55.151646090534975,0)" xlink:href="#ae"/></g><path d="M32 76v-337h29V76H32" id="af"/><use transform="matrix(0.04248971193415638,0,0,0.04248971193415638,0,0)" xlink:href="#af" id="f"/><path d="M63-220v92h138v28H63V0H30v-248h175v28H63" id="ag"/><path d="M115-194c53 0 69 39 70 98 0 66-23 100-70 100C84 3 66-7 56-30L54 0H23l1-261h32v101c10-23 28-34 59-34zm-8 174c40 0 45-34 45-75 0-40-5-75-45-74-42 0-51 32-51 76 0 43 10 73 51 73" id="ah"/><path d="M114-163C36-179 61-72 57 0H25l-1-190h30c1 12-1 29 2 39 6-27 23-49 58-41v29" id="ai"/><path d="M84 4C-5 8 30-112 23-190h32v120c0 31 7 50 39 49 72-2 45-101 50-169h31l1 190h-30c-1-10 1-25-2-33-11 22-28 36-60 37" id="aj"/><path d="M179-190L93 31C79 59 56 82 12 73V49c39 6 53-20 64-50L1-190h34L92-34l54-156h33" id="ak"/><g id="g"><use transform="matrix(0.04248971193415638,0,0,0.04248971193415638,0,0)" xlink:href="#ag"/><use transform="matrix(0.04248971193415638,0,0,0.04248971193415638,9.305246913580246,0)" xlink:href="#ad"/><use transform="matrix(0.04248971193415638,0,0,0.04248971193415638,17.80318930041152,0)" xlink:href="#ah"/><use transform="matrix(0.04248971193415638,0,0,0.04248971193415638,26.301131687242794,0)" xlink:href="#ai"/><use transform="matrix(0.04248971193415638,0,0,0.04248971193415638,31.357407407407408,0)" xlink:href="#aj"/><use transform="matrix(0.04248971193415638,0,0,0.04248971193415638,39.85534979423868,0)" xlink:href="#X"/><use transform="matrix(0.04248971193415638,0,0,0.04248971193415638,48.35329218106995,0)" xlink:href="#ai"/><use transform="matrix(0.04248971193415638,0,0,0.04248971193415638,53.40956790123455,0)" xlink:href="#ak"/></g><path d="M134-131c28 9 52 24 51 62-1 50-34 73-85 73S17-19 16-69c0-36 21-54 49-61-75-25-45-126 34-121 46 3 78 18 79 63 0 33-17 51-44 57zm-34-11c31 1 46-15 46-44 0-28-17-43-47-42-29 0-46 13-45 42 1 28 16 44 46 44zm1 122c35 0 51-18 51-52 0-30-18-46-53-46-33 0-51 17-51 47 0 34 19 51 53 51" id="al"/><path d="M68-38c1 34 0 65-14 84H32c9-13 17-26 17-46H33v-38h35" id="am"/><g id="h"><use transform="matrix(0.04248971193415638,0,0,0.04248971193415638,0,0)" xlink:href="#al"/><use transform="matrix(0.04248971193415638,0,0,0.04248971193415638,8.497942386831275,0)" xlink:href="#am"/></g><path d="M101-251c82-7 93 87 43 132L82-64C71-53 59-42 53-27h129V0H18c2-99 128-94 128-182 0-28-16-43-45-43s-46 15-49 41l-32-3c6-41 34-60 81-64" id="an"/><path d="M101-251c68 0 85 55 85 127S166 4 100 4C33 4 14-52 14-124c0-73 17-127 87-127zm-1 229c47 0 54-49 54-102s-4-102-53-102c-51 0-55 48-55 102 0 53 5 102 54 102" id="ao"/><path d="M27 0v-27h64v-190l-56 39v-29l58-41h29v221h61V0H27" id="ap"/><g id="i"><use transform="matrix(0.04248971193415638,0,0,0.04248971193415638,0,0)" xlink:href="#an"/><use transform="matrix(0.04248971193415638,0,0,0.04248971193415638,8.497942386831275,0)" xlink:href="#ao"/><use transform="matrix(0.04248971193415638,0,0,0.04248971193415638,16.99588477366255,0)" xlink:href="#an"/><use transform="matrix(0.04248971193415638,0,0,0.04248971193415638,25.493827160493822,0)" xlink:href="#ap"/></g><path fill="#333" d="M238-95c0 69-44 99-111 99C63 4 22-25 22-93v-155h51v151c-1 38 19 59 55 60 90 1 49-130 58-211h52v153" id="aq"/><path fill="#333" d="M137-138c1-29-70-34-71-4 15 46 118 7 119 86 1 83-164 76-172 9l43-7c4 19 20 25 44 25 33 8 57-30 24-41C81-84 22-81 20-136c-2-80 154-74 161-7" id="ar"/><path fill="#333" d="M185-48c-13 30-37 53-82 52C43 2 14-33 14-96s30-98 90-98c62 0 83 45 84 108H66c0 31 8 55 39 56 18 0 30-7 34-22zm-45-69c5-46-57-63-70-21-2 6-4 13-4 21h74" id="as"/><path fill="#333" d="M135-150c-39-12-60 13-60 57V0H25l-1-190h47c2 13-1 29 3 40 6-28 27-53 61-41v41" id="at"/><g id="j"><use transform="matrix(0.05,0,0,0.05,0,0)" xlink:href="#aq"/><use transform="matrix(0.05,0,0,0.05,12.950000000000001,0)" xlink:href="#ar"/><use transform="matrix(0.05,0,0,0.05,22.950000000000003,0)" xlink:href="#as"/><use transform="matrix(0.05,0,0,0.05,32.95,0)" xlink:href="#at"/></g><path fill="#333" d="M24-248c93 1 206-16 204 79-1 75-69 88-152 82V0H24v-248zm52 121c47 0 100 7 100-41 0-47-54-39-100-39v80" id="au"/><path fill="#333" d="M85 4C-2 5 27-109 22-190h50c7 57-23 150 33 157 60-5 35-97 40-157h50l1 190h-47c-2-12 1-28-3-38-12 25-28 42-61 42" id="av"/><path fill="#333" d="M135-194c52 0 70 43 70 98 0 56-19 99-73 100-30 1-46-15-58-35L72 0H24l1-261h50v104c11-23 29-37 60-37zM114-30c31 0 40-27 40-66 0-37-7-63-39-63s-41 28-41 65c0 36 8 64 40 64" id="aw"/><path fill="#333" d="M67-125c0 53 21 87 73 88 37 1 54-22 65-47l45 17C233-25 199 4 140 4 58 4 20-42 15-125 8-235 124-281 211-232c18 10 29 29 36 50l-46 12c-8-25-30-41-62-41-52 0-71 34-72 86" id="ax"/><path fill="#333" d="M110-194c64 0 96 36 96 99 0 64-35 99-97 99-61 0-95-36-95-99 0-62 34-99 96-99zm-1 164c35 0 45-28 45-65 0-40-10-65-43-65-34 0-45 26-45 65 0 36 10 65 43 65" id="ay"/><path fill="#333" d="M220-157c-53 9-28 100-34 157h-49v-107c1-27-5-49-29-50C55-147 81-57 75 0H25l-1-190h47c2 12-1 28 3 38 10-53 101-56 108 0 13-22 24-43 59-42 82 1 51 116 57 194h-49v-107c-1-25-5-48-29-50" id="az"/><path fill="#333" d="M133-34C117-15 103 5 69 4 32 3 11-16 11-54c-1-60 55-63 116-61 1-26-3-47-28-47-18 1-26 9-28 27l-52-2c7-38 36-58 82-57s74 22 75 68l1 82c-1 14 12 18 25 15v27c-30 8-71 5-69-32zm-48 3c29 0 43-24 42-57-32 0-66-3-65 30 0 17 8 27 23 27" id="aA"/><path fill="#333" d="M135-194c87-1 58 113 63 194h-50c-7-57 23-157-34-157-59 0-34 97-39 157H25l-1-190h47c2 12-1 28 3 38 12-26 28-41 61-42" id="aB"/><path fill="#333" d="M88-194c31-1 46 15 58 34l-1-101h50l1 261h-48c-2-10 0-23-3-31C134-8 116 4 84 4 32 4 16-41 15-95c0-56 19-97 73-99zm17 164c33 0 40-30 41-66 1-37-9-64-41-64s-38 30-39 65c0 43 13 65 39 65" id="aC"/><path fill="#333" d="M182-130c37 4 62 22 62 59C244 23 116-4 24 0v-248c84 5 203-23 205 63 0 31-19 50-47 55zM76-148c40-3 101 13 101-30 0-44-60-28-101-31v61zm0 110c48-3 116 14 116-37 0-48-69-32-116-35v72" id="aD"/><g id="k"><use transform="matrix(0.05,0,0,0.05,0,0)" xlink:href="#au"/><use transform="matrix(0.05,0,0,0.05,12,0)" xlink:href="#av"/><use transform="matrix(0.05,0,0,0.05,22.950000000000003,0)" xlink:href="#aw"/><use transform="matrix(0.05,0,0,0.05,33.900000000000006,0)" xlink:href="#ax"/><use transform="matrix(0.05,0,0,0.05,46.85000000000001,0)" xlink:href="#ay"/><use transform="matrix(0.05,0,0,0.05,57.80000000000001,0)" xlink:href="#az"/><use transform="matrix(0.05,0,0,0.05,73.80000000000001,0)" xlink:href="#az"/><use transform="matrix(0.05,0,0,0.05,89.80000000000001,0)" xlink:href="#aA"/><use transform="matrix(0.05,0,0,0.05,99.80000000000001,0)" xlink:href="#aB"/><use transform="matrix(0.05,0,0,0.05,110.75,0)" xlink:href="#aC"/><use transform="matrix(0.05,0,0,0.05,121.7,0)" xlink:href="#aD"/><use transform="matrix(0.05,0,0,0.05,134.65,0)" xlink:href="#av"/><use transform="matrix(0.05,0,0,0.05,145.6,0)" xlink:href="#ar"/></g><path fill="#333" d="M169-182c-1-43-94-46-97-3 18 66 151 10 154 114 3 95-165 93-204 36-6-8-10-19-12-30l50-8c3 46 112 56 116 5-17-69-150-10-154-114-4-87 153-88 188-35 5 8 8 18 10 28" id="aE"/><path fill="#333" d="M23 0v-37h61v-169l-59 37v-38l62-41h46v211h57V0H23" id="aF"/><g id="l"><use transform="matrix(0.05,0,0,0.05,0,0)" xlink:href="#aE"/><use transform="matrix(0.05,0,0,0.05,12,0)" xlink:href="#av"/><use transform="matrix(0.05,0,0,0.05,22.950000000000003,0)" xlink:href="#aw"/><use transform="matrix(0.05,0,0,0.05,33.900000000000006,0)" xlink:href="#ax"/><use transform="matrix(0.05,0,0,0.05,46.85000000000001,0)" xlink:href="#ay"/><use transform="matrix(0.05,0,0,0.05,57.80000000000001,0)" xlink:href="#az"/><use transform="matrix(0.05,0,0,0.05,73.80000000000001,0)" xlink:href="#az"/><use transform="matrix(0.05,0,0,0.05,89.80000000000001,0)" xlink:href="#aA"/><use transform="matrix(0.05,0,0,0.05,99.80000000000001,0)" xlink:href="#aB"/><use transform="matrix(0.05,0,0,0.05,110.75,0)" xlink:href="#aC"/><use transform="matrix(0.05,0,0,0.05,121.7,0)" xlink:href="#aD"/><use transform="matrix(0.05,0,0,0.05,134.65,0)" xlink:href="#av"/><use transform="matrix(0.05,0,0,0.05,145.6,0)" xlink:href="#ar"/><use transform="matrix(0.05,0,0,0.05,155.6,0)" xlink:href="#aF"/></g><path fill="#333" d="M182-182c0 78-84 86-111 141h115V0H12c-6-101 99-100 120-180 1-22-12-31-33-32-23 0-32 14-35 34l-49-3c5-45 32-70 84-70 51 0 83 22 83 69" id="aG"/><g id="m"><use transform="matrix(0.05,0,0,0.05,0,0)" xlink:href="#aE"/><use transform="matrix(0.05,0,0,0.05,12,0)" xlink:href="#av"/><use transform="matrix(0.05,0,0,0.05,22.950000000000003,0)" xlink:href="#aw"/><use transform="matrix(0.05,0,0,0.05,33.900000000000006,0)" xlink:href="#ax"/><use transform="matrix(0.05,0,0,0.05,46.85000000000001,0)" xlink:href="#ay"/><use transform="matrix(0.05,0,0,0.05,57.80000000000001,0)" xlink:href="#az"/><use transform="matrix(0.05,0,0,0.05,73.80000000000001,0)" xlink:href="#az"/><use transform="matrix(0.05,0,0,0.05,89.80000000000001,0)" xlink:href="#aA"/><use transform="matrix(0.05,0,0,0.05,99.80000000000001,0)" xlink:href="#aB"/><use transform="matrix(0.05,0,0,0.05,110.75,0)" xlink:href="#aC"/><use transform="matrix(0.05,0,0,0.05,121.7,0)" xlink:href="#aD"/><use transform="matrix(0.05,0,0,0.05,134.65,0)" xlink:href="#av"/><use transform="matrix(0.05,0,0,0.05,145.6,0)" xlink:href="#ar"/><use transform="matrix(0.05,0,0,0.05,155.6,0)" xlink:href="#aG"/></g><path fill="#333" d="M24 0v-248h195v40H76v63h132v40H76v65h150V0H24" id="aH"/><path fill="#333" d="M128 0H69L1-190h53L99-40l48-150h52" id="aI"/><path fill="#333" d="M115-3C79 11 28 4 28-45v-112H4v-33h27l15-45h31v45h36v33H77v99c-1 23 16 31 38 25v30" id="aJ"/><g id="n"><use transform="matrix(0.05,0,0,0.05,0,0)" xlink:href="#aH"/><use transform="matrix(0.05,0,0,0.05,12,0)" xlink:href="#aI"/><use transform="matrix(0.05,0,0,0.05,22,0)" xlink:href="#as"/><use transform="matrix(0.05,0,0,0.05,32,0)" xlink:href="#aB"/><use transform="matrix(0.05,0,0,0.05,42.95,0)" xlink:href="#aJ"/><use transform="matrix(0.05,0,0,0.05,48.900000000000006,0)" xlink:href="#aD"/><use transform="matrix(0.05,0,0,0.05,61.85,0)" xlink:href="#av"/><use transform="matrix(0.05,0,0,0.05,72.80000000000001,0)" xlink:href="#ar"/></g><path fill="#333" d="M24 0v-248h52V0H24" id="aK"/><path fill="#333" d="M25-224v-37h50v37H25zM25 0v-190h50V0H25" id="aL"/><path fill="#333" d="M25 0v-261h50V0H25" id="aM"/><path fill="#333" d="M12 0v-35l95-120H19v-35h142v35L67-36h103V0H12" id="aN"/><g id="o"><use transform="matrix(0.05,0,0,0.05,0,0)" xlink:href="#aK"/><use transform="matrix(0.05,0,0,0.05,5,0)" xlink:href="#aB"/><use transform="matrix(0.05,0,0,0.05,15.950000000000001,0)" xlink:href="#aL"/><use transform="matrix(0.05,0,0,0.05,20.950000000000003,0)" xlink:href="#aJ"/><use transform="matrix(0.05,0,0,0.05,26.900000000000002,0)" xlink:href="#aL"/><use transform="matrix(0.05,0,0,0.05,31.900000000000002,0)" xlink:href="#aA"/><use transform="matrix(0.05,0,0,0.05,41.900000000000006,0)" xlink:href="#aM"/><use transform="matrix(0.05,0,0,0.05,46.900000000000006,0)" xlink:href="#aL"/><use transform="matrix(0.05,0,0,0.05,51.900000000000006,0)" xlink:href="#aN"/><use transform="matrix(0.05,0,0,0.05,60.900000000000006,0)" xlink:href="#as"/></g><path fill="#333" d="M190-63c-7 42-38 67-86 67-59 0-84-38-90-98-12-110 154-137 174-36l-49 2c-2-19-15-32-35-32-30 0-35 28-38 64-6 74 65 87 74 30" id="aO"/><path fill="#333" d="M67-93c0 74 22 123 53 168H70C40 30 18-18 18-93s22-123 52-168h50c-32 44-53 94-53 168" id="aP"/><path fill="#333" d="M24-248c120-7 223 5 221 122C244-46 201 0 124 0H24v-248zM76-40c74 7 117-18 117-86 0-67-45-88-117-82v168" id="aQ"/><path fill="#333" d="M135-194c53 0 70 44 70 98 0 56-19 98-73 100-31 1-45-17-59-34 3 33 2 69 2 105H25l-1-265h48c2 10 0 23 3 31 11-24 29-35 60-35zM114-30c33 0 39-31 40-66 0-38-9-64-40-64-56 0-55 130 0 130" id="aR"/><path fill="#333" d="M114-157C55-157 80-60 75 0H25v-261h50l-1 109c12-26 28-41 61-42 86-1 58 113 63 194h-50c-7-57 23-157-34-157" id="aS"/><path fill="#333" d="M76-54c-1 42 2 86-19 110H24C36 42 46 24 48 0H25v-54h51" id="aT"/><g id="p"><use transform="matrix(0.05,0,0,0.05,0,0)" xlink:href="#ar"/><use transform="matrix(0.05,0,0,0.05,10,0)" xlink:href="#av"/><use transform="matrix(0.05,0,0,0.05,20.950000000000003,0)" xlink:href="#aw"/><use transform="matrix(0.05,0,0,0.05,31.900000000000006,0)" xlink:href="#ar"/><use transform="matrix(0.05,0,0,0.05,41.900000000000006,0)" xlink:href="#aO"/><use transform="matrix(0.05,0,0,0.05,51.900000000000006,0)" xlink:href="#at"/><use transform="matrix(0.05,0,0,0.05,58.900000000000006,0)" xlink:href="#aL"/><use transform="matrix(0.05,0,0,0.05,63.900000000000006,0)" xlink:href="#aw"/><use transform="matrix(0.05,0,0,0.05,74.85000000000001,0)" xlink:href="#as"/><use transform="matrix(0.05,0,0,0.05,84.85000000000001,0)" xlink:href="#aP"/><use transform="matrix(0.05,0,0,0.05,90.80000000000001,0)" xlink:href="#ax"/><use transform="matrix(0.05,0,0,0.05,103.75,0)" xlink:href="#ay"/><use transform="matrix(0.05,0,0,0.05,114.7,0)" xlink:href="#az"/><use transform="matrix(0.05,0,0,0.05,130.70000000000002,0)" xlink:href="#az"/><use transform="matrix(0.05,0,0,0.05,146.70000000000002,0)" xlink:href="#aA"/><use transform="matrix(0.05,0,0,0.05,156.70000000000002,0)" xlink:href="#aB"/><use transform="matrix(0.05,0,0,0.05,167.65,0)" xlink:href="#aC"/><use transform="matrix(0.05,0,0,0.05,178.6,0)" xlink:href="#aQ"/><use transform="matrix(0.05,0,0,0.05,191.54999999999998,0)" xlink:href="#aL"/><use transform="matrix(0.05,0,0,0.05,196.54999999999998,0)" xlink:href="#ar"/><use transform="matrix(0.05,0,0,0.05,206.54999999999995,0)" xlink:href="#aR"/><use transform="matrix(0.05,0,0,0.05,217.49999999999997,0)" xlink:href="#aA"/><use transform="matrix(0.05,0,0,0.05,227.49999999999997,0)" xlink:href="#aJ"/><use transform="matrix(0.05,0,0,0.05,233.44999999999996,0)" xlink:href="#aO"/><use transform="matrix(0.05,0,0,0.05,243.44999999999996,0)" xlink:href="#aS"/><use transform="matrix(0.05,0,0,0.05,254.39999999999998,0)" xlink:href="#as"/><use transform="matrix(0.05,0,0,0.05,264.4,0)" xlink:href="#aC"/><use transform="matrix(0.05,0,0,0.05,275.34999999999997,0)" xlink:href="#aT"/></g><path fill="#333" d="M199 0l-22-63H83L61 0H9l90-248h61L250 0h-51zm-33-102l-36-108c-10 38-24 72-36 108h72" id="aU"/><g id="q"><use transform="matrix(0.05,0,0,0.05,0,0)" xlink:href="#ax"/><use transform="matrix(0.05,0,0,0.05,12.950000000000001,0)" xlink:href="#ay"/><use transform="matrix(0.05,0,0,0.05,23.900000000000002,0)" xlink:href="#az"/><use transform="matrix(0.05,0,0,0.05,39.900000000000006,0)" xlink:href="#az"/><use transform="matrix(0.05,0,0,0.05,55.900000000000006,0)" xlink:href="#aA"/><use transform="matrix(0.05,0,0,0.05,65.9,0)" xlink:href="#aB"/><use transform="matrix(0.05,0,0,0.05,76.85000000000001,0)" xlink:href="#aC"/><use transform="matrix(0.05,0,0,0.05,87.80000000000001,0)" xlink:href="#aU"/><use transform="matrix(0.05,0,0,0.05,100.75000000000001,0)" xlink:href="#aO"/><use transform="matrix(0.05,0,0,0.05,110.75,0)" xlink:href="#aO"/><use transform="matrix(0.05,0,0,0.05,120.75,0)" xlink:href="#as"/><use transform="matrix(0.05,0,0,0.05,130.75,0)" xlink:href="#aR"/><use transform="matrix(0.05,0,0,0.05,141.7,0)" xlink:href="#aJ"/><use transform="matrix(0.05,0,0,0.05,147.64999999999998,0)" xlink:href="#as"/><use transform="matrix(0.05,0,0,0.05,157.64999999999998,0)" xlink:href="#aC"/><use transform="matrix(0.05,0,0,0.05,168.59999999999997,0)" xlink:href="#aT"/></g><path fill="#333" d="M195-6C206 82 75 100 31 46c-4-6-6-13-8-21l49-6c3 16 16 24 34 25 40 0 42-37 40-79-11 22-30 35-61 35-53 0-70-43-70-97 0-56 18-96 73-97 30 0 46 14 59 34l2-30h47zm-90-29c32 0 41-27 41-63 0-35-9-62-40-62-32 0-39 29-40 63 0 36 9 62 39 62" id="aV"/><path fill="#333" d="M102-93c0 74-22 123-52 168H0C30 29 54-18 53-93c0-74-22-123-53-168h50c30 45 52 94 52 168" id="aW"/><g id="r"><use transform="matrix(0.05,0,0,0.05,0,0)" xlink:href="#ax"/><use transform="matrix(0.05,0,0,0.05,12.950000000000001,0)" xlink:href="#ay"/><use transform="matrix(0.05,0,0,0.05,23.900000000000002,0)" xlink:href="#az"/><use transform="matrix(0.05,0,0,0.05,39.900000000000006,0)" xlink:href="#az"/><use transform="matrix(0.05,0,0,0.05,55.900000000000006,0)" xlink:href="#aA"/><use transform="matrix(0.05,0,0,0.05,65.9,0)" xlink:href="#aB"/><use transform="matrix(0.05,0,0,0.05,76.85000000000001,0)" xlink:href="#aC"/><use transform="matrix(0.05,0,0,0.05,87.80000000000001,0)" xlink:href="#aU"/><use transform="matrix(0.05,0,0,0.05,100.75000000000001,0)" xlink:href="#ar"/><use transform="matrix(0.05,0,0,0.05,110.75,0)" xlink:href="#ar"/><use transform="matrix(0.05,0,0,0.05,120.75,0)" xlink:href="#aL"/><use transform="matrix(0.05,0,0,0.05,125.75,0)" xlink:href="#aV"/><use transform="matrix(0.05,0,0,0.05,136.70000000000002,0)" xlink:href="#aB"/><use transform="matrix(0.05,0,0,0.05,147.65,0)" xlink:href="#as"/><use transform="matrix(0.05,0,0,0.05,157.65,0)" xlink:href="#aC"/><use transform="matrix(0.05,0,0,0.05,168.6,0)" xlink:href="#aW"/></g><g id="s"><use transform="matrix(0.05,0,0,0.05,0,0)" xlink:href="#au"/><use transform="matrix(0.05,0,0,0.05,12,0)" xlink:href="#aA"/><use transform="matrix(0.05,0,0,0.05,22,0)" xlink:href="#at"/></g><path fill="#333" d="M24 0v-54h51V0H24" id="aX"/><g id="t"><use transform="matrix(0.05,0,0,0.05,0,0)" xlink:href="#aX"/><use transform="matrix(0.05,0,0,0.05,5,0)" xlink:href="#aX"/><use transform="matrix(0.05,0,0,0.05,10,0)" xlink:href="#aX"/><use transform="matrix(0.05,0,0,0.05,15,0)" xlink:href="#aW"/></g><g id="u"><use transform="matrix(0.05,0,0,0.05,0,0)" xlink:href="#aC"/><use transform="matrix(0.05,0,0,0.05,10.950000000000001,0)" xlink:href="#aL"/><use transform="matrix(0.05,0,0,0.05,15.950000000000001,0)" xlink:href="#ar"/><use transform="matrix(0.05,0,0,0.05,25.950000000000003,0)" xlink:href="#aR"/><use transform="matrix(0.05,0,0,0.05,36.900000000000006,0)" xlink:href="#aA"/><use transform="matrix(0.05,0,0,0.05,46.900000000000006,0)" xlink:href="#aJ"/><use transform="matrix(0.05,0,0,0.05,52.85,0)" xlink:href="#aO"/><use transform="matrix(0.05,0,0,0.05,62.85,0)" xlink:href="#aS"/><use transform="matrix(0.05,0,0,0.05,73.80000000000001,0)" xlink:href="#aP"/><use transform="matrix(0.05,0,0,0.05,79.75000000000001,0)" xlink:href="#ax"/><use transform="matrix(0.05,0,0,0.05,92.70000000000002,0)" xlink:href="#ay"/><use transform="matrix(0.05,0,0,0.05,103.65000000000003,0)" xlink:href="#az"/><use transform="matrix(0.05,0,0,0.05,119.65000000000003,0)" xlink:href="#az"/><use transform="matrix(0.05,0,0,0.05,135.65000000000003,0)" xlink:href="#aA"/><use transform="matrix(0.05,0,0,0.05,145.65000000000003,0)" xlink:href="#aB"/><use transform="matrix(0.05,0,0,0.05,156.60000000000002,0)" xlink:href="#aC"/><use transform="matrix(0.05,0,0,0.05,167.55,0)" xlink:href="#aW"/></g><g id="v"><use transform="matrix(0.05,0,0,0.05,0,0)" xlink:href="#aQ"/><use transform="matrix(0.05,0,0,0.05,12.950000000000001,0)" xlink:href="#aL"/><use transform="matrix(0.05,0,0,0.05,17.950000000000003,0)" xlink:href="#ar"/><use transform="matrix(0.05,0,0,0.05,27.950000000000003,0)" xlink:href="#aR"/><use transform="matrix(0.05,0,0,0.05,38.900000000000006,0)" xlink:href="#aA"/><use transform="matrix(0.05,0,0,0.05,48.900000000000006,0)" xlink:href="#aJ"/><use transform="matrix(0.05,0,0,0.05,54.85,0)" xlink:href="#aO"/><use transform="matrix(0.05,0,0,0.05,64.85000000000001,0)" xlink:href="#aS"/></g><use transform="matrix(0.05,0,0,0.05,0,0)" xlink:href="#aA" id="w"/><g id="x"><use transform="matrix(0.05,0,0,0.05,0,0)" xlink:href="#ax"/><use transform="matrix(0.05,0,0,0.05,12.950000000000001,0)" xlink:href="#ay"/><use transform="matrix(0.05,0,0,0.05,23.900000000000002,0)" xlink:href="#az"/><use transform="matrix(0.05,0,0,0.05,39.900000000000006,0)" xlink:href="#az"/><use transform="matrix(0.05,0,0,0.05,55.900000000000006,0)" xlink:href="#aA"/><use transform="matrix(0.05,0,0,0.05,65.9,0)" xlink:href="#aB"/><use transform="matrix(0.05,0,0,0.05,76.85000000000001,0)" xlink:href="#aC"/></g><g id="y"><use transform="matrix(0.05,0,0,0.05,0,0)" xlink:href="#aR"/><use transform="matrix(0.05,0,0,0.05,10.950000000000001,0)" xlink:href="#av"/><use transform="matrix(0.05,0,0,0.05,21.900000000000002,0)" xlink:href="#aw"/><use transform="matrix(0.05,0,0,0.05,32.85,0)" xlink:href="#aM"/><use transform="matrix(0.05,0,0,0.05,37.85,0)" xlink:href="#aL"/><use transform="matrix(0.05,0,0,0.05,42.85,0)" xlink:href="#ar"/><use transform="matrix(0.05,0,0,0.05,52.85,0)" xlink:href="#aS"/><use transform="matrix(0.05,0,0,0.05,63.800000000000004,0)" xlink:href="#aP"/><use transform="matrix(0.05,0,0,0.05,69.75,0)" xlink:href="#ax"/><use transform="matrix(0.05,0,0,0.05,82.7,0)" xlink:href="#ay"/><use transform="matrix(0.05,0,0,0.05,93.65,0)" xlink:href="#az"/><use transform="matrix(0.05,0,0,0.05,109.65,0)" xlink:href="#az"/><use transform="matrix(0.05,0,0,0.05,125.65,0)" xlink:href="#aA"/><use transform="matrix(0.05,0,0,0.05,135.65,0)" xlink:href="#aB"/><use transform="matrix(0.05,0,0,0.05,146.6,0)" xlink:href="#aC"/><use transform="matrix(0.05,0,0,0.05,157.54999999999998,0)" xlink:href="#aQ"/><use transform="matrix(0.05,0,0,0.05,170.49999999999997,0)" xlink:href="#aL"/><use transform="matrix(0.05,0,0,0.05,175.49999999999997,0)" xlink:href="#ar"/><use transform="matrix(0.05,0,0,0.05,185.49999999999997,0)" xlink:href="#aR"/><use transform="matrix(0.05,0,0,0.05,196.44999999999996,0)" xlink:href="#aA"/><use transform="matrix(0.05,0,0,0.05,206.44999999999996,0)" xlink:href="#aJ"/><use transform="matrix(0.05,0,0,0.05,212.39999999999998,0)" xlink:href="#aO"/><use transform="matrix(0.05,0,0,0.05,222.39999999999998,0)" xlink:href="#aS"/><use transform="matrix(0.05,0,0,0.05,233.3499999999999,0)" xlink:href="#as"/><use transform="matrix(0.05,0,0,0.05,243.3499999999999,0)" xlink:href="#aC"/><use transform="matrix(0.05,0,0,0.05,254.29999999999993,0)" xlink:href="#aW"/></g><g id="z"><use transform="matrix(0.05,0,0,0.05,0,0)" xlink:href="#ar"/><use transform="matrix(0.05,0,0,0.05,10,0)" xlink:href="#as"/><use transform="matrix(0.05,0,0,0.05,20,0)" xlink:href="#aB"/><use transform="matrix(0.05,0,0,0.05,30.950000000000003,0)" xlink:href="#aC"/><use transform="matrix(0.05,0,0,0.05,41.900000000000006,0)" xlink:href="#aP"/><use transform="matrix(0.05,0,0,0.05,47.85000000000001,0)" xlink:href="#ax"/><use transform="matrix(0.05,0,0,0.05,60.80000000000001,0)" xlink:href="#ay"/><use transform="matrix(0.05,0,0,0.05,71.75000000000001,0)" xlink:href="#az"/><use transform="matrix(0.05,0,0,0.05,87.75000000000001,0)" xlink:href="#az"/><use transform="matrix(0.05,0,0,0.05,103.75,0)" xlink:href="#aA"/><use transform="matrix(0.05,0,0,0.05,113.75,0)" xlink:href="#aB"/><use transform="matrix(0.05,0,0,0.05,124.7,0)" xlink:href="#aC"/><use transform="matrix(0.05,0,0,0.05,135.65,0)" xlink:href="#aQ"/><use transform="matrix(0.05,0,0,0.05,148.6,0)" xlink:href="#aL"/><use transform="matrix(0.05,0,0,0.05,153.6,0)" xlink:href="#ar"/><use transform="matrix(0.05,0,0,0.05,163.6,0)" xlink:href="#aR"/><use transform="matrix(0.05,0,0,0.05,174.54999999999998,0)" xlink:href="#aA"/><use transform="matrix(0.05,0,0,0.05,184.54999999999998,0)" xlink:href="#aJ"/><use transform="matrix(0.05,0,0,0.05,190.49999999999997,0)" xlink:href="#aO"/><use transform="matrix(0.05,0,0,0.05,200.49999999999997,0)" xlink:href="#aS"/><use transform="matrix(0.05,0,0,0.05,211.44999999999996,0)" xlink:href="#as"/><use transform="matrix(0.05,0,0,0.05,221.44999999999996,0)" xlink:href="#aC"/><use transform="matrix(0.05,0,0,0.05,232.39999999999998,0)" xlink:href="#aW"/></g><g id="A"><use transform="matrix(0.05,0,0,0.05,0,0)" xlink:href="#aR"/><use transform="matrix(0.05,0,0,0.05,10.950000000000001,0)" xlink:href="#av"/><use transform="matrix(0.05,0,0,0.05,21.900000000000002,0)" xlink:href="#aw"/><use transform="matrix(0.05,0,0,0.05,32.85,0)" xlink:href="#aM"/><use transform="matrix(0.05,0,0,0.05,37.85,0)" xlink:href="#aL"/><use transform="matrix(0.05,0,0,0.05,42.85,0)" xlink:href="#ar"/><use transform="matrix(0.05,0,0,0.05,52.85,0)" xlink:href="#aS"/><use transform="matrix(0.05,0,0,0.05,63.800000000000004,0)" xlink:href="#aP"/><use transform="matrix(0.05,0,0,0.05,69.75,0)" xlink:href="#ax"/><use transform="matrix(0.05,0,0,0.05,82.7,0)" xlink:href="#ay"/><use transform="matrix(0.05,0,0,0.05,93.65,0)" xlink:href="#az"/><use transform="matrix(0.05,0,0,0.05,109.65,0)" xlink:href="#az"/><use transform="matrix(0.05,0,0,0.05,125.65,0)" xlink:href="#aA"/><use transform="matrix(0.05,0,0,0.05,135.65,0)" xlink:href="#aB"/><use transform="matrix(0.05,0,0,0.05,146.6,0)" xlink:href="#aC"/><use transform="matrix(0.05,0,0,0.05,157.54999999999998,0)" xlink:href="#aU"/><use transform="matrix(0.05,0,0,0.05,170.49999999999997,0)" xlink:href="#aO"/><use transform="matrix(0.05,0,0,0.05,180.49999999999997,0)" xlink:href="#aO"/><use transform="matrix(0.05,0,0,0.05,190.49999999999997,0)" xlink:href="#as"/><use transform="matrix(0.05,0,0,0.05,200.49999999999997,0)" xlink:href="#aR"/><use transform="matrix(0.05,0,0,0.05,211.44999999999996,0)" xlink:href="#aJ"/><use transform="matrix(0.05,0,0,0.05,217.39999999999998,0)" xlink:href="#as"/><use transform="matrix(0.05,0,0,0.05,227.39999999999998,0)" xlink:href="#aC"/><use transform="matrix(0.05,0,0,0.05,238.3499999999999,0)" xlink:href="#aW"/></g><g id="B"><use transform="matrix(0.05,0,0,0.05,0,0)" xlink:href="#ar"/><use transform="matrix(0.05,0,0,0.05,10,0)" xlink:href="#as"/><use transform="matrix(0.05,0,0,0.05,20,0)" xlink:href="#aB"/><use transform="matrix(0.05,0,0,0.05,30.950000000000003,0)" xlink:href="#aC"/><use transform="matrix(0.05,0,0,0.05,41.900000000000006,0)" xlink:href="#aP"/><use transform="matrix(0.05,0,0,0.05,47.85000000000001,0)" xlink:href="#ax"/><use transform="matrix(0.05,0,0,0.05,60.80000000000001,0)" xlink:href="#ay"/><use transform="matrix(0.05,0,0,0.05,71.75000000000001,0)" xlink:href="#az"/><use transform="matrix(0.05,0,0,0.05,87.75000000000001,0)" xlink:href="#az"/><use transform="matrix(0.05,0,0,0.05,103.75,0)" xlink:href="#aA"/><use transform="matrix(0.05,0,0,0.05,113.75,0)" xlink:href="#aB"/><use transform="matrix(0.05,0,0,0.05,124.7,0)" xlink:href="#aC"/><use transform="matrix(0.05,0,0,0.05,135.65,0)" xlink:href="#aU"/><use transform="matrix(0.05,0,0,0.05,148.6,0)" xlink:href="#aO"/><use transform="matrix(0.05,0,0,0.05,158.6,0)" xlink:href="#aO"/><use transform="matrix(0.05,0,0,0.05,168.6,0)" xlink:href="#as"/><use transform="matrix(0.05,0,0,0.05,178.6,0)" xlink:href="#aR"/><use transform="matrix(0.05,0,0,0.05,189.54999999999998,0)" xlink:href="#aJ"/><use transform="matrix(0.05,0,0,0.05,195.49999999999997,0)" xlink:href="#as"/><use transform="matrix(0.05,0,0,0.05,205.49999999999997,0)" xlink:href="#aC"/><use transform="matrix(0.05,0,0,0.05,216.44999999999996,0)" xlink:href="#aP"/><use transform="matrix(0.05,0,0,0.05,222.39999999999998,0)" xlink:href="#aE"/><use transform="matrix(0.05,0,0,0.05,234.39999999999998,0)" xlink:href="#av"/><use transform="matrix(0.05,0,0,0.05,245.3499999999999,0)" xlink:href="#aw"/><use transform="matrix(0.05,0,0,0.05,256.29999999999995,0)" xlink:href="#ax"/><use transform="matrix(0.05,0,0,0.05,269.24999999999994,0)" xlink:href="#ay"/><use transform="matrix(0.05,0,0,0.05,280.19999999999993,0)" xlink:href="#az"/><use transform="matrix(0.05,0,0,0.05,296.19999999999993,0)" xlink:href="#az"/><use transform="matrix(0.05,0,0,0.05,312.19999999999993,0)" xlink:href="#aA"/><use transform="matrix(0.05,0,0,0.05,322.19999999999993,0)" xlink:href="#aB"/><use transform="matrix(0.05,0,0,0.05,333.1499999999999,0)" xlink:href="#aC"/><use transform="matrix(0.05,0,0,0.05,344.0999999999999,0)" xlink:href="#aD"/><use transform="matrix(0.05,0,0,0.05,357.0499999999999,0)" xlink:href="#av"/><use transform="matrix(0.05,0,0,0.05,367.9999999999999,0)" xlink:href="#ar"/><use transform="matrix(0.05,0,0,0.05,377.9999999999999,0)" xlink:href="#aG"/><use transform="matrix(0.05,0,0,0.05,387.9999999999999,0)" xlink:href="#aW"/><use transform="matrix(0.05,0,0,0.05,393.9499999999999,0)" xlink:href="#aW"/></g><g id="C"><use transform="matrix(0.05,0,0,0.05,0,0)" xlink:href="#aR"/><use transform="matrix(0.05,0,0,0.05,10.950000000000001,0)" xlink:href="#av"/><use transform="matrix(0.05,0,0,0.05,21.900000000000002,0)" xlink:href="#aw"/><use transform="matrix(0.05,0,0,0.05,32.85,0)" xlink:href="#aM"/><use transform="matrix(0.05,0,0,0.05,37.85,0)" xlink:href="#aL"/><use transform="matrix(0.05,0,0,0.05,42.85,0)" xlink:href="#ar"/><use transform="matrix(0.05,0,0,0.05,52.85,0)" xlink:href="#aS"/><use transform="matrix(0.05,0,0,0.05,63.800000000000004,0)" xlink:href="#aP"/><use transform="matrix(0.05,0,0,0.05,69.75,0)" xlink:href="#ax"/><use transform="matrix(0.05,0,0,0.05,82.7,0)" xlink:href="#ay"/><use transform="matrix(0.05,0,0,0.05,93.65,0)" xlink:href="#az"/><use transform="matrix(0.05,0,0,0.05,109.65,0)" xlink:href="#az"/><use transform="matrix(0.05,0,0,0.05,125.65,0)" xlink:href="#aA"/><use transform="matrix(0.05,0,0,0.05,135.65,0)" xlink:href="#aB"/><use transform="matrix(0.05,0,0,0.05,146.6,0)" xlink:href="#aC"/><use transform="matrix(0.05,0,0,0.05,157.54999999999998,0)" xlink:href="#aU"/><use transform="matrix(0.05,0,0,0.05,170.49999999999997,0)" xlink:href="#ar"/><use transform="matrix(0.05,0,0,0.05,180.49999999999997,0)" xlink:href="#ar"/><use transform="matrix(0.05,0,0,0.05,190.49999999999997,0)" xlink:href="#aL"/><use transform="matrix(0.05,0,0,0.05,195.49999999999997,0)" xlink:href="#aV"/><use transform="matrix(0.05,0,0,0.05,206.44999999999996,0)" xlink:href="#aB"/><use transform="matrix(0.05,0,0,0.05,217.39999999999998,0)" xlink:href="#as"/><use transform="matrix(0.05,0,0,0.05,227.39999999999998,0)" xlink:href="#aC"/><use transform="matrix(0.05,0,0,0.05,238.3499999999999,0)" xlink:href="#aP"/><use transform="matrix(0.05,0,0,0.05,244.29999999999993,0)" xlink:href="#aE"/><use transform="matrix(0.05,0,0,0.05,256.29999999999995,0)" xlink:href="#av"/><use transform="matrix(0.05,0,0,0.05,267.24999999999994,0)" xlink:href="#aw"/><use transform="matrix(0.05,0,0,0.05,278.19999999999993,0)" xlink:href="#ax"/><use transform="matrix(0.05,0,0,0.05,291.1499999999999,0)" xlink:href="#ay"/><use transform="matrix(0.05,0,0,0.05,302.0999999999999,0)" xlink:href="#az"/><use transform="matrix(0.05,0,0,0.05,318.0999999999999,0)" xlink:href="#az"/><use transform="matrix(0.05,0,0,0.05,334.0999999999999,0)" xlink:href="#aA"/><use transform="matrix(0.05,0,0,0.05,344.0999999999999,0)" xlink:href="#aB"/><use transform="matrix(0.05,0,0,0.05,355.0499999999999,0)" xlink:href="#aC"/><use transform="matrix(0.05,0,0,0.05,365.9999999999999,0)" xlink:href="#aD"/><use transform="matrix(0.05,0,0,0.05,378.9499999999999,0)" xlink:href="#av"/><use transform="matrix(0.05,0,0,0.05,389.89999999999986,0)" xlink:href="#ar"/><use transform="matrix(0.05,0,0,0.05,399.89999999999986,0)" xlink:href="#aG"/><use transform="matrix(0.05,0,0,0.05,409.89999999999986,0)" xlink:href="#aW"/><use transform="matrix(0.05,0,0,0.05,415.84999999999985,0)" xlink:href="#aW"/></g><g id="D"><use transform="matrix(0.05,0,0,0.05,0,0)" xlink:href="#ar"/><use transform="matrix(0.05,0,0,0.05,10,0)" xlink:href="#as"/><use transform="matrix(0.05,0,0,0.05,20,0)" xlink:href="#aB"/><use transform="matrix(0.05,0,0,0.05,30.950000000000003,0)" xlink:href="#aC"/><use transform="matrix(0.05,0,0,0.05,41.900000000000006,0)" xlink:href="#aP"/><use transform="matrix(0.05,0,0,0.05,47.85000000000001,0)" xlink:href="#ax"/><use transform="matrix(0.05,0,0,0.05,60.80000000000001,0)" xlink:href="#ay"/><use transform="matrix(0.05,0,0,0.05,71.75000000000001,0)" xlink:href="#az"/><use transform="matrix(0.05,0,0,0.05,87.75000000000001,0)" xlink:href="#az"/><use transform="matrix(0.05,0,0,0.05,103.75,0)" xlink:href="#aA"/><use transform="matrix(0.05,0,0,0.05,113.75,0)" xlink:href="#aB"/><use transform="matrix(0.05,0,0,0.05,124.7,0)" xlink:href="#aC"/><use transform="matrix(0.05,0,0,0.05,135.65,0)" xlink:href="#aU"/><use transform="matrix(0.05,0,0,0.05,148.6,0)" xlink:href="#aO"/><use transform="matrix(0.05,0,0,0.05,158.6,0)" xlink:href="#aO"/><use transform="matrix(0.05,0,0,0.05,168.6,0)" xlink:href="#as"/><use transform="matrix(0.05,0,0,0.05,178.6,0)" xlink:href="#aR"/><use transform="matrix(0.05,0,0,0.05,189.54999999999998,0)" xlink:href="#aJ"/><use transform="matrix(0.05,0,0,0.05,195.49999999999997,0)" xlink:href="#as"/><use transform="matrix(0.05,0,0,0.05,205.49999999999997,0)" xlink:href="#aC"/><use transform="matrix(0.05,0,0,0.05,216.44999999999996,0)" xlink:href="#aP"/><use transform="matrix(0.05,0,0,0.05,222.39999999999998,0)" xlink:href="#aE"/><use transform="matrix(0.05,0,0,0.05,234.39999999999998,0)" xlink:href="#av"/><use transform="matrix(0.05,0,0,0.05,245.3499999999999,0)" xlink:href="#aw"/><use transform="matrix(0.05,0,0,0.05,256.29999999999995,0)" xlink:href="#ax"/><use transform="matrix(0.05,0,0,0.05,269.24999999999994,0)" xlink:href="#ay"/><use transform="matrix(0.05,0,0,0.05,280.19999999999993,0)" xlink:href="#az"/><use transform="matrix(0.05,0,0,0.05,296.19999999999993,0)" xlink:href="#az"/><use transform="matrix(0.05,0,0,0.05,312.19999999999993,0)" xlink:href="#aA"/><use transform="matrix(0.05,0,0,0.05,322.19999999999993,0)" xlink:href="#aB"/><use transform="matrix(0.05,0,0,0.05,333.1499999999999,0)" xlink:href="#aC"/><use transform="matrix(0.05,0,0,0.05,344.0999999999999,0)" xlink:href="#aD"/><use transform="matrix(0.05,0,0,0.05,357.0499999999999,0)" xlink:href="#av"/><use transform="matrix(0.05,0,0,0.05,367.9999999999999,0)" xlink:href="#ar"/><use transform="matrix(0.05,0,0,0.05,377.9999999999999,0)" xlink:href="#aF"/><use transform="matrix(0.05,0,0,0.05,387.9999999999999,0)" xlink:href="#aW"/><use transform="matrix(0.05,0,0,0.05,393.9499999999999,0)" xlink:href="#aW"/></g><g id="E"><use transform="matrix(0.05,0,0,0.05,0,0)" xlink:href="#aS"/><use transform="matrix(0.05,0,0,0.05,10.950000000000001,0)" xlink:href="#aA"/><use transform="matrix(0.05,0,0,0.05,20.950000000000003,0)" xlink:href="#aB"/><use transform="matrix(0.05,0,0,0.05,31.900000000000006,0)" xlink:href="#aC"/><use transform="matrix(0.05,0,0,0.05,42.85000000000001,0)" xlink:href="#aM"/><use transform="matrix(0.05,0,0,0.05,47.85000000000001,0)" xlink:href="#as"/><use transform="matrix(0.05,0,0,0.05,57.85,0)" xlink:href="#aP"/><use transform="matrix(0.05,0,0,0.05,63.80000000000001,0)" xlink:href="#ax"/><use transform="matrix(0.05,0,0,0.05,76.75000000000001,0)" xlink:href="#ay"/><use transform="matrix(0.05,0,0,0.05,87.70000000000002,0)" xlink:href="#az"/><use transform="matrix(0.05,0,0,0.05,103.7,0)" xlink:href="#az"/><use transform="matrix(0.05,0,0,0.05,119.7,0)" xlink:href="#aA"/><use transform="matrix(0.05,0,0,0.05,129.70000000000002,0)" xlink:href="#aB"/><use transform="matrix(0.05,0,0,0.05,140.65,0)" xlink:href="#aC"/><use transform="matrix(0.05,0,0,0.05,151.6,0)" xlink:href="#aW"/></g><g id="F"><use transform="matrix(0.05,0,0,0.05,0,0)" xlink:href="#ar"/><use transform="matrix(0.05,0,0,0.05,10,0)" xlink:href="#as"/><use transform="matrix(0.05,0,0,0.05,20,0)" xlink:href="#aB"/><use transform="matrix(0.05,0,0,0.05,30.950000000000003,0)" xlink:href="#aC"/><use transform="matrix(0.05,0,0,0.05,41.900000000000006,0)" xlink:href="#aP"/><use transform="matrix(0.05,0,0,0.05,47.85000000000001,0)" xlink:href="#ax"/><use transform="matrix(0.05,0,0,0.05,60.80000000000001,0)" xlink:href="#ay"/><use transform="matrix(0.05,0,0,0.05,71.75000000000001,0)" xlink:href="#az"/><use transform="matrix(0.05,0,0,0.05,87.75000000000001,0)" xlink:href="#az"/><use transform="matrix(0.05,0,0,0.05,103.75,0)" xlink:href="#aA"/><use transform="matrix(0.05,0,0,0.05,113.75,0)" xlink:href="#aB"/><use transform="matrix(0.05,0,0,0.05,124.7,0)" xlink:href="#aC"/><use transform="matrix(0.05,0,0,0.05,135.65,0)" xlink:href="#aU"/><use transform="matrix(0.05,0,0,0.05,148.6,0)" xlink:href="#ar"/><use transform="matrix(0.05,0,0,0.05,158.6,0)" xlink:href="#ar"/><use transform="matrix(0.05,0,0,0.05,168.6,0)" xlink:href="#aL"/><use transform="matrix(0.05,0,0,0.05,173.6,0)" xlink:href="#aV"/><use transform="matrix(0.05,0,0,0.05,184.54999999999998,0)" xlink:href="#aB"/><use transform="matrix(0.05,0,0,0.05,195.49999999999997,0)" xlink:href="#as"/><use transform="matrix(0.05,0,0,0.05,205.49999999999997,0)" xlink:href="#aC"/><use transform="matrix(0.05,0,0,0.05,216.44999999999996,0)" xlink:href="#aP"/><use transform="matrix(0.05,0,0,0.05,222.39999999999998,0)" xlink:href="#aE"/><use transform="matrix(0.05,0,0,0.05,234.39999999999998,0)" xlink:href="#av"/><use transform="matrix(0.05,0,0,0.05,245.3499999999999,0)" xlink:href="#aw"/><use transform="matrix(0.05,0,0,0.05,256.29999999999995,0)" xlink:href="#ax"/><use transform="matrix(0.05,0,0,0.05,269.24999999999994,0)" xlink:href="#ay"/><use transform="matrix(0.05,0,0,0.05,280.19999999999993,0)" xlink:href="#az"/><use transform="matrix(0.05,0,0,0.05,296.19999999999993,0)" xlink:href="#az"/><use transform="matrix(0.05,0,0,0.05,312.19999999999993,0)" xlink:href="#aA"/><use transform="matrix(0.05,0,0,0.05,322.19999999999993,0)" xlink:href="#aB"/><use transform="matrix(0.05,0,0,0.05,333.1499999999999,0)" xlink:href="#aC"/><use transform="matrix(0.05,0,0,0.05,344.0999999999999,0)" xlink:href="#aD"/><use transform="matrix(0.05,0,0,0.05,357.0499999999999,0)" xlink:href="#av"/><use transform="matrix(0.05,0,0,0.05,367.9999999999999,0)" xlink:href="#ar"/><use transform="matrix(0.05,0,0,0.05,377.9999999999999,0)" xlink:href="#aG"/><use transform="matrix(0.05,0,0,0.05,387.9999999999999,0)" xlink:href="#aW"/><use transform="matrix(0.05,0,0,0.05,393.9499999999999,0)" xlink:href="#aW"/></g></defs></g></svg>