<svg xmlns="http://www.w3.org/2000/svg" xmlns:xlink="http://www.w3.org/1999/xlink" xmlns:lucid="lucid" width="2430.4" height="2520"><g transform="translate(-4420 -100)" lucid:page-tab-id="_dtb~LPTKJAE"><path d="M4440 128c0-4.42 3.58-8 8-8h104c4.42 0 8 3.58 8 8v84c0 4.42-3.58 8-8 8h-104c-4.42 0-8-3.58-8-8z" stroke="#000" stroke-width="2" fill="#99d5ca"/><use xlink:href="#a" transform="matrix(1,0,0,1,4440,120) translate(40.029999999999994 55.025)"/><path d="M4440 2508c0-4.42 3.58-8 8-8h104c4.42 0 8 3.58 8 8v84c0 4.42-3.58 8-8 8h-104c-4.42 0-8-3.58-8-8z" stroke="#000" stroke-width="2" fill="#99d5ca"/><use xlink:href="#a" transform="matrix(1,0,0,1,4440,2500) translate(40.029999999999994 55.025)"/><path d="M4500 221.5v5m0 5v9.97m0 5v9.98m0 5v9.98m0 5v9.98m0 5v10m0 5v9.98m0 5v9.98m0 5v9.98m0 5v9.98m0 5v9.98m0 5v9.98m0 5v9.98m0 5v9.98m0 5v9.98m0 5v9.98m0 5v9.98m0 5v9.98m0 5v9.98m0 5v9.98m0 5v9.98m0 5v9.98m0 5v9.98m0 5v9.98m0 5V586m0 5V601m0 5v9.98m0 5v9.98m0 5v9.98m0 5v9.98m0 5v9.98m0 5v9.98m0 5v9.98m0 5v9.98m0 5v9.98m0 5v9.98m0 5v9.98m0 5v9.98m0 5v9.98m0 5v9.98m0 5v9.98m0 5v9.98m0 5v9.98m0 5v9.98m0 5v10m0 4.98v10m0 4.98v10m0 4.98v10m0 4.98v10m0 4.98v10m0 4.98v10m0 4.98v10m0 4.98v10m0 4.98v10m0 4.98v10m0 4.98v10m0 4.98v10m0 4.98v10m0 4.98v10m0 4.98v10m0 4.98v10m0 4.98v10m0 4.98v10m0 4.98v10m0 4.98v10m0 4.98v10m0 4.98v10m0 4.98v10m0 4.98v10m0 4.98v10m0 5v9.97m0 5v10m0 5v9.97m0 5v9.98m0 5v9.98m0 5v9.98m0 5v10m0 5v9.97m0 5v9.98m0 5v9.98m0 5v9.98m0 5v10m0 5v9.98m0 5v9.98m0 5v9.98m0 5v9.98m0 5v9.98m0 5v9.98m0 5v9.98m0 5v9.98m0 5v9.98m0 5v9.98m0 5v9.98m0 5v9.98m0 5v9.98m0 5v9.98m0 5v9.98m0 5v9.98m0 5v9.98m0 5v9.98m0 5v9.98m0 5v9.98m0 5v9.98m0 5v9.98m0 5v9.98m0 5v9.98m0 5v9.98m0 5v9.98m0 5v9.98m0 5v9.98m0 5v9.98m0 5v9.98m0 5v9.98m0 5v9.98m0 5v9.98m0 5v9.98m0 5v9.98m0 5v9.98m0 5v9.98m0 5v9.98m0 5v10m0 4.98v10m0 4.98v10m0 4.98v10m0 4.98v10m0 4.98v10m0 4.98v10m0 4.98v10m0 4.98v10m0 4.98v10m0 4.98v10m0 4.98v10m0 4.98v10m0 4.98v10m0 4.98v10m0 4.98v10m0 4.98v10m0 4.98v10m0 4.98v10m0 4.98v10m0 4.98v10m0 4.98v10m0 4.98v10m0 4.98v10m0 4.98v10m0 4.98v10m0 5v9.97m0 5v10m0 5v9.97m0 5v9.98m0 5v9.98m0 5v9.98m0 5v5" stroke="#333" fill="none"/><path d="M4500.5 221.5h-1v-.5h1zM4500.5 2499h-1v-.5h1z" fill="#333"/><path d="M4680 128c0-4.42 3.58-8 8-8h164c4.42 0 8 3.58 8 8v84c0 4.42-3.58 8-8 8h-164c-4.42 0-8-3.58-8-8z" stroke="#000" stroke-width="2" fill="#99d5ca"/><use xlink:href="#b" transform="matrix(1,0,0,1,4680,120) translate(12.205000000000007 55.025)"/><path d="M4680 2508c0-4.42 3.58-8 8-8h164c4.42 0 8 3.58 8 8v84c0 4.42-3.58 8-8 8h-164c-4.42 0-8-3.58-8-8z" stroke="#000" stroke-width="2" fill="#99d5ca"/><use xlink:href="#b" transform="matrix(1,0,0,1,4680,2500) translate(12.205000000000007 55.025)"/><path d="M4770 221.5v5m0 5v9.97m0 5v9.98m0 5v9.98m0 5v9.98m0 5v10m0 5v9.98m0 5v9.98m0 5v9.98m0 5v9.98m0 5v9.98m0 5v9.98m0 5v9.98m0 5v9.98m0 5v9.98m0 5v9.98m0 5v9.98m0 5v9.98m0 5v9.98m0 5v9.98m0 5v9.98m0 5v9.98m0 5v9.98m0 5v9.98m0 5V586m0 5V601m0 5v9.98m0 5v9.98m0 5v9.98m0 5v9.98m0 5v9.98m0 5v9.98m0 5v9.98m0 5v9.98m0 5v9.98m0 5v9.98m0 5v9.98m0 5v9.98m0 5v9.98m0 5v9.98m0 5v9.98m0 5v9.98m0 5v9.98m0 5v9.98m0 5v10m0 4.98v10m0 4.98v10m0 4.98v10m0 4.98v10m0 4.98v10m0 4.98v10m0 4.98v10m0 4.98v10m0 4.98v10m0 4.98v10m0 4.98v10m0 4.98v10m0 4.98v10m0 4.98v10m0 4.98v10m0 4.98v10m0 4.98v10m0 4.98v10m0 4.98v10m0 4.98v10m0 4.98v10m0 4.98v10m0 4.98v10m0 4.98v10m0 4.98v10m0 5v9.97m0 5v10m0 5v9.97m0 5v9.98m0 5v9.98m0 5v9.98m0 5v10m0 5v9.97m0 5v9.98m0 5v9.98m0 5v9.98m0 5v10m0 5v9.98m0 5v9.98m0 5v9.98m0 5v9.98m0 5v9.98m0 5v9.98m0 5v9.98m0 5v9.98m0 5v9.98m0 5v9.98m0 5v9.98m0 5v9.98m0 5v9.98m0 5v9.98m0 5v9.98m0 5v9.98m0 5v9.98m0 5v9.98m0 5v9.98m0 5v9.98m0 5v9.98m0 5v9.98m0 5v9.98m0 5v9.98m0 5v9.98m0 5v9.98m0 5v9.98m0 5v9.98m0 5v9.98m0 5v9.98m0 5v9.98m0 5v9.98m0 5v9.98m0 5v9.98m0 5v9.98m0 5v9.98m0 5v9.98m0 5v9.98m0 5v10m0 4.98v10m0 4.98v10m0 4.98v10m0 4.98v10m0 4.98v10m0 4.98v10m0 4.98v10m0 4.98v10m0 4.98v10m0 4.98v10m0 4.98v10m0 4.98v10m0 4.98v10m0 4.98v10m0 4.98v10m0 4.98v10m0 4.98v10m0 4.98v10m0 4.98v10m0 4.98v10m0 4.98v10m0 4.98v10m0 4.98v10m0 4.98v10m0 4.98v10m0 5v9.97m0 5v10m0 5v9.97m0 5v9.98m0 5v9.98m0 5v9.98m0 5v5" stroke="#333" fill="none"/><path d="M4770.5 221.5h-1v-.5h1zM4770.5 2499h-1v-.5h1z" fill="#333"/><path d="M5659.7 128c0-4.42 3.58-8 8-8H5852c4.42 0 8 3.58 8 8v84c0 4.42-3.58 8-8 8h-184.3c-4.42 0-8-3.58-8-8z" stroke="#000" stroke-width="2" fill="#99d5ca"/><use xlink:href="#c" transform="matrix(1,0,0,1,5659.700000000001,120) translate(17.205000000000005 55.025)"/><path d="M5759.85 221.5v5m0 5v9.97m0 5v9.98m0 5v9.98m0 5v9.98m0 5v10m0 5v9.98m0 5v9.98m0 5v9.98m0 5v9.98m0 5v9.98m0 5v9.98m0 5v9.98m0 5v9.98m0 5v9.98m0 5v9.98m0 5v9.98m0 5v9.98m0 5v9.98m0 5v9.98m0 5v9.98m0 5v9.98m0 5v9.98m0 5v9.98m0 5V586m0 5V601m0 5v9.98m0 5v9.98m0 5v9.98m0 5v9.98m0 5v9.98m0 5v9.98m0 5v9.98m0 5v9.98m0 5v9.98m0 5v9.98m0 5v9.98m0 5v9.98m0 5v9.98m0 5v9.98m0 5v9.98m0 5v9.98m0 5v9.98m0 5v9.98m0 5v10m0 4.98v10m0 4.98v10m0 4.98v10m0 4.98v10m0 4.98v10m0 4.98v10m0 4.98v10m0 4.98v10m0 4.98v10m0 4.98v10m0 4.98v10m0 4.98v10m0 4.98v10m0 4.98v10m0 4.98v10m0 4.98v10m0 4.98v10m0 4.98v10m0 4.98v10m0 4.98v10m0 4.98v10m0 4.98v10m0 4.98v10m0 4.98v10m0 4.98v10m0 5v9.97m0 5v10m0 5v9.97m0 5v9.98m0 5v9.98m0 5v9.98m0 5v10m0 5v9.97m0 5v9.98m0 5v9.98m0 5v9.98m0 5v10m0 5v9.98m0 5v9.98m0 5v9.98m0 5v9.98m0 5v9.98m0 5v9.98m0 5v9.98m0 5v9.98m0 5v9.98m0 5v9.98m0 5v9.98m0 5v9.98m0 5v9.98m0 5v9.98m0 5v9.98m0 5v9.98m0 5v9.98m0 5v9.98m0 5v9.98m0 5v9.98m0 5v9.98m0 5v9.98m0 5v9.98m0 5v9.98m0 5v9.98m0 5v9.98m0 5v9.98m0 5v9.98m0 5v9.98m0 5v9.98m0 5v9.98m0 5v9.98m0 5v9.98m0 5v9.98m0 5v9.98m0 5v9.98m0 5v9.98m0 5v9.98m0 5v10m0 4.98v10m0 4.98v10m0 4.98v10m0 4.98v10m0 4.98v10m0 4.98v10m0 4.98v10m0 4.98v10m0 4.98v10m0 4.98v10m0 4.98v10m0 4.98v10m0 4.98v10m0 4.98v10m0 4.98v10m0 4.98v10m0 4.98v10m0 4.98v10m0 4.98v10m0 4.98v10m0 4.98v10m0 4.98v10m0 4.98v10m0 4.98v10m0 4.98v10m0 5v9.97m0 5v10m0 5v9.97m0 5v9.98m0 5v9.98m0 5v9.98m0 5v5" stroke="#333" fill="none"/><path d="M5760.35 221.5h-1v-.5h1zM5760.35 2499h-1v-.5h1z" fill="#333"/><path d="M5659.7 2508c0-4.42 3.58-8 8-8H5852c4.42 0 8 3.58 8 8v84c0 4.42-3.58 8-8 8h-184.3c-4.42 0-8-3.58-8-8z" stroke="#000" stroke-width="2" fill="#99d5ca"/><use xlink:href="#c" transform="matrix(1,0,0,1,5659.700000000001,2500) translate(17.205000000000005 55.025)"/><path d="M6065.05 128c0-4.42 3.58-8 8-8H6252c4.42 0 8 3.58 8 8v84c0 4.42-3.58 8-8 8h-178.95c-4.42 0-8-3.58-8-8z" stroke="#000" stroke-width="2" fill="#99d5ca"/><use xlink:href="#d" transform="matrix(1,0,0,1,6065.049999999999,120) translate(14.705000000000007 55.025)"/><path d="M6065.05 2508c0-4.42 3.58-8 8-8H6252c4.42 0 8 3.58 8 8v84c0 4.42-3.58 8-8 8h-178.95c-4.42 0-8-3.58-8-8z" stroke="#000" stroke-width="2" fill="#99d5ca"/><use xlink:href="#d" transform="matrix(1,0,0,1,6065.049999999999,2500) translate(14.705000000000007 55.025)"/><path d="M6162.52 221.5v5m0 5v9.97m0 5v9.98m0 5v9.98m0 5v9.98m0 5v10m0 5v9.98m0 5v9.98m0 5v9.98m0 5v9.98m0 5v9.98m0 5v9.98m0 5v9.98m0 5v9.98m0 5v9.98m0 5v9.98m0 5v9.98m0 5v9.98m0 5v9.98m0 5v9.98m0 5v9.98m0 5v9.98m0 5v9.98m0 5v9.98m0 5V586m0 5V601m0 5v9.98m0 5v9.98m0 5v9.98m0 5v9.98m0 5v9.98m0 5v9.98m0 5v9.98m0 5v9.98m0 5v9.98m0 5v9.98m0 5v9.98m0 5v9.98m0 5v9.98m0 5v9.98m0 5v9.98m0 5v9.98m0 5v9.98m0 5v9.98m0 5v10m0 4.98v10m0 4.98v10m0 4.98v10m0 4.98v10m0 4.98v10m0 4.98v10m0 4.98v10m0 4.98v10m0 4.98v10m0 4.98v10m0 4.98v10m0 4.98v10m0 4.98v10m0 4.98v10m0 4.98v10m0 4.98v10m0 4.98v10m0 4.98v10m0 4.98v10m0 4.98v10m0 4.98v10m0 4.98v10m0 4.98v10m0 4.98v10m0 4.98v10m0 5v9.97m0 5v10m0 5v9.97m0 5v9.98m0 5v9.98m0 5v9.98m0 5v10m0 5v9.97m0 5v9.98m0 5v9.98m0 5v9.98m0 5v10m0 5v9.98m0 5v9.98m0 5v9.98m0 5v9.98m0 5v9.98m0 5v9.98m0 5v9.98m0 5v9.98m0 5v9.98m0 5v9.98m0 5v9.98m0 5v9.98m0 5v9.98m0 5v9.98m0 5v9.98m0 5v9.98m0 5v9.98m0 5v9.98m0 5v9.98m0 5v9.98m0 5v9.98m0 5v9.98m0 5v9.98m0 5v9.98m0 5v9.98m0 5v9.98m0 5v9.98m0 5v9.98m0 5v9.98m0 5v9.98m0 5v9.98m0 5v9.98m0 5v9.98m0 5v9.98m0 5v9.98m0 5v9.98m0 5v9.98m0 5v9.98m0 5v10m0 4.98v10m0 4.98v10m0 4.98v10m0 4.98v10m0 4.98v10m0 4.98v10m0 4.98v10m0 4.98v10m0 4.98v10m0 4.98v10m0 4.98v10m0 4.98v10m0 4.98v10m0 4.98v10m0 4.98v10m0 4.98v10m0 4.98v10m0 4.98v10m0 4.98v10m0 4.98v10m0 4.98v10m0 4.98v10m0 4.98v10m0 4.98v10m0 4.98v10m0 5v9.97m0 5v10m0 5v9.97m0 5v9.98m0 5v9.98m0 5v9.98m0 5v5" stroke="#333" fill="none"/><path d="M6163.02 221.5h-1v-.5h1zM6163.02 2499h-1v-.5h1z" fill="#333"/><path d="M6470.4 128c0-4.42 3.58-8 8-8H6652c4.42 0 8 3.58 8 8v84c0 4.42-3.58 8-8 8h-173.6c-4.42 0-8-3.58-8-8z" stroke="#000" stroke-width="2" fill="#99d5ca"/><use xlink:href="#e" transform="matrix(1,0,0,1,6470.4,120) translate(17.205000000000005 55.025)"/><path d="M6470.4 2508c0-4.42 3.58-8 8-8H6652c4.42 0 8 3.58 8 8v84c0 4.42-3.58 8-8 8h-173.6c-4.42 0-8-3.58-8-8z" stroke="#000" stroke-width="2" fill="#99d5ca"/><use xlink:href="#e" transform="matrix(1,0,0,1,6470.4,2500) translate(17.205000000000005 55.025)"/><path d="M6565.2 221.5v5m0 5v9.97m0 5v9.98m0 5v9.98m0 5v9.98m0 5v10m0 5v9.98m0 5v9.98m0 5v9.98m0 5v9.98m0 5v9.98m0 5v9.98m0 5v9.98m0 5v9.98m0 5v9.98m0 5v9.98m0 5v9.98m0 5v9.98m0 5v9.98m0 5v9.98m0 5v9.98m0 5v9.98m0 5v9.98m0 5v9.98m0 5V586m0 5V601m0 5v9.98m0 5v9.98m0 5v9.98m0 5v9.98m0 5v9.98m0 5v9.98m0 5v9.98m0 5v9.98m0 5v9.98m0 5v9.98m0 5v9.98m0 5v9.98m0 5v9.98m0 5v9.98m0 5v9.98m0 5v9.98m0 5v9.98m0 5v9.98m0 5v10m0 4.98v10m0 4.98v10m0 4.98v10m0 4.98v10m0 4.98v10m0 4.98v10m0 4.98v10m0 4.98v10m0 4.98v10m0 4.98v10m0 4.98v10m0 4.98v10m0 4.98v10m0 4.98v10m0 4.98v10m0 4.98v10m0 4.98v10m0 4.98v10m0 4.98v10m0 4.98v10m0 4.98v10m0 4.98v10m0 4.98v10m0 4.98v10m0 4.98v10m0 5v9.97m0 5v10m0 5v9.97m0 5v9.98m0 5v9.98m0 5v9.98m0 5v10m0 5v9.97m0 5v9.98m0 5v9.98m0 5v9.98m0 5v10m0 5v9.98m0 5v9.98m0 5v9.98m0 5v9.98m0 5v9.98m0 5v9.98m0 5v9.98m0 5v9.98m0 5v9.98m0 5v9.98m0 5v9.98m0 5v9.98m0 5v9.98m0 5v9.98m0 5v9.98m0 5v9.98m0 5v9.98m0 5v9.98m0 5v9.98m0 5v9.98m0 5v9.98m0 5v9.98m0 5v9.98m0 5v9.98m0 5v9.98m0 5v9.98m0 5v9.98m0 5v9.98m0 5v9.98m0 5v9.98m0 5v9.98m0 5v9.98m0 5v9.98m0 5v9.98m0 5v9.98m0 5v9.98m0 5v9.98m0 5v9.98m0 5v10m0 4.98v10m0 4.98v10m0 4.98v10m0 4.98v10m0 4.98v10m0 4.98v10m0 4.98v10m0 4.98v10m0 4.98v10m0 4.98v10m0 4.98v10m0 4.98v10m0 4.98v10m0 4.98v10m0 4.98v10m0 4.98v10m0 4.98v10m0 4.98v10m0 4.98v10m0 4.98v10m0 4.98v10m0 4.98v10m0 4.98v10m0 4.98v10m0 4.98v10m0 5v9.97m0 5v10m0 5v9.97m0 5v9.98m0 5v9.98m0 5v9.98m0 5v5" stroke="#333" fill="none"/><path d="M6565.7 221.5h-1v-.5h1zM6565.7 2499h-1v-.5h1z" fill="#333"/><path d="M6710.4 128c0-4.42 3.58-8 8-8h104c4.42 0 8 3.58 8 8v84c0 4.42-3.58 8-8 8h-104c-4.42 0-8-3.58-8-8z" stroke="#000" stroke-width="2" fill="#99d5ca"/><use xlink:href="#f" transform="matrix(1,0,0,1,6710.4,120) translate(18.60499999999999 55.025)"/><path d="M6710.4 2508c0-4.42 3.58-8 8-8h104c4.42 0 8 3.58 8 8v84c0 4.42-3.58 8-8 8h-104c-4.42 0-8-3.58-8-8z" stroke="#000" stroke-width="2" fill="#99d5ca"/><use xlink:href="#f" transform="matrix(1,0,0,1,6710.4,2500) translate(18.60499999999999 55.025)"/><path d="M6770.4 221.5v5m0 5v9.97m0 5v9.98m0 5v9.98m0 5v9.98m0 5v10m0 5v9.98m0 5v9.98m0 5v9.98m0 5v9.98m0 5v9.98m0 5v9.98m0 5v9.98m0 5v9.98m0 5v9.98m0 5v9.98m0 5v9.98m0 5v9.98m0 5v9.98m0 5v9.98m0 5v9.98m0 5v9.98m0 5v9.98m0 5v9.98m0 5V586m0 5V601m0 5v9.98m0 5v9.98m0 5v9.98m0 5v9.98m0 5v9.98m0 5v9.98m0 5v9.98m0 5v9.98m0 5v9.98m0 5v9.98m0 5v9.98m0 5v9.98m0 5v9.98m0 5v9.98m0 5v9.98m0 5v9.98m0 5v9.98m0 5v9.98m0 5v10m0 4.98v10m0 4.98v10m0 4.98v10m0 4.98v10m0 4.98v10m0 4.98v10m0 4.98v10m0 4.98v10m0 4.98v10m0 4.98v10m0 4.98v10m0 4.98v10m0 4.98v10m0 4.98v10m0 4.98v10m0 4.98v10m0 4.98v10m0 4.98v10m0 4.98v10m0 4.98v10m0 4.98v10m0 4.98v10m0 4.98v10m0 4.98v10m0 4.98v10m0 5v9.97m0 5v10m0 5v9.97m0 5v9.98m0 5v9.98m0 5v9.98m0 5v10m0 5v9.97m0 5v9.98m0 5v9.98m0 5v9.98m0 5v10m0 5v9.98m0 5v9.98m0 5v9.98m0 5v9.98m0 5v9.98m0 5v9.98m0 5v9.98m0 5v9.98m0 5v9.98m0 5v9.98m0 5v9.98m0 5v9.98m0 5v9.98m0 5v9.98m0 5v9.98m0 5v9.98m0 5v9.98m0 5v9.98m0 5v9.98m0 5v9.98m0 5v9.98m0 5v9.98m0 5v9.98m0 5v9.98m0 5v9.98m0 5v9.98m0 5v9.98m0 5v9.98m0 5v9.98m0 5v9.98m0 5v9.98m0 5v9.98m0 5v9.98m0 5v9.98m0 5v9.98m0 5v9.98m0 5v9.98m0 5v9.98m0 5v10m0 4.98v10m0 4.98v10m0 4.98v10m0 4.98v10m0 4.98v10m0 4.98v10m0 4.98v10m0 4.98v10m0 4.98v10m0 4.98v10m0 4.98v10m0 4.98v10m0 4.98v10m0 4.98v10m0 4.98v10m0 4.98v10m0 4.98v10m0 4.98v10m0 4.98v10m0 4.98v10m0 4.98v10m0 4.98v10m0 4.98v10m0 4.98v10m0 4.98v10m0 5v9.97m0 5v10m0 5v9.97m0 5v9.98m0 5v9.98m0 5v9.98m0 5v5" stroke="#333" fill="none"/><path d="M6770.9 221.5h-1v-.5h1zM6770.9 2499h-1v-.5h1z" fill="#333"/><path d="M4700 320.86h2098.4l12 12v48H4700z" stroke="#000" stroke-width="2" fill="#99d5ca"/><path d="M6798.4 321.8v11.06h11.05" stroke="#000" stroke-width="2" fill="#99d5ca"/><use xlink:href="#g" transform="matrix(1,0,0,1,4705,325.859649122807) translate(1015.05 30.025)"/><path d="M4770.5 500.75h1983.52M4770.5 500.75h-.5" stroke="#333" fill="none"/><path d="M6768.78 500.75l-14.26 4.64v-9.28z" stroke="#333" fill="#333"/><use xlink:href="#h" transform="matrix(1,0,0,1,5264.375,475.15438596491225) translate(0.0049999999999954525 14.4)"/><use xlink:href="#i" transform="matrix(1,0,0,1,5264.375,475.15438596491225) translate(285.35499999999996 14.4)"/><use xlink:href="#j" transform="matrix(1,0,0,1,5264.375,475.15438596491225) translate(474.905 14.4)"/><use xlink:href="#k" transform="matrix(1,0,0,1,5264.375,475.15438596491225) translate(653.505 14.4)"/><use xlink:href="#l" transform="matrix(1,0,0,1,5264.375,475.15438596491225) translate(832.1049999999999 14.4)"/><path d="M5760.35 560.7h993.67M5760.36 560.7h-.5" stroke="#333" fill="none"/><path d="M6768.78 560.7l-14.26 4.64v-9.27z" stroke="#333" fill="#333"/><use xlink:href="#m" transform="matrix(1,0,0,1,6209.25,535.101754385965) translate(0.005000000000002558 14.4)"/><path d="M6163.02 620.65h591M6163.04 620.65h-.52" stroke="#333" fill="none"/><path d="M6768.78 620.65l-14.26 4.63V616z" stroke="#333" fill="#333"/><use xlink:href="#m" transform="matrix(1,0,0,1,6410.5875,595.0491228070176) translate(0.005000000000002558 14.4)"/><path d="M4710 408.84c0-4.42 3.58-8 8-8h84c4.42 0 8 3.58 8 8v4.93c0 3.9-2.24 9.3-5 12.07-2.76 2.76-8.17 5-12.07 5H4718c-4.42 0-8-3.58-8-8z" fill="#99d5ca"/><path d="M4810 400.84v20l-10 10h-90" stroke="#000" stroke-width="2" fill="none"/><path d="M4710 408.84c0-4.42 3.58-8 8-8h2074.4c4.42 0 8 3.58 8 8v223.8c0 4.4-3.58 8-8 8H4718c-4.42 0-8-3.6-8-8z" stroke="#000" stroke-width="2" fill="none"/><use xlink:href="#n" transform="matrix(1,0,0,1,4718,400.84210526315786) translate(26.5 18.6)"/><path d="M4500.5 780.5h253.12M4500.5 780.5h-.5" stroke="#333" fill="none"/><path d="M4768.38 780.5l-14.26 4.64v-9.27z" stroke="#333" fill="#333"/><use xlink:href="#o" transform="matrix(1,0,0,1,4548.25,754.9087719298246) translate(0.0049999999999954525 14.4)"/><path d="M4770.5 840.46h1983.52M4770.5 840.46h-.5" stroke="#333" fill="none"/><path d="M6768.78 840.46l-14.26 4.63v-9.28z" stroke="#333" fill="#333"/><use xlink:href="#p" transform="matrix(1,0,0,1,5640.075,814.8561403508772) translate(0.0049999999999954525 14.4)"/><path d="M4460 660.56h2338.4l12 12v48H4460z" stroke="#000" stroke-width="2" fill="#99d5ca"/><path d="M6798.4 661.5v11.06h11.05" stroke="#000" stroke-width="2" fill="#99d5ca"/><use xlink:href="#q" transform="matrix(1,0,0,1,4465,665.561403508772) translate(1086.2 30.025)"/><use xlink:href="#r" transform="matrix(1,0,0,1,4465,665.561403508772) translate(1167 30.025)"/><path d="M6769.9 1020.3h-591M6769.9 1020.3h.5" stroke="#333" fill="none"/><path d="M6164.14 1020.3l14.27-4.64v9.27z" stroke="#333" fill="#333"/><use xlink:href="#s" transform="matrix(1,0,0,1,6347.287499999999,994.698245614035) translate(0.0049999999999954525 14.4)"/><path d="M6769.9 960.35h-993.67M6769.9 960.35h.5" stroke="#333" fill="none"/><path d="M5761.47 960.35l14.26-4.63V965z" stroke="#333" fill="#333"/><use xlink:href="#s" transform="matrix(1,0,0,1,6145.95,934.7508771929826) translate(0.0049999999999954525 14.4)"/><path d="M5689.7 868.44c0-4.42 3.58-8 8-8h84c4.42 0 8 3.58 8 8v4.93c0 3.9-2.24 9.3-5 12.07-2.76 2.76-8.17 5-12.07 5h-74.93c-4.42 0-8-3.58-8-8z" fill="#99d5ca"/><path d="M5789.7 860.44v20l-10 10h-90" stroke="#000" stroke-width="2" fill="none"/><path d="M5689.7 868.44c0-4.42 3.58-8 8-8h1094.7c4.42 0 8 3.58 8 8v163.84c0 4.42-3.58 8-8 8H5697.7c-4.42 0-8-3.58-8-8z" stroke="#000" stroke-width="2" fill="none"/><use xlink:href="#n" transform="matrix(1,0,0,1,5697.7,860.4385964912279) translate(26.5 18.6)"/><path d="M5760.35 1160.18h993.67M5760.36 1160.18h-.5" stroke="#333" fill="none"/><path d="M6768.78 1160.18l-14.26 4.63v-9.26z" stroke="#333" fill="#333"/><use xlink:href="#t" transform="matrix(1,0,0,1,6137.5,1134.5754385964915) translate(0.0049999999999954525 14.4)"/><path d="M5689.7 1068.26c0-4.42 3.58-8 8-8h84c4.42 0 8 3.58 8 8v4.93c0 3.9-2.24 9.3-5 12.06s-8.17 5-12.07 5h-74.93c-4.42 0-8-3.58-8-8z" fill="#99d5ca"/><path d="M5789.7 1060.26v20l-10 10h-90" stroke="#000" stroke-width="2" fill="none"/><path d="M5689.7 1068.26c0-4.42 3.58-8 8-8h1094.7c4.42 0 8 3.58 8 8v163.85c0 4.42-3.58 8-8 8H5697.7c-4.42 0-8-3.58-8-8z" stroke="#000" stroke-width="2" fill="none"/><use xlink:href="#n" transform="matrix(1,0,0,1,5697.7,1060.2631578947369) translate(26.5 18.6)"/><path d="M6163.02 1220.12h591M6163.04 1220.12h-.52" stroke="#333" fill="none"/><path d="M6768.78 1220.12l-14.26 4.64v-9.27z" stroke="#333" fill="#333"/><use xlink:href="#t" transform="matrix(1,0,0,1,6338.8375,1194.522807017544) translate(0.0049999999999954525 14.4)"/><path d="M4710 1268.1c0-4.43 3.58-8 8-8h84c4.42 0 8 3.57 8 8v4.92c0 3.9-2.24 9.3-5 12.07-2.76 2.75-8.17 5-12.07 5H4718c-4.42 0-8-3.6-8-8z" fill="#99d5ca"/><path d="M4810 1260.1v20l-10 10h-90" stroke="#000" stroke-width="2" fill="none"/><path d="M4710 1268.1c0-4.43 3.58-8 8-8h2074.4c4.42 0 8 3.57 8 8v163.83c0 4.42-3.58 8-8 8H4718c-4.42 0-8-3.58-8-8z" stroke="#000" stroke-width="2" fill="none"/><use xlink:href="#n" transform="matrix(1,0,0,1,4718,1260.0877192982457) translate(26.5 18.6)"/><path d="M6769.9 1419.95H4786.38M6769.9 1419.95h.5" stroke="#333" fill="none"/><path d="M4771.62 1419.95l14.26-4.64v9.28z" stroke="#333" fill="#333"/><use xlink:href="#u" transform="matrix(1,0,0,1,5564.775,1394.3473684210526) translate(0.0049999999999954525 14.4)"/><path d="M6769.9 1360H4786.38M6769.9 1360h.5" stroke="#333" fill="none"/><path d="M4771.62 1360l14.26-4.64v9.28z" stroke="#333" fill="#333"/><use xlink:href="#v" transform="matrix(1,0,0,1,5564.775,1334.4) translate(0.0049999999999954525 14.4)"/><path d="M4770.5 1479.9h77.5c6.63 0 12 5.37 12 12v15.96c0 6.63-5.37 12-12 12h-61.62M4770.5 1479.9h-.5" stroke="#333" fill="none"/><path d="M4771.62 1519.86l14.26-4.64v9.27z" stroke="#333" fill="#333"/><use xlink:href="#w" transform="matrix(1,0,0,1,4868,1489.0771929824562) translate(0.0049999999999954525 14.4)"/><path d="M4586.6 1539.8h294.8l12 12v48h-306.8z" stroke="#000" stroke-width="2" fill="#99d5ca"/><path d="M4881.4 1540.74v11.05h11.05" stroke="#000" stroke-width="2" fill="#99d5ca"/><use xlink:href="#x" transform="matrix(1,0,0,1,4591.6,1544.7894736842104) translate(6.324999999999989 30.025)"/><use xlink:href="#y" transform="matrix(1,0,0,1,4591.6,1544.7894736842104) translate(96.175 30.025)"/><use xlink:href="#z" transform="matrix(1,0,0,1,4591.6,1544.7894736842104) translate(118.075 30.025)"/><path d="M4770.5 1659.74h1983.52M4770.5 1659.74h-.5" stroke="#333" fill="none"/><path d="M6768.78 1659.74l-14.26 4.63v-9.27z" stroke="#333" fill="#333"/><use xlink:href="#A" transform="matrix(1,0,0,1,5559.3,1634.1368421052632) translate(0.0049999999999954525 14.4)"/><path d="M6769.9 1839.58h-591M6769.9 1839.58h.5" stroke="#333" fill="none"/><path d="M6164.14 1839.58l14.27-4.64v9.27z" stroke="#333" fill="#333"/><use xlink:href="#B" transform="matrix(1,0,0,1,6266.5125,1813.978947368421) translate(0.0049999999999954525 14.4)"/><path d="M6769.9 1979.46H4786.38M6769.9 1979.46h.5" stroke="#333" fill="none"/><path d="M4771.62 1979.46l14.26-4.64v9.27z" stroke="#333" fill="#333"/><use xlink:href="#C" transform="matrix(1,0,0,1,5659,1953.8561403508772) translate(0.0049999999999954525 14.4)"/><path d="M6163.02 1919.5h591M6163.04 1919.5h-.52" stroke="#333" fill="none"/><path d="M6768.78 1919.5l-14.26 4.64v-9.27z" stroke="#333" fill="#333"/><use xlink:href="#D" transform="matrix(1,0,0,1,6344.3125,1893.9087719298245) translate(0.0049999999999954525 14.4)"/><path d="M6769.9 1779.63h-993.67M6769.9 1779.63h.5" stroke="#333" fill="none"/><path d="M5761.47 1779.63l14.26-4.63v9.27z" stroke="#333" fill="#333"/><use xlink:href="#B" transform="matrix(1,0,0,1,6065.175,1754.0315789473684) translate(0.0049999999999954525 14.4)"/><path d="M5689.7 1687.72c0-4.42 3.58-8 8-8h84c4.42 0 8 3.58 8 8v4.93c0 3.9-2.24 9.3-5 12.07-2.76 2.76-8.17 5-12.07 5h-74.93c-4.42 0-8-3.58-8-8z" fill="#99d5ca"/><path d="M5789.7 1679.72v20l-10 10h-90" stroke="#000" stroke-width="2" fill="none"/><path d="M5689.7 1687.72c0-4.42 3.58-8 8-8h1094.7c4.42 0 8 3.58 8 8v163.84c0 4.42-3.58 8-8 8H5697.7c-4.42 0-8-3.58-8-8z" stroke="#000" stroke-width="2" fill="none"/><use xlink:href="#n" transform="matrix(1,0,0,1,5697.7,1679.719298245614) translate(26.5 18.6)"/><path d="M4470 2007.44c0-4.42 3.58-8 8-8h84c4.42 0 8 3.58 8 8v4.93c0 3.9-2.24 9.3-5 12.07-2.76 2.76-8.17 5-12.07 5H4478c-4.42 0-8-3.58-8-8z" fill="#99d5ca"/><path d="M4570 1999.44v20l-10 10h-90" stroke="#000" stroke-width="2" fill="none"/><path d="M4470 2007.44c0-4.42 3.58-8 8-8h1957.65c4.42 0 8 3.58 8 8v183.82c0 4.42-3.58 8-8 8H4478c-4.42 0-8-3.58-8-8z" stroke="#000" stroke-width="2" fill="none"/><use xlink:href="#n" transform="matrix(1,0,0,1,4478,1999.4385964912276) translate(26.5 18.6)"/><path d="M4769.5 2099.35h-253.12M4769.5 2099.35h.5" stroke="#333" fill="none"/><path d="M4501.62 2099.35l14.26-4.63v9.27z" stroke="#333" fill="#333"/><use xlink:href="#E" transform="matrix(1,0,0,1,4609.075,2073.750877192983) translate(0.004999999999999005 14.4)"/><path d="M6163.02 2139.32h70.03c6.63 0 12 5.37 12 12v15.96c0 6.63-5.37 12-12 12h-54.14M6163.04 2139.32h-.52" stroke="#333" fill="none"/><path d="M6164.14 2179.28l14.27-4.63v9.27z" stroke="#333" fill="#333"/><use xlink:href="#F" transform="matrix(1,0,0,1,6253.05,2148.4982456140347) translate(0.0049999999999954525 14.4)"/><path d="M6163.02 2319.16h591M6163.04 2319.16h-.52" stroke="#333" fill="none"/><path d="M6768.78 2319.16l-14.26 4.63v-9.28z" stroke="#333" fill="#333"/><use xlink:href="#G" transform="matrix(1,0,0,1,6344.787499999999,2293.5578947368417) translate(0.0049999999999954525 14.4)"/><path d="M6769.9 2379.1H4786.38M6769.9 2379.1h.5" stroke="#333" fill="none"/><path d="M4771.62 2379.1l14.26-4.63v9.27z" stroke="#333" fill="#333"/><use xlink:href="#H" transform="matrix(1,0,0,1,5659.474999999999,2353.5052631578947) translate(0.0049999999999954525 14.4)"/><path d="M4470 2227.25c0-4.42 3.58-8 8-8h84c4.42 0 8 3.58 8 8v4.92c0 3.9-2.24 9.3-5 12.08-2.76 2.76-8.17 5-12.07 5H4478c-4.42 0-8-3.6-8-8z" fill="#99d5ca"/><path d="M4570 2219.25v20l-10 10h-90" stroke="#000" stroke-width="2" fill="none"/><path d="M4470 2227.25c0-4.42 3.58-8 8-8h2314.4c4.42 0 8 3.58 8 8v223.8c0 4.4-3.58 8-8 8H4478c-4.42 0-8-3.6-8-8z" stroke="#000" stroke-width="2" fill="none"/><g><use xlink:href="#I" transform="matrix(1,0,0,1,4478,2219.245614035088) translate(25.549999999999997 18.6)"/></g><g><use xlink:href="#J" transform="matrix(1,0,0,1,4482,2257.245614035088) translate(8.199999999999996 18.6)"/><use xlink:href="#K" transform="matrix(1,0,0,1,4482,2257.245614035088) translate(76.94999999999999 18.6)"/></g><path d="M4769.5 2439.05h-253.12M4769.5 2439.05h.5" stroke="#333" fill="none"/><path d="M4501.62 2439.05l14.26-4.63v9.27z" stroke="#333" fill="#333"/><g><use xlink:href="#L" transform="matrix(1,0,0,1,4575.7,2413.452631578947) translate(0.005000000000002558 14.4)"/></g><defs><path fill="#333" d="M238-95c0 69-44 99-111 99C63 4 22-25 22-93v-155h51v151c-1 38 19 59 55 60 90 1 49-130 58-211h52v153" id="M"/><path fill="#333" d="M137-138c1-29-70-34-71-4 15 46 118 7 119 86 1 83-164 76-172 9l43-7c4 19 20 25 44 25 33 8 57-30 24-41C81-84 22-81 20-136c-2-80 154-74 161-7" id="N"/><path fill="#333" d="M185-48c-13 30-37 53-82 52C43 2 14-33 14-96s30-98 90-98c62 0 83 45 84 108H66c0 31 8 55 39 56 18 0 30-7 34-22zm-45-69c5-46-57-63-70-21-2 6-4 13-4 21h74" id="O"/><path fill="#333" d="M135-150c-39-12-60 13-60 57V0H25l-1-190h47c2 13-1 29 3 40 6-28 27-53 61-41v41" id="P"/><g id="a"><use transform="matrix(0.05,0,0,0.05,0,0)" xlink:href="#M"/><use transform="matrix(0.05,0,0,0.05,12.950000000000001,0)" xlink:href="#N"/><use transform="matrix(0.05,0,0,0.05,22.950000000000003,0)" xlink:href="#O"/><use transform="matrix(0.05,0,0,0.05,32.95,0)" xlink:href="#P"/></g><path fill="#333" d="M24-248c93 1 206-16 204 79-1 75-69 88-152 82V0H24v-248zm52 121c47 0 100 7 100-41 0-47-54-39-100-39v80" id="Q"/><path fill="#333" d="M85 4C-2 5 27-109 22-190h50c7 57-23 150 33 157 60-5 35-97 40-157h50l1 190h-47c-2-12 1-28-3-38-12 25-28 42-61 42" id="R"/><path fill="#333" d="M135-194c52 0 70 43 70 98 0 56-19 99-73 100-30 1-46-15-58-35L72 0H24l1-261h50v104c11-23 29-37 60-37zM114-30c31 0 40-27 40-66 0-37-7-63-39-63s-41 28-41 65c0 36 8 64 40 64" id="S"/><path fill="#333" d="M67-125c0 53 21 87 73 88 37 1 54-22 65-47l45 17C233-25 199 4 140 4 58 4 20-42 15-125 8-235 124-281 211-232c18 10 29 29 36 50l-46 12c-8-25-30-41-62-41-52 0-71 34-72 86" id="T"/><path fill="#333" d="M110-194c64 0 96 36 96 99 0 64-35 99-97 99-61 0-95-36-95-99 0-62 34-99 96-99zm-1 164c35 0 45-28 45-65 0-40-10-65-43-65-34 0-45 26-45 65 0 36 10 65 43 65" id="U"/><path fill="#333" d="M220-157c-53 9-28 100-34 157h-49v-107c1-27-5-49-29-50C55-147 81-57 75 0H25l-1-190h47c2 12-1 28 3 38 10-53 101-56 108 0 13-22 24-43 59-42 82 1 51 116 57 194h-49v-107c-1-25-5-48-29-50" id="V"/><path fill="#333" d="M133-34C117-15 103 5 69 4 32 3 11-16 11-54c-1-60 55-63 116-61 1-26-3-47-28-47-18 1-26 9-28 27l-52-2c7-38 36-58 82-57s74 22 75 68l1 82c-1 14 12 18 25 15v27c-30 8-71 5-69-32zm-48 3c29 0 43-24 42-57-32 0-66-3-65 30 0 17 8 27 23 27" id="W"/><path fill="#333" d="M135-194c87-1 58 113 63 194h-50c-7-57 23-157-34-157-59 0-34 97-39 157H25l-1-190h47c2 12-1 28 3 38 12-26 28-41 61-42" id="X"/><path fill="#333" d="M88-194c31-1 46 15 58 34l-1-101h50l1 261h-48c-2-10 0-23-3-31C134-8 116 4 84 4 32 4 16-41 15-95c0-56 19-97 73-99zm17 164c33 0 40-30 41-66 1-37-9-64-41-64s-38 30-39 65c0 43 13 65 39 65" id="Y"/><path fill="#333" d="M182-130c37 4 62 22 62 59C244 23 116-4 24 0v-248c84 5 203-23 205 63 0 31-19 50-47 55zM76-148c40-3 101 13 101-30 0-44-60-28-101-31v61zm0 110c48-3 116 14 116-37 0-48-69-32-116-35v72" id="Z"/><g id="b"><use transform="matrix(0.05,0,0,0.05,0,0)" xlink:href="#Q"/><use transform="matrix(0.05,0,0,0.05,12,0)" xlink:href="#R"/><use transform="matrix(0.05,0,0,0.05,22.950000000000003,0)" xlink:href="#S"/><use transform="matrix(0.05,0,0,0.05,33.900000000000006,0)" xlink:href="#T"/><use transform="matrix(0.05,0,0,0.05,46.85000000000001,0)" xlink:href="#U"/><use transform="matrix(0.05,0,0,0.05,57.80000000000001,0)" xlink:href="#V"/><use transform="matrix(0.05,0,0,0.05,73.80000000000001,0)" xlink:href="#V"/><use transform="matrix(0.05,0,0,0.05,89.80000000000001,0)" xlink:href="#W"/><use transform="matrix(0.05,0,0,0.05,99.80000000000001,0)" xlink:href="#X"/><use transform="matrix(0.05,0,0,0.05,110.75,0)" xlink:href="#Y"/><use transform="matrix(0.05,0,0,0.05,121.7,0)" xlink:href="#Z"/><use transform="matrix(0.05,0,0,0.05,134.65,0)" xlink:href="#R"/><use transform="matrix(0.05,0,0,0.05,145.6,0)" xlink:href="#N"/></g><path fill="#333" d="M169-182c-1-43-94-46-97-3 18 66 151 10 154 114 3 95-165 93-204 36-6-8-10-19-12-30l50-8c3 46 112 56 116 5-17-69-150-10-154-114-4-87 153-88 188-35 5 8 8 18 10 28" id="aa"/><path fill="#333" d="M23 0v-37h61v-169l-59 37v-38l62-41h46v211h57V0H23" id="ab"/><g id="c"><use transform="matrix(0.05,0,0,0.05,0,0)" xlink:href="#aa"/><use transform="matrix(0.05,0,0,0.05,12,0)" xlink:href="#R"/><use transform="matrix(0.05,0,0,0.05,22.950000000000003,0)" xlink:href="#S"/><use transform="matrix(0.05,0,0,0.05,33.900000000000006,0)" xlink:href="#T"/><use transform="matrix(0.05,0,0,0.05,46.85000000000001,0)" xlink:href="#U"/><use transform="matrix(0.05,0,0,0.05,57.80000000000001,0)" xlink:href="#V"/><use transform="matrix(0.05,0,0,0.05,73.80000000000001,0)" xlink:href="#V"/><use transform="matrix(0.05,0,0,0.05,89.80000000000001,0)" xlink:href="#W"/><use transform="matrix(0.05,0,0,0.05,99.80000000000001,0)" xlink:href="#X"/><use transform="matrix(0.05,0,0,0.05,110.75,0)" xlink:href="#Y"/><use transform="matrix(0.05,0,0,0.05,121.7,0)" xlink:href="#Z"/><use transform="matrix(0.05,0,0,0.05,134.65,0)" xlink:href="#R"/><use transform="matrix(0.05,0,0,0.05,145.6,0)" xlink:href="#N"/><use transform="matrix(0.05,0,0,0.05,155.6,0)" xlink:href="#ab"/></g><path fill="#333" d="M182-182c0 78-84 86-111 141h115V0H12c-6-101 99-100 120-180 1-22-12-31-33-32-23 0-32 14-35 34l-49-3c5-45 32-70 84-70 51 0 83 22 83 69" id="ac"/><g id="d"><use transform="matrix(0.05,0,0,0.05,0,0)" xlink:href="#aa"/><use transform="matrix(0.05,0,0,0.05,12,0)" xlink:href="#R"/><use transform="matrix(0.05,0,0,0.05,22.950000000000003,0)" xlink:href="#S"/><use transform="matrix(0.05,0,0,0.05,33.900000000000006,0)" xlink:href="#T"/><use transform="matrix(0.05,0,0,0.05,46.85000000000001,0)" xlink:href="#U"/><use transform="matrix(0.05,0,0,0.05,57.80000000000001,0)" xlink:href="#V"/><use transform="matrix(0.05,0,0,0.05,73.80000000000001,0)" xlink:href="#V"/><use transform="matrix(0.05,0,0,0.05,89.80000000000001,0)" xlink:href="#W"/><use transform="matrix(0.05,0,0,0.05,99.80000000000001,0)" xlink:href="#X"/><use transform="matrix(0.05,0,0,0.05,110.75,0)" xlink:href="#Y"/><use transform="matrix(0.05,0,0,0.05,121.7,0)" xlink:href="#Z"/><use transform="matrix(0.05,0,0,0.05,134.65,0)" xlink:href="#R"/><use transform="matrix(0.05,0,0,0.05,145.6,0)" xlink:href="#N"/><use transform="matrix(0.05,0,0,0.05,155.6,0)" xlink:href="#ac"/></g><g id="e"><use transform="matrix(0.05,0,0,0.05,0,0)" xlink:href="#aa"/><use transform="matrix(0.05,0,0,0.05,12,0)" xlink:href="#R"/><use transform="matrix(0.05,0,0,0.05,22.950000000000003,0)" xlink:href="#S"/><use transform="matrix(0.05,0,0,0.05,33.900000000000006,0)" xlink:href="#T"/><use transform="matrix(0.05,0,0,0.05,46.85000000000001,0)" xlink:href="#U"/><use transform="matrix(0.05,0,0,0.05,57.80000000000001,0)" xlink:href="#V"/><use transform="matrix(0.05,0,0,0.05,73.80000000000001,0)" xlink:href="#V"/><use transform="matrix(0.05,0,0,0.05,89.80000000000001,0)" xlink:href="#W"/><use transform="matrix(0.05,0,0,0.05,99.80000000000001,0)" xlink:href="#X"/><use transform="matrix(0.05,0,0,0.05,110.75,0)" xlink:href="#Y"/><use transform="matrix(0.05,0,0,0.05,121.7,0)" xlink:href="#Z"/><use transform="matrix(0.05,0,0,0.05,134.65,0)" xlink:href="#R"/><use transform="matrix(0.05,0,0,0.05,145.6,0)" xlink:href="#ac"/></g><path fill="#333" d="M24 0v-248h195v40H76v63h132v40H76v65h150V0H24" id="ad"/><path fill="#333" d="M128 0H69L1-190h53L99-40l48-150h52" id="ae"/><path fill="#333" d="M115-3C79 11 28 4 28-45v-112H4v-33h27l15-45h31v45h36v33H77v99c-1 23 16 31 38 25v30" id="af"/><g id="f"><use transform="matrix(0.05,0,0,0.05,0,0)" xlink:href="#ad"/><use transform="matrix(0.05,0,0,0.05,12,0)" xlink:href="#ae"/><use transform="matrix(0.05,0,0,0.05,22,0)" xlink:href="#O"/><use transform="matrix(0.05,0,0,0.05,32,0)" xlink:href="#X"/><use transform="matrix(0.05,0,0,0.05,42.95,0)" xlink:href="#af"/><use transform="matrix(0.05,0,0,0.05,48.900000000000006,0)" xlink:href="#Z"/><use transform="matrix(0.05,0,0,0.05,61.85,0)" xlink:href="#R"/><use transform="matrix(0.05,0,0,0.05,72.80000000000001,0)" xlink:href="#N"/></g><path fill="#333" d="M24 0v-248h52V0H24" id="ag"/><path fill="#333" d="M25-224v-37h50v37H25zM25 0v-190h50V0H25" id="ah"/><path fill="#333" d="M25 0v-261h50V0H25" id="ai"/><path fill="#333" d="M12 0v-35l95-120H19v-35h142v35L67-36h103V0H12" id="aj"/><g id="g"><use transform="matrix(0.05,0,0,0.05,0,0)" xlink:href="#ag"/><use transform="matrix(0.05,0,0,0.05,5,0)" xlink:href="#X"/><use transform="matrix(0.05,0,0,0.05,15.950000000000001,0)" xlink:href="#ah"/><use transform="matrix(0.05,0,0,0.05,20.950000000000003,0)" xlink:href="#af"/><use transform="matrix(0.05,0,0,0.05,26.900000000000002,0)" xlink:href="#ah"/><use transform="matrix(0.05,0,0,0.05,31.900000000000002,0)" xlink:href="#W"/><use transform="matrix(0.05,0,0,0.05,41.900000000000006,0)" xlink:href="#ai"/><use transform="matrix(0.05,0,0,0.05,46.900000000000006,0)" xlink:href="#ah"/><use transform="matrix(0.05,0,0,0.05,51.900000000000006,0)" xlink:href="#aj"/><use transform="matrix(0.05,0,0,0.05,60.900000000000006,0)" xlink:href="#O"/></g><path fill="#333" d="M190-63c-7 42-38 67-86 67-59 0-84-38-90-98-12-110 154-137 174-36l-49 2c-2-19-15-32-35-32-30 0-35 28-38 64-6 74 65 87 74 30" id="ak"/><path fill="#333" d="M67-93c0 74 22 123 53 168H70C40 30 18-18 18-93s22-123 52-168h50c-32 44-53 94-53 168" id="al"/><path fill="#333" d="M24-248c120-7 223 5 221 122C244-46 201 0 124 0H24v-248zM76-40c74 7 117-18 117-86 0-67-45-88-117-82v168" id="am"/><path fill="#333" d="M135-194c53 0 70 44 70 98 0 56-19 98-73 100-31 1-45-17-59-34 3 33 2 69 2 105H25l-1-265h48c2 10 0 23 3 31 11-24 29-35 60-35zM114-30c33 0 39-31 40-66 0-38-9-64-40-64-56 0-55 130 0 130" id="an"/><path fill="#333" d="M114-157C55-157 80-60 75 0H25v-261h50l-1 109c12-26 28-41 61-42 86-1 58 113 63 194h-50c-7-57 23-157-34-157" id="ao"/><path fill="#333" d="M76-54c-1 42 2 86-19 110H24C36 42 46 24 48 0H25v-54h51" id="ap"/><g id="h"><use transform="matrix(0.05,0,0,0.05,0,0)" xlink:href="#N"/><use transform="matrix(0.05,0,0,0.05,10,0)" xlink:href="#R"/><use transform="matrix(0.05,0,0,0.05,20.950000000000003,0)" xlink:href="#S"/><use transform="matrix(0.05,0,0,0.05,31.900000000000006,0)" xlink:href="#N"/><use transform="matrix(0.05,0,0,0.05,41.900000000000006,0)" xlink:href="#ak"/><use transform="matrix(0.05,0,0,0.05,51.900000000000006,0)" xlink:href="#P"/><use transform="matrix(0.05,0,0,0.05,58.900000000000006,0)" xlink:href="#ah"/><use transform="matrix(0.05,0,0,0.05,63.900000000000006,0)" xlink:href="#S"/><use transform="matrix(0.05,0,0,0.05,74.85000000000001,0)" xlink:href="#O"/><use transform="matrix(0.05,0,0,0.05,84.85000000000001,0)" xlink:href="#al"/><use transform="matrix(0.05,0,0,0.05,90.80000000000001,0)" xlink:href="#T"/><use transform="matrix(0.05,0,0,0.05,103.75,0)" xlink:href="#U"/><use transform="matrix(0.05,0,0,0.05,114.7,0)" xlink:href="#V"/><use transform="matrix(0.05,0,0,0.05,130.70000000000002,0)" xlink:href="#V"/><use transform="matrix(0.05,0,0,0.05,146.70000000000002,0)" xlink:href="#W"/><use transform="matrix(0.05,0,0,0.05,156.70000000000002,0)" xlink:href="#X"/><use transform="matrix(0.05,0,0,0.05,167.65,0)" xlink:href="#Y"/><use transform="matrix(0.05,0,0,0.05,178.6,0)" xlink:href="#am"/><use transform="matrix(0.05,0,0,0.05,191.54999999999998,0)" xlink:href="#ah"/><use transform="matrix(0.05,0,0,0.05,196.54999999999998,0)" xlink:href="#N"/><use transform="matrix(0.05,0,0,0.05,206.54999999999995,0)" xlink:href="#an"/><use transform="matrix(0.05,0,0,0.05,217.49999999999997,0)" xlink:href="#W"/><use transform="matrix(0.05,0,0,0.05,227.49999999999997,0)" xlink:href="#af"/><use transform="matrix(0.05,0,0,0.05,233.44999999999996,0)" xlink:href="#ak"/><use transform="matrix(0.05,0,0,0.05,243.44999999999996,0)" xlink:href="#ao"/><use transform="matrix(0.05,0,0,0.05,254.39999999999998,0)" xlink:href="#O"/><use transform="matrix(0.05,0,0,0.05,264.4,0)" xlink:href="#Y"/><use transform="matrix(0.05,0,0,0.05,275.34999999999997,0)" xlink:href="#ap"/></g><path fill="#333" d="M240-174c0 40-23 61-54 70L253 0h-59l-57-94H76V0H24v-248c93 4 217-23 216 74zM76-134c48-2 112 12 112-38 0-48-66-32-112-35v73" id="aq"/><path fill="#333" d="M84 4C32 4 15-41 15-95c0-55 18-99 73-99 29 0 47 12 58 34l2-30h48l-1 265h-49V-32C136-9 114 4 84 4zm21-34c32 0 41-29 41-66 0-36-9-64-40-64-33 0-39 30-40 65 0 43 13 65 39 65" id="ar"/><g id="i"><use transform="matrix(0.05,0,0,0.05,0,0)" xlink:href="#T"/><use transform="matrix(0.05,0,0,0.05,12.950000000000001,0)" xlink:href="#U"/><use transform="matrix(0.05,0,0,0.05,23.900000000000002,0)" xlink:href="#V"/><use transform="matrix(0.05,0,0,0.05,39.900000000000006,0)" xlink:href="#V"/><use transform="matrix(0.05,0,0,0.05,55.900000000000006,0)" xlink:href="#W"/><use transform="matrix(0.05,0,0,0.05,65.9,0)" xlink:href="#X"/><use transform="matrix(0.05,0,0,0.05,76.85000000000001,0)" xlink:href="#Y"/><use transform="matrix(0.05,0,0,0.05,87.80000000000001,0)" xlink:href="#aq"/><use transform="matrix(0.05,0,0,0.05,100.75000000000001,0)" xlink:href="#O"/><use transform="matrix(0.05,0,0,0.05,110.75,0)" xlink:href="#ar"/><use transform="matrix(0.05,0,0,0.05,121.7,0)" xlink:href="#R"/><use transform="matrix(0.05,0,0,0.05,132.65,0)" xlink:href="#O"/><use transform="matrix(0.05,0,0,0.05,142.65,0)" xlink:href="#N"/><use transform="matrix(0.05,0,0,0.05,152.65,0)" xlink:href="#af"/><use transform="matrix(0.05,0,0,0.05,158.6,0)" xlink:href="#O"/><use transform="matrix(0.05,0,0,0.05,168.6,0)" xlink:href="#Y"/><use transform="matrix(0.05,0,0,0.05,179.54999999999998,0)" xlink:href="#ap"/></g><path fill="#333" d="M199 0l-22-63H83L61 0H9l90-248h61L250 0h-51zm-33-102l-36-108c-10 38-24 72-36 108h72" id="as"/><path fill="#333" d="M195-6C206 82 75 100 31 46c-4-6-6-13-8-21l49-6c3 16 16 24 34 25 40 0 42-37 40-79-11 22-30 35-61 35-53 0-70-43-70-97 0-56 18-96 73-97 30 0 46 14 59 34l2-30h47zm-90-29c32 0 41-27 41-63 0-35-9-62-40-62-32 0-39 29-40 63 0 36 9 62 39 62" id="at"/><g id="j"><use transform="matrix(0.05,0,0,0.05,0,0)" xlink:href="#T"/><use transform="matrix(0.05,0,0,0.05,12.950000000000001,0)" xlink:href="#U"/><use transform="matrix(0.05,0,0,0.05,23.900000000000002,0)" xlink:href="#V"/><use transform="matrix(0.05,0,0,0.05,39.900000000000006,0)" xlink:href="#V"/><use transform="matrix(0.05,0,0,0.05,55.900000000000006,0)" xlink:href="#W"/><use transform="matrix(0.05,0,0,0.05,65.9,0)" xlink:href="#X"/><use transform="matrix(0.05,0,0,0.05,76.85000000000001,0)" xlink:href="#Y"/><use transform="matrix(0.05,0,0,0.05,87.80000000000001,0)" xlink:href="#as"/><use transform="matrix(0.05,0,0,0.05,100.75000000000001,0)" xlink:href="#N"/><use transform="matrix(0.05,0,0,0.05,110.75,0)" xlink:href="#N"/><use transform="matrix(0.05,0,0,0.05,120.75,0)" xlink:href="#ah"/><use transform="matrix(0.05,0,0,0.05,125.75,0)" xlink:href="#at"/><use transform="matrix(0.05,0,0,0.05,136.70000000000002,0)" xlink:href="#X"/><use transform="matrix(0.05,0,0,0.05,147.65,0)" xlink:href="#O"/><use transform="matrix(0.05,0,0,0.05,157.65,0)" xlink:href="#Y"/><use transform="matrix(0.05,0,0,0.05,168.6,0)" xlink:href="#ap"/></g><g id="k"><use transform="matrix(0.05,0,0,0.05,0,0)" xlink:href="#T"/><use transform="matrix(0.05,0,0,0.05,12.950000000000001,0)" xlink:href="#U"/><use transform="matrix(0.05,0,0,0.05,23.900000000000002,0)" xlink:href="#V"/><use transform="matrix(0.05,0,0,0.05,39.900000000000006,0)" xlink:href="#V"/><use transform="matrix(0.05,0,0,0.05,55.900000000000006,0)" xlink:href="#W"/><use transform="matrix(0.05,0,0,0.05,65.9,0)" xlink:href="#X"/><use transform="matrix(0.05,0,0,0.05,76.85000000000001,0)" xlink:href="#Y"/><use transform="matrix(0.05,0,0,0.05,87.80000000000001,0)" xlink:href="#as"/><use transform="matrix(0.05,0,0,0.05,100.75000000000001,0)" xlink:href="#ak"/><use transform="matrix(0.05,0,0,0.05,110.75,0)" xlink:href="#ak"/><use transform="matrix(0.05,0,0,0.05,120.75,0)" xlink:href="#O"/><use transform="matrix(0.05,0,0,0.05,130.75,0)" xlink:href="#an"/><use transform="matrix(0.05,0,0,0.05,141.7,0)" xlink:href="#af"/><use transform="matrix(0.05,0,0,0.05,147.64999999999998,0)" xlink:href="#O"/><use transform="matrix(0.05,0,0,0.05,157.64999999999998,0)" xlink:href="#Y"/><use transform="matrix(0.05,0,0,0.05,168.59999999999997,0)" xlink:href="#ap"/></g><path fill="#333" d="M144 0l-44-69L55 0H2l70-98-66-92h53l41 62 40-62h54l-67 91 71 99h-54" id="au"/><path fill="#333" d="M102-93c0 74-22 123-52 168H0C30 29 54-18 53-93c0-74-22-123-53-168h50c30 45 52 94 52 168" id="av"/><g id="l"><use transform="matrix(0.05,0,0,0.05,0,0)" xlink:href="#T"/><use transform="matrix(0.05,0,0,0.05,12.950000000000001,0)" xlink:href="#U"/><use transform="matrix(0.05,0,0,0.05,23.900000000000002,0)" xlink:href="#V"/><use transform="matrix(0.05,0,0,0.05,39.900000000000006,0)" xlink:href="#V"/><use transform="matrix(0.05,0,0,0.05,55.900000000000006,0)" xlink:href="#W"/><use transform="matrix(0.05,0,0,0.05,65.9,0)" xlink:href="#X"/><use transform="matrix(0.05,0,0,0.05,76.85000000000001,0)" xlink:href="#Y"/><use transform="matrix(0.05,0,0,0.05,87.80000000000001,0)" xlink:href="#ad"/><use transform="matrix(0.05,0,0,0.05,99.80000000000001,0)" xlink:href="#au"/><use transform="matrix(0.05,0,0,0.05,109.80000000000001,0)" xlink:href="#O"/><use transform="matrix(0.05,0,0,0.05,119.80000000000001,0)" xlink:href="#ak"/><use transform="matrix(0.05,0,0,0.05,129.8,0)" xlink:href="#R"/><use transform="matrix(0.05,0,0,0.05,140.75,0)" xlink:href="#af"/><use transform="matrix(0.05,0,0,0.05,146.7,0)" xlink:href="#O"/><use transform="matrix(0.05,0,0,0.05,156.7,0)" xlink:href="#Y"/><use transform="matrix(0.05,0,0,0.05,167.64999999999998,0)" xlink:href="#av"/><use transform="matrix(0.05,0,0,0.05,173.59999999999997,0)" xlink:href="#av"/></g><path fill="#333" d="M24 0v-54h51V0H24" id="aw"/><g id="m"><use transform="matrix(0.05,0,0,0.05,0,0)" xlink:href="#N"/><use transform="matrix(0.05,0,0,0.05,10,0)" xlink:href="#R"/><use transform="matrix(0.05,0,0,0.05,20.950000000000003,0)" xlink:href="#S"/><use transform="matrix(0.05,0,0,0.05,31.900000000000006,0)" xlink:href="#N"/><use transform="matrix(0.05,0,0,0.05,41.900000000000006,0)" xlink:href="#ak"/><use transform="matrix(0.05,0,0,0.05,51.900000000000006,0)" xlink:href="#P"/><use transform="matrix(0.05,0,0,0.05,58.900000000000006,0)" xlink:href="#ah"/><use transform="matrix(0.05,0,0,0.05,63.900000000000006,0)" xlink:href="#S"/><use transform="matrix(0.05,0,0,0.05,74.85000000000001,0)" xlink:href="#O"/><use transform="matrix(0.05,0,0,0.05,84.85000000000001,0)" xlink:href="#al"/><use transform="matrix(0.05,0,0,0.05,90.80000000000001,0)" xlink:href="#aw"/><use transform="matrix(0.05,0,0,0.05,95.80000000000001,0)" xlink:href="#aw"/><use transform="matrix(0.05,0,0,0.05,100.80000000000001,0)" xlink:href="#aw"/><use transform="matrix(0.05,0,0,0.05,105.80000000000001,0)" xlink:href="#av"/></g><g id="n"><use transform="matrix(0.05,0,0,0.05,0,0)" xlink:href="#Q"/><use transform="matrix(0.05,0,0,0.05,12,0)" xlink:href="#W"/><use transform="matrix(0.05,0,0,0.05,22,0)" xlink:href="#P"/></g><g id="o"><use transform="matrix(0.05,0,0,0.05,0,0)" xlink:href="#Y"/><use transform="matrix(0.05,0,0,0.05,10.950000000000001,0)" xlink:href="#ah"/><use transform="matrix(0.05,0,0,0.05,15.950000000000001,0)" xlink:href="#N"/><use transform="matrix(0.05,0,0,0.05,25.950000000000003,0)" xlink:href="#an"/><use transform="matrix(0.05,0,0,0.05,36.900000000000006,0)" xlink:href="#W"/><use transform="matrix(0.05,0,0,0.05,46.900000000000006,0)" xlink:href="#af"/><use transform="matrix(0.05,0,0,0.05,52.85,0)" xlink:href="#ak"/><use transform="matrix(0.05,0,0,0.05,62.85,0)" xlink:href="#ao"/><use transform="matrix(0.05,0,0,0.05,73.80000000000001,0)" xlink:href="#al"/><use transform="matrix(0.05,0,0,0.05,79.75000000000001,0)" xlink:href="#T"/><use transform="matrix(0.05,0,0,0.05,92.70000000000002,0)" xlink:href="#U"/><use transform="matrix(0.05,0,0,0.05,103.65000000000003,0)" xlink:href="#V"/><use transform="matrix(0.05,0,0,0.05,119.65000000000003,0)" xlink:href="#V"/><use transform="matrix(0.05,0,0,0.05,135.65000000000003,0)" xlink:href="#W"/><use transform="matrix(0.05,0,0,0.05,145.65000000000003,0)" xlink:href="#X"/><use transform="matrix(0.05,0,0,0.05,156.60000000000002,0)" xlink:href="#Y"/><use transform="matrix(0.05,0,0,0.05,167.55,0)" xlink:href="#av"/></g><g id="p"><use transform="matrix(0.05,0,0,0.05,0,0)" xlink:href="#an"/><use transform="matrix(0.05,0,0,0.05,10.950000000000001,0)" xlink:href="#R"/><use transform="matrix(0.05,0,0,0.05,21.900000000000002,0)" xlink:href="#S"/><use transform="matrix(0.05,0,0,0.05,32.85,0)" xlink:href="#ai"/><use transform="matrix(0.05,0,0,0.05,37.85,0)" xlink:href="#ah"/><use transform="matrix(0.05,0,0,0.05,42.85,0)" xlink:href="#N"/><use transform="matrix(0.05,0,0,0.05,52.85,0)" xlink:href="#ao"/><use transform="matrix(0.05,0,0,0.05,63.800000000000004,0)" xlink:href="#al"/><use transform="matrix(0.05,0,0,0.05,69.75,0)" xlink:href="#T"/><use transform="matrix(0.05,0,0,0.05,82.7,0)" xlink:href="#U"/><use transform="matrix(0.05,0,0,0.05,93.65,0)" xlink:href="#V"/><use transform="matrix(0.05,0,0,0.05,109.65,0)" xlink:href="#V"/><use transform="matrix(0.05,0,0,0.05,125.65,0)" xlink:href="#W"/><use transform="matrix(0.05,0,0,0.05,135.65,0)" xlink:href="#X"/><use transform="matrix(0.05,0,0,0.05,146.6,0)" xlink:href="#Y"/><use transform="matrix(0.05,0,0,0.05,157.54999999999998,0)" xlink:href="#am"/><use transform="matrix(0.05,0,0,0.05,170.49999999999997,0)" xlink:href="#ah"/><use transform="matrix(0.05,0,0,0.05,175.49999999999997,0)" xlink:href="#N"/><use transform="matrix(0.05,0,0,0.05,185.49999999999997,0)" xlink:href="#an"/><use transform="matrix(0.05,0,0,0.05,196.44999999999996,0)" xlink:href="#W"/><use transform="matrix(0.05,0,0,0.05,206.44999999999996,0)" xlink:href="#af"/><use transform="matrix(0.05,0,0,0.05,212.39999999999998,0)" xlink:href="#ak"/><use transform="matrix(0.05,0,0,0.05,222.39999999999998,0)" xlink:href="#ao"/><use transform="matrix(0.05,0,0,0.05,233.3499999999999,0)" xlink:href="#O"/><use transform="matrix(0.05,0,0,0.05,243.3499999999999,0)" xlink:href="#Y"/><use transform="matrix(0.05,0,0,0.05,254.29999999999993,0)" xlink:href="#av"/></g><g id="q"><use transform="matrix(0.05,0,0,0.05,0,0)" xlink:href="#am"/><use transform="matrix(0.05,0,0,0.05,12.950000000000001,0)" xlink:href="#ah"/><use transform="matrix(0.05,0,0,0.05,17.950000000000003,0)" xlink:href="#N"/><use transform="matrix(0.05,0,0,0.05,27.950000000000003,0)" xlink:href="#an"/><use transform="matrix(0.05,0,0,0.05,38.900000000000006,0)" xlink:href="#W"/><use transform="matrix(0.05,0,0,0.05,48.900000000000006,0)" xlink:href="#af"/><use transform="matrix(0.05,0,0,0.05,54.85,0)" xlink:href="#ak"/><use transform="matrix(0.05,0,0,0.05,64.85000000000001,0)" xlink:href="#ao"/></g><g id="r"><use transform="matrix(0.05,0,0,0.05,0,0)" xlink:href="#T"/><use transform="matrix(0.05,0,0,0.05,12.950000000000001,0)" xlink:href="#U"/><use transform="matrix(0.05,0,0,0.05,23.900000000000002,0)" xlink:href="#V"/><use transform="matrix(0.05,0,0,0.05,39.900000000000006,0)" xlink:href="#V"/><use transform="matrix(0.05,0,0,0.05,55.900000000000006,0)" xlink:href="#W"/><use transform="matrix(0.05,0,0,0.05,65.9,0)" xlink:href="#X"/><use transform="matrix(0.05,0,0,0.05,76.85000000000001,0)" xlink:href="#Y"/></g><g id="s"><use transform="matrix(0.05,0,0,0.05,0,0)" xlink:href="#N"/><use transform="matrix(0.05,0,0,0.05,10,0)" xlink:href="#O"/><use transform="matrix(0.05,0,0,0.05,20,0)" xlink:href="#X"/><use transform="matrix(0.05,0,0,0.05,30.950000000000003,0)" xlink:href="#Y"/><use transform="matrix(0.05,0,0,0.05,41.900000000000006,0)" xlink:href="#al"/><use transform="matrix(0.05,0,0,0.05,47.85000000000001,0)" xlink:href="#T"/><use transform="matrix(0.05,0,0,0.05,60.80000000000001,0)" xlink:href="#U"/><use transform="matrix(0.05,0,0,0.05,71.75000000000001,0)" xlink:href="#V"/><use transform="matrix(0.05,0,0,0.05,87.75000000000001,0)" xlink:href="#V"/><use transform="matrix(0.05,0,0,0.05,103.75,0)" xlink:href="#W"/><use transform="matrix(0.05,0,0,0.05,113.75,0)" xlink:href="#X"/><use transform="matrix(0.05,0,0,0.05,124.7,0)" xlink:href="#Y"/><use transform="matrix(0.05,0,0,0.05,135.65,0)" xlink:href="#am"/><use transform="matrix(0.05,0,0,0.05,148.6,0)" xlink:href="#ah"/><use transform="matrix(0.05,0,0,0.05,153.6,0)" xlink:href="#N"/><use transform="matrix(0.05,0,0,0.05,163.6,0)" xlink:href="#an"/><use transform="matrix(0.05,0,0,0.05,174.54999999999998,0)" xlink:href="#W"/><use transform="matrix(0.05,0,0,0.05,184.54999999999998,0)" xlink:href="#af"/><use transform="matrix(0.05,0,0,0.05,190.49999999999997,0)" xlink:href="#ak"/><use transform="matrix(0.05,0,0,0.05,200.49999999999997,0)" xlink:href="#ao"/><use transform="matrix(0.05,0,0,0.05,211.44999999999996,0)" xlink:href="#O"/><use transform="matrix(0.05,0,0,0.05,221.44999999999996,0)" xlink:href="#Y"/><use transform="matrix(0.05,0,0,0.05,232.39999999999998,0)" xlink:href="#av"/></g><g id="t"><use transform="matrix(0.05,0,0,0.05,0,0)" xlink:href="#an"/><use transform="matrix(0.05,0,0,0.05,10.950000000000001,0)" xlink:href="#R"/><use transform="matrix(0.05,0,0,0.05,21.900000000000002,0)" xlink:href="#S"/><use transform="matrix(0.05,0,0,0.05,32.85,0)" xlink:href="#ai"/><use transform="matrix(0.05,0,0,0.05,37.85,0)" xlink:href="#ah"/><use transform="matrix(0.05,0,0,0.05,42.85,0)" xlink:href="#N"/><use transform="matrix(0.05,0,0,0.05,52.85,0)" xlink:href="#ao"/><use transform="matrix(0.05,0,0,0.05,63.800000000000004,0)" xlink:href="#al"/><use transform="matrix(0.05,0,0,0.05,69.75,0)" xlink:href="#T"/><use transform="matrix(0.05,0,0,0.05,82.7,0)" xlink:href="#U"/><use transform="matrix(0.05,0,0,0.05,93.65,0)" xlink:href="#V"/><use transform="matrix(0.05,0,0,0.05,109.65,0)" xlink:href="#V"/><use transform="matrix(0.05,0,0,0.05,125.65,0)" xlink:href="#W"/><use transform="matrix(0.05,0,0,0.05,135.65,0)" xlink:href="#X"/><use transform="matrix(0.05,0,0,0.05,146.6,0)" xlink:href="#Y"/><use transform="matrix(0.05,0,0,0.05,157.54999999999998,0)" xlink:href="#aq"/><use transform="matrix(0.05,0,0,0.05,170.49999999999997,0)" xlink:href="#O"/><use transform="matrix(0.05,0,0,0.05,180.49999999999997,0)" xlink:href="#ar"/><use transform="matrix(0.05,0,0,0.05,191.44999999999996,0)" xlink:href="#R"/><use transform="matrix(0.05,0,0,0.05,202.39999999999995,0)" xlink:href="#O"/><use transform="matrix(0.05,0,0,0.05,212.39999999999998,0)" xlink:href="#N"/><use transform="matrix(0.05,0,0,0.05,222.39999999999998,0)" xlink:href="#af"/><use transform="matrix(0.05,0,0,0.05,228.3499999999999,0)" xlink:href="#O"/><use transform="matrix(0.05,0,0,0.05,238.3499999999999,0)" xlink:href="#Y"/><use transform="matrix(0.05,0,0,0.05,249.29999999999993,0)" xlink:href="#av"/></g><g id="u"><use transform="matrix(0.05,0,0,0.05,0,0)" xlink:href="#N"/><use transform="matrix(0.05,0,0,0.05,10,0)" xlink:href="#O"/><use transform="matrix(0.05,0,0,0.05,20,0)" xlink:href="#X"/><use transform="matrix(0.05,0,0,0.05,30.950000000000003,0)" xlink:href="#Y"/><use transform="matrix(0.05,0,0,0.05,41.900000000000006,0)" xlink:href="#al"/><use transform="matrix(0.05,0,0,0.05,47.85000000000001,0)" xlink:href="#T"/><use transform="matrix(0.05,0,0,0.05,60.80000000000001,0)" xlink:href="#U"/><use transform="matrix(0.05,0,0,0.05,71.75000000000001,0)" xlink:href="#V"/><use transform="matrix(0.05,0,0,0.05,87.75000000000001,0)" xlink:href="#V"/><use transform="matrix(0.05,0,0,0.05,103.75,0)" xlink:href="#W"/><use transform="matrix(0.05,0,0,0.05,113.75,0)" xlink:href="#X"/><use transform="matrix(0.05,0,0,0.05,124.7,0)" xlink:href="#Y"/><use transform="matrix(0.05,0,0,0.05,135.65,0)" xlink:href="#aq"/><use transform="matrix(0.05,0,0,0.05,148.6,0)" xlink:href="#O"/><use transform="matrix(0.05,0,0,0.05,158.6,0)" xlink:href="#ar"/><use transform="matrix(0.05,0,0,0.05,169.54999999999998,0)" xlink:href="#R"/><use transform="matrix(0.05,0,0,0.05,180.49999999999997,0)" xlink:href="#O"/><use transform="matrix(0.05,0,0,0.05,190.49999999999997,0)" xlink:href="#N"/><use transform="matrix(0.05,0,0,0.05,200.49999999999997,0)" xlink:href="#af"/><use transform="matrix(0.05,0,0,0.05,206.44999999999996,0)" xlink:href="#O"/><use transform="matrix(0.05,0,0,0.05,216.44999999999996,0)" xlink:href="#Y"/><use transform="matrix(0.05,0,0,0.05,227.39999999999998,0)" xlink:href="#al"/><use transform="matrix(0.05,0,0,0.05,233.3499999999999,0)" xlink:href="#aa"/><use transform="matrix(0.05,0,0,0.05,245.3499999999999,0)" xlink:href="#R"/><use transform="matrix(0.05,0,0,0.05,256.29999999999995,0)" xlink:href="#S"/><use transform="matrix(0.05,0,0,0.05,267.24999999999994,0)" xlink:href="#T"/><use transform="matrix(0.05,0,0,0.05,280.19999999999993,0)" xlink:href="#U"/><use transform="matrix(0.05,0,0,0.05,291.1499999999999,0)" xlink:href="#V"/><use transform="matrix(0.05,0,0,0.05,307.1499999999999,0)" xlink:href="#V"/><use transform="matrix(0.05,0,0,0.05,323.1499999999999,0)" xlink:href="#W"/><use transform="matrix(0.05,0,0,0.05,333.1499999999999,0)" xlink:href="#X"/><use transform="matrix(0.05,0,0,0.05,344.0999999999999,0)" xlink:href="#Y"/><use transform="matrix(0.05,0,0,0.05,355.0499999999999,0)" xlink:href="#Z"/><use transform="matrix(0.05,0,0,0.05,367.9999999999999,0)" xlink:href="#R"/><use transform="matrix(0.05,0,0,0.05,378.9499999999999,0)" xlink:href="#N"/><use transform="matrix(0.05,0,0,0.05,388.9499999999999,0)" xlink:href="#ac"/><use transform="matrix(0.05,0,0,0.05,398.9499999999999,0)" xlink:href="#av"/><use transform="matrix(0.05,0,0,0.05,404.89999999999986,0)" xlink:href="#av"/></g><g id="v"><use transform="matrix(0.05,0,0,0.05,0,0)" xlink:href="#N"/><use transform="matrix(0.05,0,0,0.05,10,0)" xlink:href="#O"/><use transform="matrix(0.05,0,0,0.05,20,0)" xlink:href="#X"/><use transform="matrix(0.05,0,0,0.05,30.950000000000003,0)" xlink:href="#Y"/><use transform="matrix(0.05,0,0,0.05,41.900000000000006,0)" xlink:href="#al"/><use transform="matrix(0.05,0,0,0.05,47.85000000000001,0)" xlink:href="#T"/><use transform="matrix(0.05,0,0,0.05,60.80000000000001,0)" xlink:href="#U"/><use transform="matrix(0.05,0,0,0.05,71.75000000000001,0)" xlink:href="#V"/><use transform="matrix(0.05,0,0,0.05,87.75000000000001,0)" xlink:href="#V"/><use transform="matrix(0.05,0,0,0.05,103.75,0)" xlink:href="#W"/><use transform="matrix(0.05,0,0,0.05,113.75,0)" xlink:href="#X"/><use transform="matrix(0.05,0,0,0.05,124.7,0)" xlink:href="#Y"/><use transform="matrix(0.05,0,0,0.05,135.65,0)" xlink:href="#aq"/><use transform="matrix(0.05,0,0,0.05,148.6,0)" xlink:href="#O"/><use transform="matrix(0.05,0,0,0.05,158.6,0)" xlink:href="#ar"/><use transform="matrix(0.05,0,0,0.05,169.54999999999998,0)" xlink:href="#R"/><use transform="matrix(0.05,0,0,0.05,180.49999999999997,0)" xlink:href="#O"/><use transform="matrix(0.05,0,0,0.05,190.49999999999997,0)" xlink:href="#N"/><use transform="matrix(0.05,0,0,0.05,200.49999999999997,0)" xlink:href="#af"/><use transform="matrix(0.05,0,0,0.05,206.44999999999996,0)" xlink:href="#O"/><use transform="matrix(0.05,0,0,0.05,216.44999999999996,0)" xlink:href="#Y"/><use transform="matrix(0.05,0,0,0.05,227.39999999999998,0)" xlink:href="#al"/><use transform="matrix(0.05,0,0,0.05,233.3499999999999,0)" xlink:href="#aa"/><use transform="matrix(0.05,0,0,0.05,245.3499999999999,0)" xlink:href="#R"/><use transform="matrix(0.05,0,0,0.05,256.29999999999995,0)" xlink:href="#S"/><use transform="matrix(0.05,0,0,0.05,267.24999999999994,0)" xlink:href="#T"/><use transform="matrix(0.05,0,0,0.05,280.19999999999993,0)" xlink:href="#U"/><use transform="matrix(0.05,0,0,0.05,291.1499999999999,0)" xlink:href="#V"/><use transform="matrix(0.05,0,0,0.05,307.1499999999999,0)" xlink:href="#V"/><use transform="matrix(0.05,0,0,0.05,323.1499999999999,0)" xlink:href="#W"/><use transform="matrix(0.05,0,0,0.05,333.1499999999999,0)" xlink:href="#X"/><use transform="matrix(0.05,0,0,0.05,344.0999999999999,0)" xlink:href="#Y"/><use transform="matrix(0.05,0,0,0.05,355.0499999999999,0)" xlink:href="#Z"/><use transform="matrix(0.05,0,0,0.05,367.9999999999999,0)" xlink:href="#R"/><use transform="matrix(0.05,0,0,0.05,378.9499999999999,0)" xlink:href="#N"/><use transform="matrix(0.05,0,0,0.05,388.9499999999999,0)" xlink:href="#ab"/><use transform="matrix(0.05,0,0,0.05,398.9499999999999,0)" xlink:href="#av"/><use transform="matrix(0.05,0,0,0.05,404.89999999999986,0)" xlink:href="#av"/></g><path fill="#333" d="M186 0v-106H76V0H24v-248h52v99h110v-99h50V0h-50" id="ax"/><g id="w"><use transform="matrix(0.05,0,0,0.05,0,0)" xlink:href="#W"/><use transform="matrix(0.05,0,0,0.05,10,0)" xlink:href="#N"/><use transform="matrix(0.05,0,0,0.05,20,0)" xlink:href="#N"/><use transform="matrix(0.05,0,0,0.05,30,0)" xlink:href="#ah"/><use transform="matrix(0.05,0,0,0.05,35,0)" xlink:href="#at"/><use transform="matrix(0.05,0,0,0.05,45.95,0)" xlink:href="#X"/><use transform="matrix(0.05,0,0,0.05,56.900000000000006,0)" xlink:href="#ax"/><use transform="matrix(0.05,0,0,0.05,69.85000000000001,0)" xlink:href="#W"/><use transform="matrix(0.05,0,0,0.05,79.85000000000001,0)" xlink:href="#X"/><use transform="matrix(0.05,0,0,0.05,90.80000000000001,0)" xlink:href="#Y"/><use transform="matrix(0.05,0,0,0.05,101.75000000000001,0)" xlink:href="#ai"/><use transform="matrix(0.05,0,0,0.05,106.75,0)" xlink:href="#O"/><use transform="matrix(0.05,0,0,0.05,116.75,0)" xlink:href="#P"/><use transform="matrix(0.05,0,0,0.05,123.75,0)" xlink:href="#al"/><use transform="matrix(0.05,0,0,0.05,129.70000000000002,0)" xlink:href="#av"/></g><path fill="#333" d="M86-200l42-18 12 35-44 11 32 37-32 21-26-44-26 44-32-21 33-37-44-11 12-35 42 18-3-48h38" id="ay"/><g id="x"><use transform="matrix(0.05,0,0,0.05,0,0)" xlink:href="#ay"/><use transform="matrix(0.05,0,0,0.05,7,0)" xlink:href="#W"/><use transform="matrix(0.05,0,0,0.05,17,0)" xlink:href="#N"/><use transform="matrix(0.05,0,0,0.05,27,0)" xlink:href="#N"/><use transform="matrix(0.05,0,0,0.05,37,0)" xlink:href="#ah"/><use transform="matrix(0.05,0,0,0.05,42,0)" xlink:href="#at"/><use transform="matrix(0.05,0,0,0.05,52.95,0)" xlink:href="#X"/><use transform="matrix(0.05,0,0,0.05,63.900000000000006,0)" xlink:href="#O"/><use transform="matrix(0.05,0,0,0.05,73.9,0)" xlink:href="#Y"/></g><g id="y"><use transform="matrix(0.05,0,0,0.05,0,0)" xlink:href="#af"/><use transform="matrix(0.05,0,0,0.05,5.95,0)" xlink:href="#U"/></g><g id="z"><use transform="matrix(0.05,0,0,0.05,0,0)" xlink:href="#aa"/><use transform="matrix(0.05,0,0,0.05,12,0)" xlink:href="#R"/><use transform="matrix(0.05,0,0,0.05,22.950000000000003,0)" xlink:href="#S"/><use transform="matrix(0.05,0,0,0.05,33.900000000000006,0)" xlink:href="#T"/><use transform="matrix(0.05,0,0,0.05,46.85000000000001,0)" xlink:href="#U"/><use transform="matrix(0.05,0,0,0.05,57.80000000000001,0)" xlink:href="#V"/><use transform="matrix(0.05,0,0,0.05,73.80000000000001,0)" xlink:href="#V"/><use transform="matrix(0.05,0,0,0.05,89.80000000000001,0)" xlink:href="#W"/><use transform="matrix(0.05,0,0,0.05,99.80000000000001,0)" xlink:href="#X"/><use transform="matrix(0.05,0,0,0.05,110.75,0)" xlink:href="#Y"/><use transform="matrix(0.05,0,0,0.05,121.7,0)" xlink:href="#Z"/><use transform="matrix(0.05,0,0,0.05,134.65,0)" xlink:href="#R"/><use transform="matrix(0.05,0,0,0.05,145.6,0)" xlink:href="#N"/><use transform="matrix(0.05,0,0,0.05,155.6,0)" xlink:href="#ac"/><use transform="matrix(0.05,0,0,0.05,165.6,0)" xlink:href="#ay"/></g><g id="A"><use transform="matrix(0.05,0,0,0.05,0,0)" xlink:href="#an"/><use transform="matrix(0.05,0,0,0.05,10.950000000000001,0)" xlink:href="#R"/><use transform="matrix(0.05,0,0,0.05,21.900000000000002,0)" xlink:href="#S"/><use transform="matrix(0.05,0,0,0.05,32.85,0)" xlink:href="#ai"/><use transform="matrix(0.05,0,0,0.05,37.85,0)" xlink:href="#ah"/><use transform="matrix(0.05,0,0,0.05,42.85,0)" xlink:href="#N"/><use transform="matrix(0.05,0,0,0.05,52.85,0)" xlink:href="#ao"/><use transform="matrix(0.05,0,0,0.05,63.800000000000004,0)" xlink:href="#al"/><use transform="matrix(0.05,0,0,0.05,69.75,0)" xlink:href="#T"/><use transform="matrix(0.05,0,0,0.05,82.7,0)" xlink:href="#U"/><use transform="matrix(0.05,0,0,0.05,93.65,0)" xlink:href="#V"/><use transform="matrix(0.05,0,0,0.05,109.65,0)" xlink:href="#V"/><use transform="matrix(0.05,0,0,0.05,125.65,0)" xlink:href="#W"/><use transform="matrix(0.05,0,0,0.05,135.65,0)" xlink:href="#X"/><use transform="matrix(0.05,0,0,0.05,146.6,0)" xlink:href="#Y"/><use transform="matrix(0.05,0,0,0.05,157.54999999999998,0)" xlink:href="#as"/><use transform="matrix(0.05,0,0,0.05,170.49999999999997,0)" xlink:href="#N"/><use transform="matrix(0.05,0,0,0.05,180.49999999999997,0)" xlink:href="#N"/><use transform="matrix(0.05,0,0,0.05,190.49999999999997,0)" xlink:href="#ah"/><use transform="matrix(0.05,0,0,0.05,195.49999999999997,0)" xlink:href="#at"/><use transform="matrix(0.05,0,0,0.05,206.44999999999996,0)" xlink:href="#X"/><use transform="matrix(0.05,0,0,0.05,217.39999999999998,0)" xlink:href="#O"/><use transform="matrix(0.05,0,0,0.05,227.39999999999998,0)" xlink:href="#Y"/><use transform="matrix(0.05,0,0,0.05,238.3499999999999,0)" xlink:href="#al"/><use transform="matrix(0.05,0,0,0.05,244.29999999999993,0)" xlink:href="#aa"/><use transform="matrix(0.05,0,0,0.05,256.29999999999995,0)" xlink:href="#R"/><use transform="matrix(0.05,0,0,0.05,267.24999999999994,0)" xlink:href="#S"/><use transform="matrix(0.05,0,0,0.05,278.19999999999993,0)" xlink:href="#T"/><use transform="matrix(0.05,0,0,0.05,291.1499999999999,0)" xlink:href="#U"/><use transform="matrix(0.05,0,0,0.05,302.0999999999999,0)" xlink:href="#V"/><use transform="matrix(0.05,0,0,0.05,318.0999999999999,0)" xlink:href="#V"/><use transform="matrix(0.05,0,0,0.05,334.0999999999999,0)" xlink:href="#W"/><use transform="matrix(0.05,0,0,0.05,344.0999999999999,0)" xlink:href="#X"/><use transform="matrix(0.05,0,0,0.05,355.0499999999999,0)" xlink:href="#Y"/><use transform="matrix(0.05,0,0,0.05,365.9999999999999,0)" xlink:href="#Z"/><use transform="matrix(0.05,0,0,0.05,378.9499999999999,0)" xlink:href="#R"/><use transform="matrix(0.05,0,0,0.05,389.89999999999986,0)" xlink:href="#N"/><use transform="matrix(0.05,0,0,0.05,399.89999999999986,0)" xlink:href="#ac"/><use transform="matrix(0.05,0,0,0.05,409.89999999999986,0)" xlink:href="#av"/><use transform="matrix(0.05,0,0,0.05,415.84999999999985,0)" xlink:href="#av"/></g><g id="B"><use transform="matrix(0.05,0,0,0.05,0,0)" xlink:href="#N"/><use transform="matrix(0.05,0,0,0.05,10,0)" xlink:href="#O"/><use transform="matrix(0.05,0,0,0.05,20,0)" xlink:href="#X"/><use transform="matrix(0.05,0,0,0.05,30.950000000000003,0)" xlink:href="#Y"/><use transform="matrix(0.05,0,0,0.05,41.900000000000006,0)" xlink:href="#al"/><use transform="matrix(0.05,0,0,0.05,47.85000000000001,0)" xlink:href="#T"/><use transform="matrix(0.05,0,0,0.05,60.80000000000001,0)" xlink:href="#U"/><use transform="matrix(0.05,0,0,0.05,71.75000000000001,0)" xlink:href="#V"/><use transform="matrix(0.05,0,0,0.05,87.75000000000001,0)" xlink:href="#V"/><use transform="matrix(0.05,0,0,0.05,103.75,0)" xlink:href="#W"/><use transform="matrix(0.05,0,0,0.05,113.75,0)" xlink:href="#X"/><use transform="matrix(0.05,0,0,0.05,124.7,0)" xlink:href="#Y"/><use transform="matrix(0.05,0,0,0.05,135.65,0)" xlink:href="#as"/><use transform="matrix(0.05,0,0,0.05,148.6,0)" xlink:href="#N"/><use transform="matrix(0.05,0,0,0.05,158.6,0)" xlink:href="#N"/><use transform="matrix(0.05,0,0,0.05,168.6,0)" xlink:href="#ah"/><use transform="matrix(0.05,0,0,0.05,173.6,0)" xlink:href="#at"/><use transform="matrix(0.05,0,0,0.05,184.54999999999998,0)" xlink:href="#X"/><use transform="matrix(0.05,0,0,0.05,195.49999999999997,0)" xlink:href="#O"/><use transform="matrix(0.05,0,0,0.05,205.49999999999997,0)" xlink:href="#Y"/><use transform="matrix(0.05,0,0,0.05,216.44999999999996,0)" xlink:href="#al"/><use transform="matrix(0.05,0,0,0.05,222.39999999999998,0)" xlink:href="#aa"/><use transform="matrix(0.05,0,0,0.05,234.39999999999998,0)" xlink:href="#R"/><use transform="matrix(0.05,0,0,0.05,245.3499999999999,0)" xlink:href="#S"/><use transform="matrix(0.05,0,0,0.05,256.29999999999995,0)" xlink:href="#T"/><use transform="matrix(0.05,0,0,0.05,269.24999999999994,0)" xlink:href="#U"/><use transform="matrix(0.05,0,0,0.05,280.19999999999993,0)" xlink:href="#V"/><use transform="matrix(0.05,0,0,0.05,296.19999999999993,0)" xlink:href="#V"/><use transform="matrix(0.05,0,0,0.05,312.19999999999993,0)" xlink:href="#W"/><use transform="matrix(0.05,0,0,0.05,322.19999999999993,0)" xlink:href="#X"/><use transform="matrix(0.05,0,0,0.05,333.1499999999999,0)" xlink:href="#Y"/><use transform="matrix(0.05,0,0,0.05,344.0999999999999,0)" xlink:href="#Z"/><use transform="matrix(0.05,0,0,0.05,357.0499999999999,0)" xlink:href="#R"/><use transform="matrix(0.05,0,0,0.05,367.9999999999999,0)" xlink:href="#N"/><use transform="matrix(0.05,0,0,0.05,377.9999999999999,0)" xlink:href="#ac"/><use transform="matrix(0.05,0,0,0.05,387.9999999999999,0)" xlink:href="#av"/><use transform="matrix(0.05,0,0,0.05,393.9499999999999,0)" xlink:href="#av"/></g><g id="C"><use transform="matrix(0.05,0,0,0.05,0,0)" xlink:href="#N"/><use transform="matrix(0.05,0,0,0.05,10,0)" xlink:href="#O"/><use transform="matrix(0.05,0,0,0.05,20,0)" xlink:href="#X"/><use transform="matrix(0.05,0,0,0.05,30.950000000000003,0)" xlink:href="#Y"/><use transform="matrix(0.05,0,0,0.05,41.900000000000006,0)" xlink:href="#al"/><use transform="matrix(0.05,0,0,0.05,47.85000000000001,0)" xlink:href="#T"/><use transform="matrix(0.05,0,0,0.05,60.80000000000001,0)" xlink:href="#U"/><use transform="matrix(0.05,0,0,0.05,71.75000000000001,0)" xlink:href="#V"/><use transform="matrix(0.05,0,0,0.05,87.75000000000001,0)" xlink:href="#V"/><use transform="matrix(0.05,0,0,0.05,103.75,0)" xlink:href="#W"/><use transform="matrix(0.05,0,0,0.05,113.75,0)" xlink:href="#X"/><use transform="matrix(0.05,0,0,0.05,124.7,0)" xlink:href="#Y"/><use transform="matrix(0.05,0,0,0.05,135.65,0)" xlink:href="#as"/><use transform="matrix(0.05,0,0,0.05,148.6,0)" xlink:href="#ak"/><use transform="matrix(0.05,0,0,0.05,158.6,0)" xlink:href="#ak"/><use transform="matrix(0.05,0,0,0.05,168.6,0)" xlink:href="#O"/><use transform="matrix(0.05,0,0,0.05,178.6,0)" xlink:href="#an"/><use transform="matrix(0.05,0,0,0.05,189.54999999999998,0)" xlink:href="#af"/><use transform="matrix(0.05,0,0,0.05,195.49999999999997,0)" xlink:href="#O"/><use transform="matrix(0.05,0,0,0.05,205.49999999999997,0)" xlink:href="#Y"/><use transform="matrix(0.05,0,0,0.05,216.44999999999996,0)" xlink:href="#av"/></g><g id="D"><use transform="matrix(0.05,0,0,0.05,0,0)" xlink:href="#an"/><use transform="matrix(0.05,0,0,0.05,10.950000000000001,0)" xlink:href="#R"/><use transform="matrix(0.05,0,0,0.05,21.900000000000002,0)" xlink:href="#S"/><use transform="matrix(0.05,0,0,0.05,32.85,0)" xlink:href="#ai"/><use transform="matrix(0.05,0,0,0.05,37.85,0)" xlink:href="#ah"/><use transform="matrix(0.05,0,0,0.05,42.85,0)" xlink:href="#N"/><use transform="matrix(0.05,0,0,0.05,52.85,0)" xlink:href="#ao"/><use transform="matrix(0.05,0,0,0.05,63.800000000000004,0)" xlink:href="#al"/><use transform="matrix(0.05,0,0,0.05,69.75,0)" xlink:href="#T"/><use transform="matrix(0.05,0,0,0.05,82.7,0)" xlink:href="#U"/><use transform="matrix(0.05,0,0,0.05,93.65,0)" xlink:href="#V"/><use transform="matrix(0.05,0,0,0.05,109.65,0)" xlink:href="#V"/><use transform="matrix(0.05,0,0,0.05,125.65,0)" xlink:href="#W"/><use transform="matrix(0.05,0,0,0.05,135.65,0)" xlink:href="#X"/><use transform="matrix(0.05,0,0,0.05,146.6,0)" xlink:href="#Y"/><use transform="matrix(0.05,0,0,0.05,157.54999999999998,0)" xlink:href="#as"/><use transform="matrix(0.05,0,0,0.05,170.49999999999997,0)" xlink:href="#ak"/><use transform="matrix(0.05,0,0,0.05,180.49999999999997,0)" xlink:href="#ak"/><use transform="matrix(0.05,0,0,0.05,190.49999999999997,0)" xlink:href="#O"/><use transform="matrix(0.05,0,0,0.05,200.49999999999997,0)" xlink:href="#an"/><use transform="matrix(0.05,0,0,0.05,211.44999999999996,0)" xlink:href="#af"/><use transform="matrix(0.05,0,0,0.05,217.39999999999998,0)" xlink:href="#O"/><use transform="matrix(0.05,0,0,0.05,227.39999999999998,0)" xlink:href="#Y"/><use transform="matrix(0.05,0,0,0.05,238.3499999999999,0)" xlink:href="#av"/></g><g id="E"><use transform="matrix(0.05,0,0,0.05,0,0)" xlink:href="#P"/><use transform="matrix(0.05,0,0,0.05,7,0)" xlink:href="#O"/><use transform="matrix(0.05,0,0,0.05,17,0)" xlink:href="#af"/><use transform="matrix(0.05,0,0,0.05,22.95,0)" xlink:href="#R"/><use transform="matrix(0.05,0,0,0.05,33.9,0)" xlink:href="#P"/><use transform="matrix(0.05,0,0,0.05,40.9,0)" xlink:href="#X"/></g><g id="F"><use transform="matrix(0.05,0,0,0.05,0,0)" xlink:href="#ao"/><use transform="matrix(0.05,0,0,0.05,10.950000000000001,0)" xlink:href="#W"/><use transform="matrix(0.05,0,0,0.05,20.950000000000003,0)" xlink:href="#X"/><use transform="matrix(0.05,0,0,0.05,31.900000000000006,0)" xlink:href="#Y"/><use transform="matrix(0.05,0,0,0.05,42.85000000000001,0)" xlink:href="#ai"/><use transform="matrix(0.05,0,0,0.05,47.85000000000001,0)" xlink:href="#O"/><use transform="matrix(0.05,0,0,0.05,57.85,0)" xlink:href="#al"/><use transform="matrix(0.05,0,0,0.05,63.80000000000001,0)" xlink:href="#T"/><use transform="matrix(0.05,0,0,0.05,76.75000000000001,0)" xlink:href="#U"/><use transform="matrix(0.05,0,0,0.05,87.70000000000002,0)" xlink:href="#V"/><use transform="matrix(0.05,0,0,0.05,103.7,0)" xlink:href="#V"/><use transform="matrix(0.05,0,0,0.05,119.7,0)" xlink:href="#W"/><use transform="matrix(0.05,0,0,0.05,129.70000000000002,0)" xlink:href="#X"/><use transform="matrix(0.05,0,0,0.05,140.65,0)" xlink:href="#Y"/><use transform="matrix(0.05,0,0,0.05,151.6,0)" xlink:href="#av"/></g><g id="G"><use transform="matrix(0.05,0,0,0.05,0,0)" xlink:href="#an"/><use transform="matrix(0.05,0,0,0.05,10.950000000000001,0)" xlink:href="#R"/><use transform="matrix(0.05,0,0,0.05,21.900000000000002,0)" xlink:href="#S"/><use transform="matrix(0.05,0,0,0.05,32.85,0)" xlink:href="#ai"/><use transform="matrix(0.05,0,0,0.05,37.85,0)" xlink:href="#ah"/><use transform="matrix(0.05,0,0,0.05,42.85,0)" xlink:href="#N"/><use transform="matrix(0.05,0,0,0.05,52.85,0)" xlink:href="#ao"/><use transform="matrix(0.05,0,0,0.05,63.800000000000004,0)" xlink:href="#al"/><use transform="matrix(0.05,0,0,0.05,69.75,0)" xlink:href="#T"/><use transform="matrix(0.05,0,0,0.05,82.7,0)" xlink:href="#U"/><use transform="matrix(0.05,0,0,0.05,93.65,0)" xlink:href="#V"/><use transform="matrix(0.05,0,0,0.05,109.65,0)" xlink:href="#V"/><use transform="matrix(0.05,0,0,0.05,125.65,0)" xlink:href="#W"/><use transform="matrix(0.05,0,0,0.05,135.65,0)" xlink:href="#X"/><use transform="matrix(0.05,0,0,0.05,146.6,0)" xlink:href="#Y"/><use transform="matrix(0.05,0,0,0.05,157.54999999999998,0)" xlink:href="#ad"/><use transform="matrix(0.05,0,0,0.05,169.54999999999998,0)" xlink:href="#au"/><use transform="matrix(0.05,0,0,0.05,179.54999999999998,0)" xlink:href="#O"/><use transform="matrix(0.05,0,0,0.05,189.54999999999998,0)" xlink:href="#ak"/><use transform="matrix(0.05,0,0,0.05,199.54999999999998,0)" xlink:href="#R"/><use transform="matrix(0.05,0,0,0.05,210.49999999999997,0)" xlink:href="#af"/><use transform="matrix(0.05,0,0,0.05,216.44999999999996,0)" xlink:href="#O"/><use transform="matrix(0.05,0,0,0.05,226.44999999999996,0)" xlink:href="#Y"/><use transform="matrix(0.05,0,0,0.05,237.39999999999998,0)" xlink:href="#av"/></g><g id="H"><use transform="matrix(0.05,0,0,0.05,0,0)" xlink:href="#N"/><use transform="matrix(0.05,0,0,0.05,10,0)" xlink:href="#O"/><use transform="matrix(0.05,0,0,0.05,20,0)" xlink:href="#X"/><use transform="matrix(0.05,0,0,0.05,30.950000000000003,0)" xlink:href="#Y"/><use transform="matrix(0.05,0,0,0.05,41.900000000000006,0)" xlink:href="#al"/><use transform="matrix(0.05,0,0,0.05,47.85000000000001,0)" xlink:href="#T"/><use transform="matrix(0.05,0,0,0.05,60.80000000000001,0)" xlink:href="#U"/><use transform="matrix(0.05,0,0,0.05,71.75000000000001,0)" xlink:href="#V"/><use transform="matrix(0.05,0,0,0.05,87.75000000000001,0)" xlink:href="#V"/><use transform="matrix(0.05,0,0,0.05,103.75,0)" xlink:href="#W"/><use transform="matrix(0.05,0,0,0.05,113.75,0)" xlink:href="#X"/><use transform="matrix(0.05,0,0,0.05,124.7,0)" xlink:href="#Y"/><use transform="matrix(0.05,0,0,0.05,135.65,0)" xlink:href="#ad"/><use transform="matrix(0.05,0,0,0.05,147.65,0)" xlink:href="#au"/><use transform="matrix(0.05,0,0,0.05,157.65,0)" xlink:href="#O"/><use transform="matrix(0.05,0,0,0.05,167.65,0)" xlink:href="#ak"/><use transform="matrix(0.05,0,0,0.05,177.65,0)" xlink:href="#R"/><use transform="matrix(0.05,0,0,0.05,188.6,0)" xlink:href="#af"/><use transform="matrix(0.05,0,0,0.05,194.54999999999998,0)" xlink:href="#O"/><use transform="matrix(0.05,0,0,0.05,204.54999999999998,0)" xlink:href="#Y"/><use transform="matrix(0.05,0,0,0.05,215.49999999999997,0)" xlink:href="#av"/></g><path fill="#333" d="M140-251c80 0 125 45 125 126S219 4 139 4C58 4 15-44 15-125s44-126 125-126zm-1 214c52 0 73-35 73-88 0-50-21-86-72-86-52 0-73 35-73 86s22 88 72 88" id="az"/><g id="I"><use transform="matrix(0.05,0,0,0.05,0,0)" xlink:href="#az"/><use transform="matrix(0.05,0,0,0.05,14,0)" xlink:href="#an"/><use transform="matrix(0.05,0,0,0.05,24.950000000000003,0)" xlink:href="#af"/></g><path fill="#333" d="M20 75v-336h95v34H67V41h48v34H20" id="aA"/><g id="J"><use transform="matrix(0.05,0,0,0.05,0,0)" xlink:href="#aA"/><use transform="matrix(0.05,0,0,0.05,5.95,0)" xlink:href="#aq"/><use transform="matrix(0.05,0,0,0.05,18.900000000000002,0)" xlink:href="#O"/><use transform="matrix(0.05,0,0,0.05,28.900000000000002,0)" xlink:href="#an"/><use transform="matrix(0.05,0,0,0.05,39.85,0)" xlink:href="#U"/><use transform="matrix(0.05,0,0,0.05,50.800000000000004,0)" xlink:href="#P"/><use transform="matrix(0.05,0,0,0.05,57.800000000000004,0)" xlink:href="#af"/></g><path fill="#333" d="M4 75V41h49v-268H4v-34h96V75H4" id="aB"/><g id="K"><use transform="matrix(0.05,0,0,0.05,0,0)" xlink:href="#P"/><use transform="matrix(0.05,0,0,0.05,7,0)" xlink:href="#O"/><use transform="matrix(0.05,0,0,0.05,17,0)" xlink:href="#N"/><use transform="matrix(0.05,0,0,0.05,27,0)" xlink:href="#R"/><use transform="matrix(0.05,0,0,0.05,37.95,0)" xlink:href="#ai"/><use transform="matrix(0.05,0,0,0.05,42.95,0)" xlink:href="#af"/><use transform="matrix(0.05,0,0,0.05,48.900000000000006,0)" xlink:href="#aB"/></g><g id="L"><use transform="matrix(0.05,0,0,0.05,0,0)" xlink:href="#P"/><use transform="matrix(0.05,0,0,0.05,7,0)" xlink:href="#O"/><use transform="matrix(0.05,0,0,0.05,17,0)" xlink:href="#an"/><use transform="matrix(0.05,0,0,0.05,27.950000000000003,0)" xlink:href="#U"/><use transform="matrix(0.05,0,0,0.05,38.900000000000006,0)" xlink:href="#P"/><use transform="matrix(0.05,0,0,0.05,45.900000000000006,0)" xlink:href="#af"/><use transform="matrix(0.05,0,0,0.05,51.85,0)" xlink:href="#aq"/><use transform="matrix(0.05,0,0,0.05,64.80000000000001,0)" xlink:href="#O"/><use transform="matrix(0.05,0,0,0.05,74.80000000000001,0)" xlink:href="#N"/><use transform="matrix(0.05,0,0,0.05,84.80000000000001,0)" xlink:href="#R"/><use transform="matrix(0.05,0,0,0.05,95.75000000000001,0)" xlink:href="#ai"/><use transform="matrix(0.05,0,0,0.05,100.75000000000001,0)" xlink:href="#af"/><use transform="matrix(0.05,0,0,0.05,106.7,0)" xlink:href="#al"/><use transform="matrix(0.05,0,0,0.05,112.65000000000003,0)" xlink:href="#av"/></g></defs></g></svg>