<svg xmlns="http://www.w3.org/2000/svg" xmlns:xlink="http://www.w3.org/1999/xlink" xmlns:lucid="lucid" width="1254.2" height="1280"><g transform="translate(-80 -80)" lucid:page-tab-id="Xk1~scuvRjo1"><path d="M100 108c0-4.42 3.58-8 8-8h104c4.42 0 8 3.58 8 8v84c0 4.42-3.58 8-8 8H108c-4.42 0-8-3.58-8-8z" stroke="#000" stroke-width="2" fill="#99d5ca"/><use xlink:href="#a" transform="matrix(1,0,0,1,100,100) translate(44.962098765432096 51.46944444444445)"/><path d="M160 201.5v5m0 5.02v10.02m0 5v10.03m0 5v10.03m0 5v10.03m0 5v10.02m0 5v10.03m0 5v10.03m0 5.02v10.02m0 5v10.03m0 5v10.03m0 5v10.03m0 5v10.03m0 5v10.03m0 5v10.02m0 5v10.02m0 5v10.03m0 5V462m0 5v10.03m0 5v10.03m0 5v10.03m0 5v10.02m0 5v10.03m0 5v10.03m0 5v10.03m0 5v10.03m0 5v10.03m0 5v10.03m0 5v10.02m0 5v10.03m0 5v10.03m0 5v10.03m0 5.02v10.02m0 5v10.03m0 5v10.03m0 5v10.02m0 5v10.03m0 5v10.03m0 5v10.03m0 5.02v10.02m0 5v10.03m0 5v10.03m0 5v10.03m0 5v10.03m0 5v10.03m0 5v10m0 5.02v10.02m0 5v10.03m0 5v10.03m0 5v10.03m0 5v10.03m0 5V973m0 5v10.02m0 5v10.03m0 5v10.02m0 5v10.03m0 5v10.03m0 5v10.03m0 5v10.03m0 5v10.02m0 5v10.03m0 5v10.03m0 5v10.03m0 5.02v10.02m0 5v10.02m0 5v10.03m0 5v10.02m0 5v10.03m0 5v10.03m0 5v5.02" stroke="#333" fill="none"/><path d="M160.5 201.5h-1v-.5h1zM160.5 1239h-1v-.5h1z" fill="#333"/><path d="M100 1248c0-4.42 3.58-8 8-8h104c4.42 0 8 3.58 8 8v84c0 4.42-3.58 8-8 8H108c-4.42 0-8-3.58-8-8z" stroke="#000" stroke-width="2" fill="#99d5ca"/><use xlink:href="#a" transform="matrix(1,0,0,1,100,1240) translate(44.962098765432096 51.46944444444445)"/><path d="M340 108c0-4.42 3.58-8 8-8h104c4.42 0 8 3.58 8 8v84c0 4.42-3.58 8-8 8H348c-4.42 0-8-3.58-8-8z" stroke="#000" stroke-width="2" fill="#99d5ca"/><use xlink:href="#b" transform="matrix(1,0,0,1,340,100) translate(30.747592592592603 51.46944444444445)"/><path d="M400 201.5v5m0 5.02v10.02m0 5v10.03m0 5v10.03m0 5v10.03m0 5v10.02m0 5v10.03m0 5v10.03m0 5.02v10.02m0 5v10.03m0 5v10.03m0 5v10.03m0 5v10.03m0 5v10.03m0 5v10.02m0 5v10.02m0 5v10.03m0 5V462m0 5v10.03m0 5v10.03m0 5v10.03m0 5v10.02m0 5v10.03m0 5v10.03m0 5v10.03m0 5v10.03m0 5v10.03m0 5v10.03m0 5v10.02m0 5v10.03m0 5v10.03m0 5v10.03m0 5.02v10.02m0 5v10.03m0 5v10.03m0 5v10.02m0 5v10.03m0 5v10.03m0 5v10.03m0 5.02v10.02m0 5v10.03m0 5v10.03m0 5v10.03m0 5v10.03m0 5v10.03m0 5v10m0 5.02v10.02m0 5v10.03m0 5v10.03m0 5v10.03m0 5v10.03m0 5V973m0 5v10.02m0 5v10.03m0 5v10.02m0 5v10.03m0 5v10.03m0 5v10.03m0 5v10.03m0 5v10.02m0 5v10.03m0 5v10.03m0 5v10.03m0 5.02v10.02m0 5v10.02m0 5v10.03m0 5v10.02m0 5v10.03m0 5v10.03m0 5v5.02" stroke="#333" fill="none"/><path d="M400.5 201.5h-1v-.5h1zM400.5 1239h-1v-.5h1z" fill="#333"/><path d="M340 1248c0-4.42 3.58-8 8-8h104c4.42 0 8 3.58 8 8v84c0 4.42-3.58 8-8 8H348c-4.42 0-8-3.58-8-8z" stroke="#000" stroke-width="2" fill="#99d5ca"/><use xlink:href="#b" transform="matrix(1,0,0,1,340,1240) translate(30.747592592592603 51.46944444444445)"/><path d="M580 108c0-4.42 3.58-8 8-8h104c4.42 0 8 3.58 8 8v84c0 4.42-3.58 8-8 8H588c-4.42 0-8-3.58-8-8z" stroke="#000" stroke-width="2" fill="#99d5ca"/><use xlink:href="#c" transform="matrix(1,0,0,1,580,100) translate(20.882160493827165 51.46944444444445)"/><path d="M640 201.5v5m0 5.02v10.02m0 5v10.03m0 5v10.03m0 5v10.03m0 5v10.02m0 5v10.03m0 5v10.03m0 5.02v10.02m0 5v10.03m0 5v10.03m0 5v10.03m0 5v10.03m0 5v10.03m0 5v10.02m0 5v10.02m0 5v10.03m0 5V462m0 5v10.03m0 5v10.03m0 5v10.03m0 5v10.02m0 5v10.03m0 5v10.03m0 5v10.03m0 5v10.03m0 5v10.03m0 5v10.03m0 5v10.02m0 5v10.03m0 5v10.03m0 5v10.03m0 5.02v10.02m0 5v10.03m0 5v10.03m0 5v10.02m0 5v10.03m0 5v10.03m0 5v10.03m0 5.02v10.02m0 5v10.03m0 5v10.03m0 5v10.03m0 5v10.03m0 5v10.03m0 5v10m0 5.02v10.02m0 5v10.03m0 5v10.03m0 5v10.03m0 5v10.03m0 5V973m0 5v10.02m0 5v10.03m0 5v10.02m0 5v10.03m0 5v10.03m0 5v10.03m0 5v10.03m0 5v10.02m0 5v10.03m0 5v10.03m0 5v10.03m0 5.02v10.02m0 5v10.02m0 5v10.03m0 5v10.02m0 5v10.03m0 5v10.03m0 5v5.02" stroke="#333" fill="none"/><path d="M640.5 201.5h-1v-.5h1zM640.5 1239h-1v-.5h1z" fill="#333"/><path d="M580 1248c0-4.42 3.58-8 8-8h104c4.42 0 8 3.58 8 8v84c0 4.42-3.58 8-8 8H588c-4.42 0-8-3.58-8-8z" stroke="#000" stroke-width="2" fill="#99d5ca"/><use xlink:href="#c" transform="matrix(1,0,0,1,580,1240) translate(20.882160493827165 51.46944444444445)"/><path d="M820 108c0-4.42 3.58-8 8-8h104c4.42 0 8 3.58 8 8v84c0 4.42-3.58 8-8 8H828c-4.42 0-8-3.58-8-8z" stroke="#000" stroke-width="2" fill="#99d5ca"/><use xlink:href="#d" transform="matrix(1,0,0,1,820,100) translate(14.1796913580247 51.46944444444445)"/><path d="M820 1248c0-4.42 3.58-8 8-8h104c4.42 0 8 3.58 8 8v84c0 4.42-3.58 8-8 8H828c-4.42 0-8-3.58-8-8z" stroke="#000" stroke-width="2" fill="#99d5ca"/><use xlink:href="#d" transform="matrix(1,0,0,1,820,1240) translate(14.1796913580247 51.46944444444445)"/><path d="M880 201.5v5m0 5.02v10.02m0 5v10.03m0 5v10.03m0 5v10.03m0 5v10.02m0 5v10.03m0 5v10.03m0 5.02v10.02m0 5v10.03m0 5v10.03m0 5v10.03m0 5v10.03m0 5v10.03m0 5v10.02m0 5v10.02m0 5v10.03m0 5V462m0 5v10.03m0 5v10.03m0 5v10.03m0 5v10.02m0 5v10.03m0 5v10.03m0 5v10.03m0 5v10.03m0 5v10.03m0 5v10.03m0 5v10.02m0 5v10.03m0 5v10.03m0 5v10.03m0 5.02v10.02m0 5v10.03m0 5v10.03m0 5v10.02m0 5v10.03m0 5v10.03m0 5v10.03m0 5.02v10.02m0 5v10.03m0 5v10.03m0 5v10.03m0 5v10.03m0 5v10.03m0 5v10m0 5.02v10.02m0 5v10.03m0 5v10.03m0 5v10.03m0 5v10.03m0 5V973m0 5v10.02m0 5v10.03m0 5v10.02m0 5v10.03m0 5v10.03m0 5v10.03m0 5v10.03m0 5v10.02m0 5v10.03m0 5v10.03m0 5v10.03m0 5.02v10.02m0 5v10.02m0 5v10.03m0 5v10.02m0 5v10.03m0 5v10.03m0 5v5.02" stroke="#333" fill="none"/><path d="M880.5 201.5h-1v-.5h1zM880.5 1239h-1v-.5h1z" fill="#333"/><path d="M1194.2 108c0-4.42 3.58-8 8-8h104c4.42 0 8 3.58 8 8v84c0 4.42-3.58 8-8 8h-104c-4.42 0-8-3.58-8-8z" stroke="#000" stroke-width="2" fill="#99d5ca"/><use xlink:href="#e" transform="matrix(1,0,0,1,1194.1999999999998,100) translate(28.827222222222225 51.46944444444445)"/><path d="M1194.2 1248c0-4.42 3.58-8 8-8h104c4.42 0 8 3.58 8 8v84c0 4.42-3.58 8-8 8h-104c-4.42 0-8-3.58-8-8z" stroke="#000" stroke-width="2" fill="#99d5ca"/><use xlink:href="#e" transform="matrix(1,0,0,1,1194.1999999999998,1240) translate(28.827222222222225 51.46944444444445)"/><path d="M1254.2 201.5v5m0 5.02v10.02m0 5v10.03m0 5v10.03m0 5v10.03m0 5v10.02m0 5v10.03m0 5v10.03m0 5.02v10.02m0 5v10.03m0 5v10.03m0 5v10.03m0 5v10.03m0 5v10.03m0 5v10.02m0 5v10.02m0 5v10.03m0 5V462m0 5v10.03m0 5v10.03m0 5v10.03m0 5v10.02m0 5v10.03m0 5v10.03m0 5v10.03m0 5v10.03m0 5v10.03m0 5v10.03m0 5v10.02m0 5v10.03m0 5v10.03m0 5v10.03m0 5.02v10.02m0 5v10.03m0 5v10.03m0 5v10.02m0 5v10.03m0 5v10.03m0 5v10.03m0 5.02v10.02m0 5v10.03m0 5v10.03m0 5v10.03m0 5v10.03m0 5v10.03m0 5v10m0 5.02v10.02m0 5v10.03m0 5v10.03m0 5v10.03m0 5v10.03m0 5V973m0 5v10.02m0 5v10.03m0 5v10.02m0 5v10.03m0 5v10.03m0 5v10.03m0 5v10.03m0 5v10.02m0 5v10.03m0 5v10.03m0 5v10.03m0 5.02v10.02m0 5v10.02m0 5v10.03m0 5v10.02m0 5v10.03m0 5v10.03m0 5v5.02" stroke="#333" fill="none"/><path d="M1254.7 201.5h-1v-.5h1zM1254.7 1239h-1v-.5h1z" fill="#333"/><path d="M140 248.92c0-4.42 3.58-8 8-8h24c4.42 0 8 3.58 8 8v43.9c0 4.4-3.58 8-8 8h-24c-4.42 0-8-3.6-8-8zM140 1147.2c0-4.43 3.58-8 8-8h24c4.42 0 8 3.57 8 8v83.8c0 4.42-3.58 8-8 8h-24c-4.42 0-8-3.58-8-8zM380 308.8c0-4.4 3.58-8 8-8h24c4.42 0 8 3.6 8 8v43.9c0 4.4-3.58 8-8 8h-24c-4.42 0-8-3.6-8-8zM380 1087.3c0-4.4 3.58-8 8-8h24c4.42 0 8 3.6 8 8v103.78c0 4.42-3.58 8-8 8h-24c-4.42 0-8-3.58-8-8zM620 368.7c0-4.43 3.58-8 8-8h24c4.42 0 8 3.57 8 8v43.88c0 4.42-3.58 8-8 8h-24c-4.42 0-8-3.58-8-8zM620 947.58c0-4.42 3.58-8 8-8h24c4.42 0 8 3.58 8 8v183.6c0 4.43-3.58 8-8 8h-24c-4.42 0-8-3.57-8-8zM860 528.38c0-4.4 3.58-8 8-8h24c4.42 0 8 3.6 8 8v602.8c0 4.43-3.58 8-8 8h-24c-4.42 0-8-3.57-8-8z" stroke="#333" fill="#fff"/><path d="M178.85 298.33h98.68c1.36 0 2.47 1.1 2.47 2.48 0 1.37 1.1 2.48 2.47 2.48h82.8" stroke="#333" fill="none"/><path d="M178.86 298.83H178h.02l.66-1h.18z" fill="#333"/><path d="M380.03 303.28l-14.26 4.64v-9.27z" stroke="#333" fill="#333"/><use xlink:href="#f" transform="matrix(1,0,0,1,243.44102504966045,278.1016089259807) translate(0.005000000000002558 10.844444444444445)"/><use xlink:href="#g" transform="matrix(1,0,0,1,243.44102504966045,278.1016089259807) translate(39.165493827160496 10.844444444444445)"/><path d="M658.85 418.1h109.1c.67 0 1.22.56 1.22 1.24 0 .68.56 1.24 1.24 1.24h93.22" stroke="#333" fill="none"/><path d="M658.86 418.6H658h.02l.66-1h.18z" fill="#333"/><path d="M878.38 420.58l-14.26 4.63v-9.26z" stroke="#333" fill="#333"/><use xlink:href="#h" transform="matrix(1,0,0,1,700.8153719253617,397.83938402380545) translate(0.0049999999999954525 10.844444444444445)"/><path d="M418.85 358.22h98.68c1.36 0 2.47 1.1 2.47 2.47 0 1.36 1.1 2.47 2.47 2.47h82.8" stroke="#333" fill="none"/><path d="M418.86 358.72H418h.02l.66-1h.18z" fill="#333"/><path d="M620.03 363.17l-14.26 4.63v-9.27z" stroke="#333" fill="#333"/><use xlink:href="#i" transform="matrix(1,0,0,1,477.0246927676137,337.9786473944439) translate(0.005000000000002558 10.844444444444445)"/><use xlink:href="#j" transform="matrix(1,0,0,1,477.0246927676137,337.9786473944439) translate(40.63401234567901 10.844444444444445)"/><path d="M1234.2 528.38c0-4.4 3.58-8 8-8h24c4.42 0 8 3.6 8 8v343.3c0 4.43-3.58 8-8 8h-24c-4.42 0-8-3.57-8-8z" stroke="#333" fill="#fff"/><path d="M850 448.54c0-4.42 3.58-8 8-8h84c4.42 0 8 3.58 8 8v4.93c0 3.9-2.24 9.3-5 12.07-2.76 2.76-8.17 5-12.07 5H858c-4.42 0-8-3.58-8-8z" fill="#99d5ca"/><path d="M950 440.54v20l-10 10h-90" stroke="#000" stroke-width="2" fill="none"/><path d="M850 448.54c0-4.42 3.58-8 8-8h418.2c4.42 0 8 3.58 8 8v443.1c0 4.43-3.58 8-8 8H858c-4.42 0-8-3.57-8-8z" stroke="#000" stroke-width="2" fill="none"/><use xlink:href="#k" transform="matrix(1,0,0,1,858,440.5384615384615) translate(29.364814814814817 17.711111111111112)"/><use xlink:href="#l" transform="matrix(1,0,0,1,862,478.5384615384615) translate(5.928395061728409 17.711111111111112)"/><use xlink:href="#m" transform="matrix(1,0,0,1,862,478.5384615384615) translate(59.24691358024692 17.711111111111112)"/><path d="M900.5 1039.38H988c6.63 0 12 5.38 12 12v15.93c0 6.64-5.37 12-12 12h-71.62" stroke="#333" fill="none"/><path d="M900.5 1039.88v-1z" fill="#333"/><path d="M901.62 1079.3l14.26-4.63v9.27z" stroke="#333" fill="#333"/><use xlink:href="#n" transform="matrix(1,0,0,1,1007.9999999999999,1051.2128205128206) translate(0.005000000000002558 10.844444444444445)"/><path d="M901 819.56h166.23c.06 0 .12.05.12.12 0 .07.06.13.12.13h150.35" stroke="#333" fill="none"/><path d="M901 820.06h-.5v-1h.5z" fill="#333"/><path d="M1232.58 819.8l-14.26 4.64v-9.27z" stroke="#333" fill="#333"/><use xlink:href="#o" transform="matrix(1,0,0,1,934.752536298181,799.2915860387031) translate(0.0049999999999954525 10.844444444444445)"/><path d="M900.5 700.04h316.82" stroke="#333" fill="none"/><path d="M900.5 700.54v-1z" fill="#333"/><path d="M1232.08 700.04l-14.26 4.63v-9.27z" stroke="#333" fill="#333"/><use xlink:href="#p" transform="matrix(1,0,0,1,934.2503086419752,679.771794871795) translate(0.0049999999999954525 10.844444444444445)"/><path d="M1234.17 875.47h-164.72c-1.17 0-2.1.94-2.1 2.1 0 1.18-.96 2.12-2.13 2.12H916.38" stroke="#333" fill="none"/><path d="M1234.36 875l.65.97h-.84v-1h.2z" fill="#333"/><path d="M901.62 879.7l14.26-4.64v9.27z" stroke="#333" fill="#333"/><use xlink:href="#q" transform="matrix(1,0,0,1,942.9114120601273,855.2020579266389) translate(0.0049999999999954525 10.844444444444445)"/><path d="M1233.7 759.92H916.38" stroke="#333" fill="none"/><path d="M1233.7 760.42v-1z" fill="#333"/><path d="M901.62 759.92l14.26-4.63v9.26z" stroke="#333" fill="#333"/><use xlink:href="#r" transform="matrix(1,0,0,1,942.7466049382715,739.6564102564103) translate(0.0049999999999954525 10.844444444444445)"/><path d="M380.6 1195.78h-4.67m-4.67 0h-9.33m-4.67 0h-9.34m-4.66 0h-9.34m-4.67 0h-9.33m-4.67 0h-9.34m-4.66 0h-9.33m-4.66 0h-4.67l-1.25.52-.52 1.26-.52 1.25-1.25.53h-5.48m-5.47 0h-10.96m-5.47 0H240.7m-5.48 0h-10.95m-5.48 0h-10.96m-5.48 0h-5.48" stroke="#333" fill="none"/><path d="M381.44 1196.28h-.85v-1h.16z" fill="#333"/><path d="M182.12 1199.33l14.26-4.64v9.26z" stroke="#333" fill="#333"/><use xlink:href="#s" transform="matrix(1,0,0,1,261.11833681073523,1175.5461385872354) translate(0.004999999999999005 10.844444444444445)"/><path d="M900.5 580.27h317.32" stroke="#333" fill="none"/><path d="M900.5 580.77v-1z" fill="#333"/><path d="M1232.58 580.27l-14.26 4.63v-9.27z" stroke="#333" fill="#333"/><use xlink:href="#t" transform="matrix(1,0,0,1,928.4944444444443,560.0025641025641) translate(0.0049999999999954525 10.844444444444445)"/><path d="M620.26 1135.4h-4.65m-4.65 0h-9.3m-4.66 0h-9.32m-4.65 0h-9.3m-4.66 0h-9.3m-4.66 0h-9.3m-4.66 0h-9.3m-4.66 0h-4.65l-1.34.55-.57 1.34-.56 1.34-1.34.55h-5.45m-5.46 0h-10.9m-5.47 0h-10.9m-5.47 0h-10.9m-5.47 0h-10.9m-5.46 0h-5.46" stroke="#333" fill="none"/><path d="M621.1 1135.9h-.85v-1h.17z" fill="#333"/><path d="M422.12 1139.2l14.26-4.64v9.27z" stroke="#333" fill="#333"/><use xlink:href="#s" transform="matrix(1,0,0,1,500.896758748677,1115.1680483844755) translate(0.004999999999999005 10.844444444444445)"/><path d="M1233.7 640.15H916.38" stroke="#333" fill="none"/><path d="M1233.7 640.65v-1z" fill="#333"/><path d="M901.62 640.15l14.26-4.63v9.27z" stroke="#333" fill="#333"/><use xlink:href="#u" transform="matrix(1,0,0,1,936.7407407407406,619.8871794871795) translate(0.0049999999999954525 10.844444444444445)"/><path d="M859.5 999.46h-4.74m-4.74 0h-9.47m-4.74 0h-9.47m-4.73 0h-9.48m-4.74 0h-9.48m-4.73 0h-9.48m-4.75 0h-9.47m-4.74 0h-9.39m-4.64 0h-9.28m-4.65 0h-9.3m-4.63 0h-9.3m-4.64 0h-9.3m-4.63 0h-9.3m-4.64 0h-4.65" stroke="#333" fill="none"/><path d="M859.5 999.96v-1z" fill="#333"/><path d="M661.62 999.46l14.26-4.63v9.27z" stroke="#333" fill="#333"/><g><use xlink:href="#s" transform="matrix(1,0,0,1,740.4762345679012,979.1948717948719) translate(0.004999999999999005 10.844444444444445)"/></g><defs><path fill="#333" d="M238-95c0 69-44 99-111 99C63 4 22-25 22-93v-155h51v151c-1 38 19 59 55 60 90 1 49-130 58-211h52v153" id="v"/><path fill="#333" d="M137-138c1-29-70-34-71-4 15 46 118 7 119 86 1 83-164 76-172 9l43-7c4 19 20 25 44 25 33 8 57-30 24-41C81-84 22-81 20-136c-2-80 154-74 161-7" id="w"/><path fill="#333" d="M185-48c-13 30-37 53-82 52C43 2 14-33 14-96s30-98 90-98c62 0 83 45 84 108H66c0 31 8 55 39 56 18 0 30-7 34-22zm-45-69c5-46-57-63-70-21-2 6-4 13-4 21h74" id="x"/><path fill="#333" d="M135-150c-39-12-60 13-60 57V0H25l-1-190h47c2 13-1 29 3 40 6-28 27-53 61-41v41" id="y"/><g id="a"><use transform="matrix(0.03765432098765432,0,0,0.03765432098765432,0,0)" xlink:href="#v"/><use transform="matrix(0.03765432098765432,0,0,0.03765432098765432,9.752469135802468,0)" xlink:href="#w"/><use transform="matrix(0.03765432098765432,0,0,0.03765432098765432,17.28333333333333,0)" xlink:href="#x"/><use transform="matrix(0.03765432098765432,0,0,0.03765432098765432,24.814197530864195,0)" xlink:href="#y"/></g><path fill="#333" d="M76-208v77h127v40H76V0H24v-248h183v40H76" id="z"/><path fill="#333" d="M110-194c64 0 96 36 96 99 0 64-35 99-97 99-61 0-95-36-95-99 0-62 34-99 96-99zm-1 164c35 0 45-28 45-65 0-40-10-65-43-65-34 0-45 26-45 65 0 36 10 65 43 65" id="A"/><path fill="#333" d="M135-194c87-1 58 113 63 194h-50c-7-57 23-157-34-157-59 0-34 97-39 157H25l-1-190h47c2 12-1 28 3 38 12-26 28-41 61-42" id="B"/><path fill="#333" d="M115-3C79 11 28 4 28-45v-112H4v-33h27l15-45h31v45h36v33H77v99c-1 23 16 31 38 25v30" id="C"/><path fill="#333" d="M88-194c31-1 46 15 58 34l-1-101h50l1 261h-48c-2-10 0-23-3-31C134-8 116 4 84 4 32 4 16-41 15-95c0-56 19-97 73-99zm17 164c33 0 40-30 41-66 1-37-9-64-41-64s-38 30-39 65c0 43 13 65 39 65" id="D"/><g id="b"><use transform="matrix(0.03765432098765432,0,0,0.03765432098765432,0,0)" xlink:href="#z"/><use transform="matrix(0.03765432098765432,0,0,0.03765432098765432,8.246296296296295,0)" xlink:href="#y"/><use transform="matrix(0.03765432098765432,0,0,0.03765432098765432,13.5179012345679,0)" xlink:href="#A"/><use transform="matrix(0.03765432098765432,0,0,0.03765432098765432,21.764197530864195,0)" xlink:href="#B"/><use transform="matrix(0.03765432098765432,0,0,0.03765432098765432,30.010493827160488,0)" xlink:href="#C"/><use transform="matrix(0.03765432098765432,0,0,0.03765432098765432,34.49135802469135,0)" xlink:href="#x"/><use transform="matrix(0.03765432098765432,0,0,0.03765432098765432,42.02222222222221,0)" xlink:href="#B"/><use transform="matrix(0.03765432098765432,0,0,0.03765432098765432,50.268518518518505,0)" xlink:href="#D"/></g><path fill="#333" d="M199 0l-22-63H83L61 0H9l90-248h61L250 0h-51zm-33-102l-36-108c-10 38-24 72-36 108h72" id="E"/><path fill="#333" d="M24-248c93 1 206-16 204 79-1 75-69 88-152 82V0H24v-248zm52 121c47 0 100 7 100-41 0-47-54-39-100-39v80" id="F"/><path fill="#333" d="M24 0v-248h52V0H24" id="G"/><path fill="#333" d="M67-125c0 54 23 88 75 88 28 0 53-7 68-21v-34h-60v-39h108v91C232-14 192 4 140 4 58 4 20-42 15-125 8-236 126-280 215-234c19 10 29 26 37 47l-47 15c-11-23-29-39-63-39-53 1-75 33-75 86" id="H"/><path fill="#333" d="M133-34C117-15 103 5 69 4 32 3 11-16 11-54c-1-60 55-63 116-61 1-26-3-47-28-47-18 1-26 9-28 27l-52-2c7-38 36-58 82-57s74 22 75 68l1 82c-1 14 12 18 25 15v27c-30 8-71 5-69-32zm-48 3c29 0 43-24 42-57-32 0-66-3-65 30 0 17 8 27 23 27" id="I"/><path fill="#333" d="M231 0h-52l-39-155L100 0H48L-1-190h46L77-45c9-52 24-97 36-145h53l37 145 32-145h46" id="J"/><path fill="#333" d="M123 10C108 53 80 86 19 72V37c35 8 53-11 59-39L3-190h52l48 148c12-52 28-100 44-148h51" id="K"/><g id="c"><use transform="matrix(0.03765432098765432,0,0,0.03765432098765432,0,0)" xlink:href="#E"/><use transform="matrix(0.03765432098765432,0,0,0.03765432098765432,9.752469135802468,0)" xlink:href="#F"/><use transform="matrix(0.03765432098765432,0,0,0.03765432098765432,18.789506172839502,0)" xlink:href="#G"/><use transform="matrix(0.03765432098765432,0,0,0.03765432098765432,22.554938271604932,0)" xlink:href="#H"/><use transform="matrix(0.03765432098765432,0,0,0.03765432098765432,33.09814814814814,0)" xlink:href="#I"/><use transform="matrix(0.03765432098765432,0,0,0.03765432098765432,40.629012345679,0)" xlink:href="#C"/><use transform="matrix(0.03765432098765432,0,0,0.03765432098765432,45.109876543209865,0)" xlink:href="#x"/><use transform="matrix(0.03765432098765432,0,0,0.03765432098765432,52.640740740740725,0)" xlink:href="#J"/><use transform="matrix(0.03765432098765432,0,0,0.03765432098765432,63.183950617283934,0)" xlink:href="#I"/><use transform="matrix(0.03765432098765432,0,0,0.03765432098765432,70.7148148148148,0)" xlink:href="#K"/></g><path fill="#333" d="M67-125c0 53 21 87 73 88 37 1 54-22 65-47l45 17C233-25 199 4 140 4 58 4 20-42 15-125 8-235 124-281 211-232c18 10 29 29 36 50l-46 12c-8-25-30-41-62-41-52 0-71 34-72 86" id="L"/><path fill="#333" d="M220-157c-53 9-28 100-34 157h-49v-107c1-27-5-49-29-50C55-147 81-57 75 0H25l-1-190h47c2 12-1 28 3 38 10-53 101-56 108 0 13-22 24-43 59-42 82 1 51 116 57 194h-49v-107c-1-25-5-48-29-50" id="M"/><path fill="#333" d="M182-130c37 4 62 22 62 59C244 23 116-4 24 0v-248c84 5 203-23 205 63 0 31-19 50-47 55zM76-148c40-3 101 13 101-30 0-44-60-28-101-31v61zm0 110c48-3 116 14 116-37 0-48-69-32-116-35v72" id="N"/><path fill="#333" d="M85 4C-2 5 27-109 22-190h50c7 57-23 150 33 157 60-5 35-97 40-157h50l1 190h-47c-2-12 1-28-3-38-12 25-28 42-61 42" id="O"/><g id="d"><use transform="matrix(0.03765432098765432,0,0,0.03765432098765432,0,0)" xlink:href="#L"/><use transform="matrix(0.03765432098765432,0,0,0.03765432098765432,9.752469135802468,0)" xlink:href="#A"/><use transform="matrix(0.03765432098765432,0,0,0.03765432098765432,17.998765432098764,0)" xlink:href="#M"/><use transform="matrix(0.03765432098765432,0,0,0.03765432098765432,30.048148148148144,0)" xlink:href="#M"/><use transform="matrix(0.03765432098765432,0,0,0.03765432098765432,42.09753086419753,0)" xlink:href="#I"/><use transform="matrix(0.03765432098765432,0,0,0.03765432098765432,49.62839506172838,0)" xlink:href="#B"/><use transform="matrix(0.03765432098765432,0,0,0.03765432098765432,57.87469135802468,0)" xlink:href="#D"/><use transform="matrix(0.03765432098765432,0,0,0.03765432098765432,66.12098765432097,0)" xlink:href="#N"/><use transform="matrix(0.03765432098765432,0,0,0.03765432098765432,75.87345679012344,0)" xlink:href="#O"/><use transform="matrix(0.03765432098765432,0,0,0.03765432098765432,84.11975308641973,0)" xlink:href="#w"/></g><path fill="#333" d="M24 0v-248h195v40H76v63h132v40H76v65h150V0H24" id="P"/><path fill="#333" d="M128 0H69L1-190h53L99-40l48-150h52" id="Q"/><g id="e"><use transform="matrix(0.03765432098765432,0,0,0.03765432098765432,0,0)" xlink:href="#P"/><use transform="matrix(0.03765432098765432,0,0,0.03765432098765432,9.037037037037036,0)" xlink:href="#Q"/><use transform="matrix(0.03765432098765432,0,0,0.03765432098765432,16.5679012345679,0)" xlink:href="#x"/><use transform="matrix(0.03765432098765432,0,0,0.03765432098765432,24.098765432098762,0)" xlink:href="#B"/><use transform="matrix(0.03765432098765432,0,0,0.03765432098765432,32.34506172839506,0)" xlink:href="#C"/><use transform="matrix(0.03765432098765432,0,0,0.03765432098765432,36.82592592592592,0)" xlink:href="#N"/><use transform="matrix(0.03765432098765432,0,0,0.03765432098765432,46.57839506172838,0)" xlink:href="#O"/><use transform="matrix(0.03765432098765432,0,0,0.03765432098765432,54.82469135802468,0)" xlink:href="#w"/></g><path fill="#333" d="M25 0v-261h50V0H25" id="R"/><path fill="#333" d="M190-63c-7 42-38 67-86 67-59 0-84-38-90-98-12-110 154-137 174-36l-49 2c-2-19-15-32-35-32-30 0-35 28-38 64-6 74 65 87 74 30" id="S"/><g id="f"><use transform="matrix(0.03765432098765432,0,0,0.03765432098765432,0,0)" xlink:href="#F"/><use transform="matrix(0.03765432098765432,0,0,0.03765432098765432,9.037037037037036,0)" xlink:href="#R"/><use transform="matrix(0.03765432098765432,0,0,0.03765432098765432,12.802469135802468,0)" xlink:href="#I"/><use transform="matrix(0.03765432098765432,0,0,0.03765432098765432,20.333333333333332,0)" xlink:href="#S"/><use transform="matrix(0.03765432098765432,0,0,0.03765432098765432,27.864197530864196,0)" xlink:href="#x"/></g><g id="g"><use transform="matrix(0.03765432098765432,0,0,0.03765432098765432,0,0)" xlink:href="#A"/><use transform="matrix(0.03765432098765432,0,0,0.03765432098765432,8.246296296296295,0)" xlink:href="#y"/><use transform="matrix(0.03765432098765432,0,0,0.03765432098765432,13.5179012345679,0)" xlink:href="#D"/><use transform="matrix(0.03765432098765432,0,0,0.03765432098765432,21.764197530864195,0)" xlink:href="#x"/><use transform="matrix(0.03765432098765432,0,0,0.03765432098765432,29.29506172839506,0)" xlink:href="#y"/></g><path fill="#333" d="M25-224v-37h50v37H25zM25 0v-190h50V0H25" id="T"/><path fill="#333" d="M135-194c53 0 70 44 70 98 0 56-19 98-73 100-31 1-45-17-59-34 3 33 2 69 2 105H25l-1-265h48c2 10 0 23 3 31 11-24 29-35 60-35zM114-30c33 0 39-31 40-66 0-38-9-64-40-64-56 0-55 130 0 130" id="U"/><path fill="#333" d="M114-157C55-157 80-60 75 0H25v-261h50l-1 109c12-26 28-41 61-42 86-1 58 113 63 194h-50c-7-57 23-157-34-157" id="V"/><path fill="#333" d="M67-93c0 74 22 123 53 168H70C40 30 18-18 18-93s22-123 52-168h50c-32 44-53 94-53 168" id="W"/><path fill="#333" d="M140-251c80 0 125 45 125 126S219 4 139 4C58 4 15-44 15-125s44-126 125-126zm-1 214c52 0 73-35 73-88 0-50-21-86-72-86-52 0-73 35-73 86s22 88 72 88" id="X"/><path fill="#333" d="M102-93c0 74-22 123-52 168H0C30 29 54-18 53-93c0-74-22-123-53-168h50c30 45 52 94 52 168" id="Y"/><g id="h"><use transform="matrix(0.03765432098765432,0,0,0.03765432098765432,0,0)" xlink:href="#D"/><use transform="matrix(0.03765432098765432,0,0,0.03765432098765432,8.246296296296295,0)" xlink:href="#T"/><use transform="matrix(0.03765432098765432,0,0,0.03765432098765432,12.011728395061727,0)" xlink:href="#w"/><use transform="matrix(0.03765432098765432,0,0,0.03765432098765432,19.54259259259259,0)" xlink:href="#U"/><use transform="matrix(0.03765432098765432,0,0,0.03765432098765432,27.788888888888888,0)" xlink:href="#I"/><use transform="matrix(0.03765432098765432,0,0,0.03765432098765432,35.31975308641975,0)" xlink:href="#C"/><use transform="matrix(0.03765432098765432,0,0,0.03765432098765432,39.800617283950615,0)" xlink:href="#S"/><use transform="matrix(0.03765432098765432,0,0,0.03765432098765432,47.331481481481475,0)" xlink:href="#V"/><use transform="matrix(0.03765432098765432,0,0,0.03765432098765432,55.577777777777776,0)" xlink:href="#W"/><use transform="matrix(0.03765432098765432,0,0,0.03765432098765432,60.058641975308625,0)" xlink:href="#F"/><use transform="matrix(0.03765432098765432,0,0,0.03765432098765432,69.09567901234567,0)" xlink:href="#R"/><use transform="matrix(0.03765432098765432,0,0,0.03765432098765432,72.8611111111111,0)" xlink:href="#I"/><use transform="matrix(0.03765432098765432,0,0,0.03765432098765432,80.39197530864197,0)" xlink:href="#S"/><use transform="matrix(0.03765432098765432,0,0,0.03765432098765432,87.92283950617282,0)" xlink:href="#x"/><use transform="matrix(0.03765432098765432,0,0,0.03765432098765432,95.45370370370368,0)" xlink:href="#X"/><use transform="matrix(0.03765432098765432,0,0,0.03765432098765432,105.99691358024688,0)" xlink:href="#y"/><use transform="matrix(0.03765432098765432,0,0,0.03765432098765432,111.26851851851849,0)" xlink:href="#D"/><use transform="matrix(0.03765432098765432,0,0,0.03765432098765432,119.51481481481478,0)" xlink:href="#x"/><use transform="matrix(0.03765432098765432,0,0,0.03765432098765432,127.04567901234564,0)" xlink:href="#y"/><use transform="matrix(0.03765432098765432,0,0,0.03765432098765432,132.31728395061725,0)" xlink:href="#Y"/></g><path fill="#333" d="M169-182c-1-43-94-46-97-3 18 66 151 10 154 114 3 95-165 93-204 36-6-8-10-19-12-30l50-8c3 46 112 56 116 5-17-69-150-10-154-114-4-87 153-88 188-35 5 8 8 18 10 28" id="Z"/><path fill="#333" d="M136-208V0H84v-208H4v-40h212v40h-80" id="aa"/><g id="i"><use transform="matrix(0.03765432098765432,0,0,0.03765432098765432,0,0)" xlink:href="#F"/><use transform="matrix(0.03765432098765432,0,0,0.03765432098765432,9.037037037037036,0)" xlink:href="#X"/><use transform="matrix(0.03765432098765432,0,0,0.03765432098765432,19.580246913580247,0)" xlink:href="#Z"/><use transform="matrix(0.03765432098765432,0,0,0.03765432098765432,28.617283950617285,0)" xlink:href="#aa"/></g><path fill="#333" d="M4 7l51-268h42L46 7H4" id="ab"/><g id="j"><use transform="matrix(0.03765432098765432,0,0,0.03765432098765432,0,0)" xlink:href="#ab"/><use transform="matrix(0.03765432098765432,0,0,0.03765432098765432,3.765432098765432,0)" xlink:href="#A"/><use transform="matrix(0.03765432098765432,0,0,0.03765432098765432,12.011728395061727,0)" xlink:href="#y"/><use transform="matrix(0.03765432098765432,0,0,0.03765432098765432,17.28333333333333,0)" xlink:href="#D"/><use transform="matrix(0.03765432098765432,0,0,0.03765432098765432,25.52962962962962,0)" xlink:href="#x"/><use transform="matrix(0.03765432098765432,0,0,0.03765432098765432,33.060493827160485,0)" xlink:href="#y"/><use transform="matrix(0.03765432098765432,0,0,0.03765432098765432,38.33209876543209,0)" xlink:href="#w"/></g><g id="k"><use transform="matrix(0.03765432098765432,0,0,0.03765432098765432,0,0)" xlink:href="#X"/><use transform="matrix(0.03765432098765432,0,0,0.03765432098765432,10.543209876543209,0)" xlink:href="#U"/><use transform="matrix(0.03765432098765432,0,0,0.03765432098765432,18.789506172839502,0)" xlink:href="#C"/></g><path fill="#333" d="M20 75v-336h95v34H67V41h48v34H20" id="ac"/><path fill="#333" d="M195-6C206 82 75 100 31 46c-4-6-6-13-8-21l49-6c3 16 16 24 34 25 40 0 42-37 40-79-11 22-30 35-61 35-53 0-70-43-70-97 0-56 18-96 73-97 30 0 46 14 59 34l2-30h47zm-90-29c32 0 41-27 41-63 0-35-9-62-40-62-32 0-39 29-40 63 0 36 9 62 39 62" id="ad"/><g id="l"><use transform="matrix(0.03765432098765432,0,0,0.03765432098765432,0,0)" xlink:href="#ac"/><use transform="matrix(0.03765432098765432,0,0,0.03765432098765432,4.480864197530864,0)" xlink:href="#E"/><use transform="matrix(0.03765432098765432,0,0,0.03765432098765432,14.23333333333333,0)" xlink:href="#w"/><use transform="matrix(0.03765432098765432,0,0,0.03765432098765432,21.764197530864195,0)" xlink:href="#w"/><use transform="matrix(0.03765432098765432,0,0,0.03765432098765432,29.29506172839506,0)" xlink:href="#T"/><use transform="matrix(0.03765432098765432,0,0,0.03765432098765432,33.06049382716049,0)" xlink:href="#ad"/><use transform="matrix(0.03765432098765432,0,0,0.03765432098765432,41.306790123456786,0)" xlink:href="#B"/></g><path fill="#333" d="M186 0v-106H76V0H24v-248h52v99h110v-99h50V0h-50" id="ae"/><path fill="#333" d="M4 75V41h49v-268H4v-34h96V75H4" id="af"/><g id="m"><use transform="matrix(0.03765432098765432,0,0,0.03765432098765432,0,0)" xlink:href="#ae"/><use transform="matrix(0.03765432098765432,0,0,0.03765432098765432,9.752469135802468,0)" xlink:href="#I"/><use transform="matrix(0.03765432098765432,0,0,0.03765432098765432,17.28333333333333,0)" xlink:href="#B"/><use transform="matrix(0.03765432098765432,0,0,0.03765432098765432,25.52962962962962,0)" xlink:href="#D"/><use transform="matrix(0.03765432098765432,0,0,0.03765432098765432,33.77592592592592,0)" xlink:href="#R"/><use transform="matrix(0.03765432098765432,0,0,0.03765432098765432,37.54135802469135,0)" xlink:href="#x"/><use transform="matrix(0.03765432098765432,0,0,0.03765432098765432,45.07222222222221,0)" xlink:href="#y"/><use transform="matrix(0.03765432098765432,0,0,0.03765432098765432,50.34382716049382,0)" xlink:href="#af"/></g><g id="n"><use transform="matrix(0.03765432098765432,0,0,0.03765432098765432,0,0)" xlink:href="#V"/><use transform="matrix(0.03765432098765432,0,0,0.03765432098765432,8.246296296296295,0)" xlink:href="#I"/><use transform="matrix(0.03765432098765432,0,0,0.03765432098765432,15.777160493827159,0)" xlink:href="#B"/><use transform="matrix(0.03765432098765432,0,0,0.03765432098765432,24.023456790123454,0)" xlink:href="#D"/><use transform="matrix(0.03765432098765432,0,0,0.03765432098765432,32.26975308641975,0)" xlink:href="#R"/><use transform="matrix(0.03765432098765432,0,0,0.03765432098765432,36.03518518518518,0)" xlink:href="#x"/><use transform="matrix(0.03765432098765432,0,0,0.03765432098765432,43.566049382716045,0)" xlink:href="#W"/><use transform="matrix(0.03765432098765432,0,0,0.03765432098765432,48.04691358024691,0)" xlink:href="#F"/><use transform="matrix(0.03765432098765432,0,0,0.03765432098765432,57.083950617283946,0)" xlink:href="#R"/><use transform="matrix(0.03765432098765432,0,0,0.03765432098765432,60.84938271604938,0)" xlink:href="#I"/><use transform="matrix(0.03765432098765432,0,0,0.03765432098765432,68.38024691358024,0)" xlink:href="#S"/><use transform="matrix(0.03765432098765432,0,0,0.03765432098765432,75.9111111111111,0)" xlink:href="#x"/><use transform="matrix(0.03765432098765432,0,0,0.03765432098765432,83.44197530864196,0)" xlink:href="#X"/><use transform="matrix(0.03765432098765432,0,0,0.03765432098765432,93.98518518518517,0)" xlink:href="#y"/><use transform="matrix(0.03765432098765432,0,0,0.03765432098765432,99.25679012345678,0)" xlink:href="#D"/><use transform="matrix(0.03765432098765432,0,0,0.03765432098765432,107.50308641975307,0)" xlink:href="#x"/><use transform="matrix(0.03765432098765432,0,0,0.03765432098765432,115.03395061728394,0)" xlink:href="#y"/><use transform="matrix(0.03765432098765432,0,0,0.03765432098765432,120.30555555555554,0)" xlink:href="#Y"/></g><path fill="#333" d="M135-194c52 0 70 43 70 98 0 56-19 99-73 100-30 1-46-15-58-35L72 0H24l1-261h50v104c11-23 29-37 60-37zM114-30c31 0 40-27 40-66 0-37-7-63-39-63s-41 28-41 65c0 36 8 64 40 64" id="ag"/><g id="o"><use transform="matrix(0.03765432098765432,0,0,0.03765432098765432,0,0)" xlink:href="#U"/><use transform="matrix(0.03765432098765432,0,0,0.03765432098765432,8.246296296296295,0)" xlink:href="#O"/><use transform="matrix(0.03765432098765432,0,0,0.03765432098765432,16.49259259259259,0)" xlink:href="#ag"/><use transform="matrix(0.03765432098765432,0,0,0.03765432098765432,24.738888888888887,0)" xlink:href="#R"/><use transform="matrix(0.03765432098765432,0,0,0.03765432098765432,28.504320987654317,0)" xlink:href="#T"/><use transform="matrix(0.03765432098765432,0,0,0.03765432098765432,32.26975308641975,0)" xlink:href="#w"/><use transform="matrix(0.03765432098765432,0,0,0.03765432098765432,39.800617283950615,0)" xlink:href="#V"/><use transform="matrix(0.03765432098765432,0,0,0.03765432098765432,48.04691358024691,0)" xlink:href="#W"/><use transform="matrix(0.03765432098765432,0,0,0.03765432098765432,52.52777777777777,0)" xlink:href="#L"/><use transform="matrix(0.03765432098765432,0,0,0.03765432098765432,62.28024691358024,0)" xlink:href="#A"/><use transform="matrix(0.03765432098765432,0,0,0.03765432098765432,70.52654320987654,0)" xlink:href="#M"/><use transform="matrix(0.03765432098765432,0,0,0.03765432098765432,82.57592592592592,0)" xlink:href="#M"/><use transform="matrix(0.03765432098765432,0,0,0.03765432098765432,94.6253086419753,0)" xlink:href="#I"/><use transform="matrix(0.03765432098765432,0,0,0.03765432098765432,102.15617283950617,0)" xlink:href="#B"/><use transform="matrix(0.03765432098765432,0,0,0.03765432098765432,110.40246913580245,0)" xlink:href="#D"/><use transform="matrix(0.03765432098765432,0,0,0.03765432098765432,118.64876543209874,0)" xlink:href="#E"/><use transform="matrix(0.03765432098765432,0,0,0.03765432098765432,128.4012345679012,0)" xlink:href="#w"/><use transform="matrix(0.03765432098765432,0,0,0.03765432098765432,135.93209876543207,0)" xlink:href="#w"/><use transform="matrix(0.03765432098765432,0,0,0.03765432098765432,143.46296296296293,0)" xlink:href="#T"/><use transform="matrix(0.03765432098765432,0,0,0.03765432098765432,147.22839506172838,0)" xlink:href="#ad"/><use transform="matrix(0.03765432098765432,0,0,0.03765432098765432,155.47469135802467,0)" xlink:href="#B"/><use transform="matrix(0.03765432098765432,0,0,0.03765432098765432,163.72098765432096,0)" xlink:href="#x"/><use transform="matrix(0.03765432098765432,0,0,0.03765432098765432,171.25185185185182,0)" xlink:href="#D"/><use transform="matrix(0.03765432098765432,0,0,0.03765432098765432,179.49814814814812,0)" xlink:href="#W"/><use transform="matrix(0.03765432098765432,0,0,0.03765432098765432,183.979012345679,0)" xlink:href="#F"/><use transform="matrix(0.03765432098765432,0,0,0.03765432098765432,193.01604938271603,0)" xlink:href="#R"/><use transform="matrix(0.03765432098765432,0,0,0.03765432098765432,196.78148148148145,0)" xlink:href="#I"/><use transform="matrix(0.03765432098765432,0,0,0.03765432098765432,204.31234567901234,0)" xlink:href="#S"/><use transform="matrix(0.03765432098765432,0,0,0.03765432098765432,211.8432098765432,0)" xlink:href="#x"/><use transform="matrix(0.03765432098765432,0,0,0.03765432098765432,219.37407407407406,0)" xlink:href="#X"/><use transform="matrix(0.03765432098765432,0,0,0.03765432098765432,229.91728395061727,0)" xlink:href="#y"/><use transform="matrix(0.03765432098765432,0,0,0.03765432098765432,235.18888888888887,0)" xlink:href="#D"/><use transform="matrix(0.03765432098765432,0,0,0.03765432098765432,243.43518518518516,0)" xlink:href="#x"/><use transform="matrix(0.03765432098765432,0,0,0.03765432098765432,250.96604938271602,0)" xlink:href="#y"/><use transform="matrix(0.03765432098765432,0,0,0.03765432098765432,256.23765432098764,0)" xlink:href="#Y"/><use transform="matrix(0.03765432098765432,0,0,0.03765432098765432,260.7185185185185,0)" xlink:href="#Y"/></g><g id="p"><use transform="matrix(0.03765432098765432,0,0,0.03765432098765432,0,0)" xlink:href="#U"/><use transform="matrix(0.03765432098765432,0,0,0.03765432098765432,8.246296296296295,0)" xlink:href="#O"/><use transform="matrix(0.03765432098765432,0,0,0.03765432098765432,16.49259259259259,0)" xlink:href="#ag"/><use transform="matrix(0.03765432098765432,0,0,0.03765432098765432,24.738888888888887,0)" xlink:href="#R"/><use transform="matrix(0.03765432098765432,0,0,0.03765432098765432,28.504320987654317,0)" xlink:href="#T"/><use transform="matrix(0.03765432098765432,0,0,0.03765432098765432,32.26975308641975,0)" xlink:href="#w"/><use transform="matrix(0.03765432098765432,0,0,0.03765432098765432,39.800617283950615,0)" xlink:href="#V"/><use transform="matrix(0.03765432098765432,0,0,0.03765432098765432,48.04691358024691,0)" xlink:href="#W"/><use transform="matrix(0.03765432098765432,0,0,0.03765432098765432,52.52777777777777,0)" xlink:href="#L"/><use transform="matrix(0.03765432098765432,0,0,0.03765432098765432,62.28024691358024,0)" xlink:href="#A"/><use transform="matrix(0.03765432098765432,0,0,0.03765432098765432,70.52654320987654,0)" xlink:href="#M"/><use transform="matrix(0.03765432098765432,0,0,0.03765432098765432,82.57592592592592,0)" xlink:href="#M"/><use transform="matrix(0.03765432098765432,0,0,0.03765432098765432,94.6253086419753,0)" xlink:href="#I"/><use transform="matrix(0.03765432098765432,0,0,0.03765432098765432,102.15617283950617,0)" xlink:href="#B"/><use transform="matrix(0.03765432098765432,0,0,0.03765432098765432,110.40246913580245,0)" xlink:href="#D"/><use transform="matrix(0.03765432098765432,0,0,0.03765432098765432,118.64876543209874,0)" xlink:href="#E"/><use transform="matrix(0.03765432098765432,0,0,0.03765432098765432,128.4012345679012,0)" xlink:href="#S"/><use transform="matrix(0.03765432098765432,0,0,0.03765432098765432,135.93209876543207,0)" xlink:href="#S"/><use transform="matrix(0.03765432098765432,0,0,0.03765432098765432,143.46296296296293,0)" xlink:href="#x"/><use transform="matrix(0.03765432098765432,0,0,0.03765432098765432,150.9938271604938,0)" xlink:href="#U"/><use transform="matrix(0.03765432098765432,0,0,0.03765432098765432,159.2401234567901,0)" xlink:href="#C"/><use transform="matrix(0.03765432098765432,0,0,0.03765432098765432,163.72098765432096,0)" xlink:href="#x"/><use transform="matrix(0.03765432098765432,0,0,0.03765432098765432,171.25185185185182,0)" xlink:href="#D"/><use transform="matrix(0.03765432098765432,0,0,0.03765432098765432,179.49814814814812,0)" xlink:href="#W"/><use transform="matrix(0.03765432098765432,0,0,0.03765432098765432,183.979012345679,0)" xlink:href="#F"/><use transform="matrix(0.03765432098765432,0,0,0.03765432098765432,193.01604938271603,0)" xlink:href="#R"/><use transform="matrix(0.03765432098765432,0,0,0.03765432098765432,196.78148148148145,0)" xlink:href="#I"/><use transform="matrix(0.03765432098765432,0,0,0.03765432098765432,204.31234567901234,0)" xlink:href="#S"/><use transform="matrix(0.03765432098765432,0,0,0.03765432098765432,211.8432098765432,0)" xlink:href="#x"/><use transform="matrix(0.03765432098765432,0,0,0.03765432098765432,219.37407407407406,0)" xlink:href="#X"/><use transform="matrix(0.03765432098765432,0,0,0.03765432098765432,229.91728395061727,0)" xlink:href="#y"/><use transform="matrix(0.03765432098765432,0,0,0.03765432098765432,235.18888888888887,0)" xlink:href="#D"/><use transform="matrix(0.03765432098765432,0,0,0.03765432098765432,243.43518518518516,0)" xlink:href="#x"/><use transform="matrix(0.03765432098765432,0,0,0.03765432098765432,250.96604938271602,0)" xlink:href="#y"/><use transform="matrix(0.03765432098765432,0,0,0.03765432098765432,256.23765432098764,0)" xlink:href="#Y"/><use transform="matrix(0.03765432098765432,0,0,0.03765432098765432,260.7185185185185,0)" xlink:href="#Y"/></g><g id="q"><use transform="matrix(0.03765432098765432,0,0,0.03765432098765432,0,0)" xlink:href="#w"/><use transform="matrix(0.03765432098765432,0,0,0.03765432098765432,7.530864197530864,0)" xlink:href="#x"/><use transform="matrix(0.03765432098765432,0,0,0.03765432098765432,15.061728395061728,0)" xlink:href="#B"/><use transform="matrix(0.03765432098765432,0,0,0.03765432098765432,23.30802469135802,0)" xlink:href="#D"/><use transform="matrix(0.03765432098765432,0,0,0.03765432098765432,31.554320987654314,0)" xlink:href="#W"/><use transform="matrix(0.03765432098765432,0,0,0.03765432098765432,36.03518518518518,0)" xlink:href="#L"/><use transform="matrix(0.03765432098765432,0,0,0.03765432098765432,45.78765432098764,0)" xlink:href="#A"/><use transform="matrix(0.03765432098765432,0,0,0.03765432098765432,54.033950617283935,0)" xlink:href="#M"/><use transform="matrix(0.03765432098765432,0,0,0.03765432098765432,66.08333333333331,0)" xlink:href="#M"/><use transform="matrix(0.03765432098765432,0,0,0.03765432098765432,78.1327160493827,0)" xlink:href="#I"/><use transform="matrix(0.03765432098765432,0,0,0.03765432098765432,85.66358024691355,0)" xlink:href="#B"/><use transform="matrix(0.03765432098765432,0,0,0.03765432098765432,93.90987654320985,0)" xlink:href="#D"/><use transform="matrix(0.03765432098765432,0,0,0.03765432098765432,102.15617283950614,0)" xlink:href="#E"/><use transform="matrix(0.03765432098765432,0,0,0.03765432098765432,111.90864197530861,0)" xlink:href="#w"/><use transform="matrix(0.03765432098765432,0,0,0.03765432098765432,119.43950617283947,0)" xlink:href="#w"/><use transform="matrix(0.03765432098765432,0,0,0.03765432098765432,126.97037037037032,0)" xlink:href="#T"/><use transform="matrix(0.03765432098765432,0,0,0.03765432098765432,130.73580246913576,0)" xlink:href="#ad"/><use transform="matrix(0.03765432098765432,0,0,0.03765432098765432,138.98209876543206,0)" xlink:href="#B"/><use transform="matrix(0.03765432098765432,0,0,0.03765432098765432,147.22839506172835,0)" xlink:href="#x"/><use transform="matrix(0.03765432098765432,0,0,0.03765432098765432,154.7592592592592,0)" xlink:href="#D"/><use transform="matrix(0.03765432098765432,0,0,0.03765432098765432,163.0055555555555,0)" xlink:href="#W"/><use transform="matrix(0.03765432098765432,0,0,0.03765432098765432,167.48641975308638,0)" xlink:href="#F"/><use transform="matrix(0.03765432098765432,0,0,0.03765432098765432,176.52345679012342,0)" xlink:href="#R"/><use transform="matrix(0.03765432098765432,0,0,0.03765432098765432,180.28888888888886,0)" xlink:href="#I"/><use transform="matrix(0.03765432098765432,0,0,0.03765432098765432,187.81975308641972,0)" xlink:href="#S"/><use transform="matrix(0.03765432098765432,0,0,0.03765432098765432,195.3506172839506,0)" xlink:href="#x"/><use transform="matrix(0.03765432098765432,0,0,0.03765432098765432,202.88148148148142,0)" xlink:href="#X"/><use transform="matrix(0.03765432098765432,0,0,0.03765432098765432,213.42469135802466,0)" xlink:href="#y"/><use transform="matrix(0.03765432098765432,0,0,0.03765432098765432,218.69629629629625,0)" xlink:href="#D"/><use transform="matrix(0.03765432098765432,0,0,0.03765432098765432,226.94259259259255,0)" xlink:href="#x"/><use transform="matrix(0.03765432098765432,0,0,0.03765432098765432,234.4734567901234,0)" xlink:href="#y"/><use transform="matrix(0.03765432098765432,0,0,0.03765432098765432,239.745061728395,0)" xlink:href="#Y"/><use transform="matrix(0.03765432098765432,0,0,0.03765432098765432,244.22592592592588,0)" xlink:href="#Y"/></g><g id="r"><use transform="matrix(0.03765432098765432,0,0,0.03765432098765432,0,0)" xlink:href="#w"/><use transform="matrix(0.03765432098765432,0,0,0.03765432098765432,7.530864197530864,0)" xlink:href="#x"/><use transform="matrix(0.03765432098765432,0,0,0.03765432098765432,15.061728395061728,0)" xlink:href="#B"/><use transform="matrix(0.03765432098765432,0,0,0.03765432098765432,23.30802469135802,0)" xlink:href="#D"/><use transform="matrix(0.03765432098765432,0,0,0.03765432098765432,31.554320987654314,0)" xlink:href="#W"/><use transform="matrix(0.03765432098765432,0,0,0.03765432098765432,36.03518518518518,0)" xlink:href="#L"/><use transform="matrix(0.03765432098765432,0,0,0.03765432098765432,45.78765432098764,0)" xlink:href="#A"/><use transform="matrix(0.03765432098765432,0,0,0.03765432098765432,54.033950617283935,0)" xlink:href="#M"/><use transform="matrix(0.03765432098765432,0,0,0.03765432098765432,66.08333333333331,0)" xlink:href="#M"/><use transform="matrix(0.03765432098765432,0,0,0.03765432098765432,78.1327160493827,0)" xlink:href="#I"/><use transform="matrix(0.03765432098765432,0,0,0.03765432098765432,85.66358024691355,0)" xlink:href="#B"/><use transform="matrix(0.03765432098765432,0,0,0.03765432098765432,93.90987654320985,0)" xlink:href="#D"/><use transform="matrix(0.03765432098765432,0,0,0.03765432098765432,102.15617283950614,0)" xlink:href="#E"/><use transform="matrix(0.03765432098765432,0,0,0.03765432098765432,111.90864197530861,0)" xlink:href="#S"/><use transform="matrix(0.03765432098765432,0,0,0.03765432098765432,119.43950617283947,0)" xlink:href="#S"/><use transform="matrix(0.03765432098765432,0,0,0.03765432098765432,126.97037037037032,0)" xlink:href="#x"/><use transform="matrix(0.03765432098765432,0,0,0.03765432098765432,134.5012345679012,0)" xlink:href="#U"/><use transform="matrix(0.03765432098765432,0,0,0.03765432098765432,142.7475308641975,0)" xlink:href="#C"/><use transform="matrix(0.03765432098765432,0,0,0.03765432098765432,147.22839506172838,0)" xlink:href="#x"/><use transform="matrix(0.03765432098765432,0,0,0.03765432098765432,154.75925925925924,0)" xlink:href="#D"/><use transform="matrix(0.03765432098765432,0,0,0.03765432098765432,163.00555555555553,0)" xlink:href="#W"/><use transform="matrix(0.03765432098765432,0,0,0.03765432098765432,167.4864197530864,0)" xlink:href="#F"/><use transform="matrix(0.03765432098765432,0,0,0.03765432098765432,176.52345679012345,0)" xlink:href="#R"/><use transform="matrix(0.03765432098765432,0,0,0.03765432098765432,180.28888888888892,0)" xlink:href="#I"/><use transform="matrix(0.03765432098765432,0,0,0.03765432098765432,187.81975308641972,0)" xlink:href="#S"/><use transform="matrix(0.03765432098765432,0,0,0.03765432098765432,195.3506172839506,0)" xlink:href="#x"/><use transform="matrix(0.03765432098765432,0,0,0.03765432098765432,202.88148148148147,0)" xlink:href="#X"/><use transform="matrix(0.03765432098765432,0,0,0.03765432098765432,213.42469135802466,0)" xlink:href="#y"/><use transform="matrix(0.03765432098765432,0,0,0.03765432098765432,218.69629629629628,0)" xlink:href="#D"/><use transform="matrix(0.03765432098765432,0,0,0.03765432098765432,226.94259259259258,0)" xlink:href="#x"/><use transform="matrix(0.03765432098765432,0,0,0.03765432098765432,234.47345679012344,0)" xlink:href="#y"/><use transform="matrix(0.03765432098765432,0,0,0.03765432098765432,239.74506172839503,0)" xlink:href="#Y"/><use transform="matrix(0.03765432098765432,0,0,0.03765432098765432,244.2259259259259,0)" xlink:href="#Y"/></g><g id="s"><use transform="matrix(0.03765432098765432,0,0,0.03765432098765432,0,0)" xlink:href="#y"/><use transform="matrix(0.03765432098765432,0,0,0.03765432098765432,5.271604938271604,0)" xlink:href="#x"/><use transform="matrix(0.03765432098765432,0,0,0.03765432098765432,12.802469135802468,0)" xlink:href="#C"/><use transform="matrix(0.03765432098765432,0,0,0.03765432098765432,17.28333333333333,0)" xlink:href="#O"/><use transform="matrix(0.03765432098765432,0,0,0.03765432098765432,25.52962962962962,0)" xlink:href="#y"/><use transform="matrix(0.03765432098765432,0,0,0.03765432098765432,30.80123456790123,0)" xlink:href="#B"/></g><path fill="#333" d="M24-248c120-7 223 5 221 122C244-46 201 0 124 0H24v-248zM76-40c74 7 117-18 117-86 0-67-45-88-117-82v168" id="ah"/><g id="t"><use transform="matrix(0.03765432098765432,0,0,0.03765432098765432,0,0)" xlink:href="#U"/><use transform="matrix(0.03765432098765432,0,0,0.03765432098765432,8.246296296296295,0)" xlink:href="#O"/><use transform="matrix(0.03765432098765432,0,0,0.03765432098765432,16.49259259259259,0)" xlink:href="#ag"/><use transform="matrix(0.03765432098765432,0,0,0.03765432098765432,24.738888888888887,0)" xlink:href="#R"/><use transform="matrix(0.03765432098765432,0,0,0.03765432098765432,28.504320987654317,0)" xlink:href="#T"/><use transform="matrix(0.03765432098765432,0,0,0.03765432098765432,32.26975308641975,0)" xlink:href="#w"/><use transform="matrix(0.03765432098765432,0,0,0.03765432098765432,39.800617283950615,0)" xlink:href="#V"/><use transform="matrix(0.03765432098765432,0,0,0.03765432098765432,48.04691358024691,0)" xlink:href="#W"/><use transform="matrix(0.03765432098765432,0,0,0.03765432098765432,52.52777777777777,0)" xlink:href="#L"/><use transform="matrix(0.03765432098765432,0,0,0.03765432098765432,62.28024691358024,0)" xlink:href="#A"/><use transform="matrix(0.03765432098765432,0,0,0.03765432098765432,70.52654320987654,0)" xlink:href="#M"/><use transform="matrix(0.03765432098765432,0,0,0.03765432098765432,82.57592592592592,0)" xlink:href="#M"/><use transform="matrix(0.03765432098765432,0,0,0.03765432098765432,94.6253086419753,0)" xlink:href="#I"/><use transform="matrix(0.03765432098765432,0,0,0.03765432098765432,102.15617283950617,0)" xlink:href="#B"/><use transform="matrix(0.03765432098765432,0,0,0.03765432098765432,110.40246913580245,0)" xlink:href="#D"/><use transform="matrix(0.03765432098765432,0,0,0.03765432098765432,118.64876543209874,0)" xlink:href="#ah"/><use transform="matrix(0.03765432098765432,0,0,0.03765432098765432,128.4012345679012,0)" xlink:href="#T"/><use transform="matrix(0.03765432098765432,0,0,0.03765432098765432,132.16666666666666,0)" xlink:href="#w"/><use transform="matrix(0.03765432098765432,0,0,0.03765432098765432,139.69753086419752,0)" xlink:href="#U"/><use transform="matrix(0.03765432098765432,0,0,0.03765432098765432,147.9438271604938,0)" xlink:href="#I"/><use transform="matrix(0.03765432098765432,0,0,0.03765432098765432,155.47469135802467,0)" xlink:href="#C"/><use transform="matrix(0.03765432098765432,0,0,0.03765432098765432,159.95555555555555,0)" xlink:href="#S"/><use transform="matrix(0.03765432098765432,0,0,0.03765432098765432,167.4864197530864,0)" xlink:href="#V"/><use transform="matrix(0.03765432098765432,0,0,0.03765432098765432,175.7327160493827,0)" xlink:href="#x"/><use transform="matrix(0.03765432098765432,0,0,0.03765432098765432,183.26358024691356,0)" xlink:href="#D"/><use transform="matrix(0.03765432098765432,0,0,0.03765432098765432,191.50987654320986,0)" xlink:href="#W"/><use transform="matrix(0.03765432098765432,0,0,0.03765432098765432,195.99074074074073,0)" xlink:href="#F"/><use transform="matrix(0.03765432098765432,0,0,0.03765432098765432,205.02777777777777,0)" xlink:href="#R"/><use transform="matrix(0.03765432098765432,0,0,0.03765432098765432,208.79320987654322,0)" xlink:href="#I"/><use transform="matrix(0.03765432098765432,0,0,0.03765432098765432,216.32407407407408,0)" xlink:href="#S"/><use transform="matrix(0.03765432098765432,0,0,0.03765432098765432,223.85493827160496,0)" xlink:href="#x"/><use transform="matrix(0.03765432098765432,0,0,0.03765432098765432,231.38580246913577,0)" xlink:href="#X"/><use transform="matrix(0.03765432098765432,0,0,0.03765432098765432,241.929012345679,0)" xlink:href="#y"/><use transform="matrix(0.03765432098765432,0,0,0.03765432098765432,247.2006172839506,0)" xlink:href="#D"/><use transform="matrix(0.03765432098765432,0,0,0.03765432098765432,255.4469135802469,0)" xlink:href="#x"/><use transform="matrix(0.03765432098765432,0,0,0.03765432098765432,262.97777777777776,0)" xlink:href="#y"/><use transform="matrix(0.03765432098765432,0,0,0.03765432098765432,268.24938271604935,0)" xlink:href="#Y"/><use transform="matrix(0.03765432098765432,0,0,0.03765432098765432,272.73024691358023,0)" xlink:href="#Y"/></g><g id="u"><use transform="matrix(0.03765432098765432,0,0,0.03765432098765432,0,0)" xlink:href="#w"/><use transform="matrix(0.03765432098765432,0,0,0.03765432098765432,7.530864197530864,0)" xlink:href="#x"/><use transform="matrix(0.03765432098765432,0,0,0.03765432098765432,15.061728395061728,0)" xlink:href="#B"/><use transform="matrix(0.03765432098765432,0,0,0.03765432098765432,23.30802469135802,0)" xlink:href="#D"/><use transform="matrix(0.03765432098765432,0,0,0.03765432098765432,31.554320987654314,0)" xlink:href="#W"/><use transform="matrix(0.03765432098765432,0,0,0.03765432098765432,36.03518518518518,0)" xlink:href="#L"/><use transform="matrix(0.03765432098765432,0,0,0.03765432098765432,45.78765432098764,0)" xlink:href="#A"/><use transform="matrix(0.03765432098765432,0,0,0.03765432098765432,54.033950617283935,0)" xlink:href="#M"/><use transform="matrix(0.03765432098765432,0,0,0.03765432098765432,66.08333333333331,0)" xlink:href="#M"/><use transform="matrix(0.03765432098765432,0,0,0.03765432098765432,78.1327160493827,0)" xlink:href="#I"/><use transform="matrix(0.03765432098765432,0,0,0.03765432098765432,85.66358024691355,0)" xlink:href="#B"/><use transform="matrix(0.03765432098765432,0,0,0.03765432098765432,93.90987654320985,0)" xlink:href="#D"/><use transform="matrix(0.03765432098765432,0,0,0.03765432098765432,102.15617283950614,0)" xlink:href="#ah"/><use transform="matrix(0.03765432098765432,0,0,0.03765432098765432,111.90864197530861,0)" xlink:href="#T"/><use transform="matrix(0.03765432098765432,0,0,0.03765432098765432,115.67407407407404,0)" xlink:href="#w"/><use transform="matrix(0.03765432098765432,0,0,0.03765432098765432,123.20493827160492,0)" xlink:href="#U"/><use transform="matrix(0.03765432098765432,0,0,0.03765432098765432,131.4512345679012,0)" xlink:href="#I"/><use transform="matrix(0.03765432098765432,0,0,0.03765432098765432,138.98209876543206,0)" xlink:href="#C"/><use transform="matrix(0.03765432098765432,0,0,0.03765432098765432,143.46296296296293,0)" xlink:href="#S"/><use transform="matrix(0.03765432098765432,0,0,0.03765432098765432,150.9938271604938,0)" xlink:href="#V"/><use transform="matrix(0.03765432098765432,0,0,0.03765432098765432,159.2401234567901,0)" xlink:href="#x"/><use transform="matrix(0.03765432098765432,0,0,0.03765432098765432,166.77098765432095,0)" xlink:href="#D"/><use transform="matrix(0.03765432098765432,0,0,0.03765432098765432,175.01728395061724,0)" xlink:href="#W"/><use transform="matrix(0.03765432098765432,0,0,0.03765432098765432,179.49814814814812,0)" xlink:href="#F"/><use transform="matrix(0.03765432098765432,0,0,0.03765432098765432,188.53518518518516,0)" xlink:href="#R"/><use transform="matrix(0.03765432098765432,0,0,0.03765432098765432,192.3006172839506,0)" xlink:href="#I"/><use transform="matrix(0.03765432098765432,0,0,0.03765432098765432,199.83148148148146,0)" xlink:href="#S"/><use transform="matrix(0.03765432098765432,0,0,0.03765432098765432,207.36234567901232,0)" xlink:href="#x"/><use transform="matrix(0.03765432098765432,0,0,0.03765432098765432,214.89320987654318,0)" xlink:href="#X"/><use transform="matrix(0.03765432098765432,0,0,0.03765432098765432,225.4364197530864,0)" xlink:href="#y"/><use transform="matrix(0.03765432098765432,0,0,0.03765432098765432,230.708024691358,0)" xlink:href="#D"/><use transform="matrix(0.03765432098765432,0,0,0.03765432098765432,238.9543209876543,0)" xlink:href="#x"/><use transform="matrix(0.03765432098765432,0,0,0.03765432098765432,246.48518518518512,0)" xlink:href="#y"/><use transform="matrix(0.03765432098765432,0,0,0.03765432098765432,251.75679012345674,0)" xlink:href="#Y"/><use transform="matrix(0.03765432098765432,0,0,0.03765432098765432,256.2376543209876,0)" xlink:href="#Y"/></g></defs></g></svg>