<svg xmlns="http://www.w3.org/2000/svg" xmlns:xlink="http://www.w3.org/1999/xlink" xmlns:lucid="lucid" width="1187.25" height="940"><g transform="translate(-80 -80)" lucid:page-tab-id="l9iaQrtqrrKM"><path d="M100 108c0-4.42 3.58-8 8-8h104c4.42 0 8 3.58 8 8v84c0 4.42-3.58 8-8 8H108c-4.42 0-8-3.58-8-8z" stroke="#000" stroke-width="2" fill="#99d5ca"/><use xlink:href="#a" transform="matrix(1,0,0,1,100,100) translate(44.962098765432096 51.46944444444445)"/><path d="M160 201.5v5.05m0 5.05v10.1m0 5.05v10.1m0 5.06V252m0 5.06v10.1m0 5.05v10.1m0 5.06v10.1m0 5.05v10.12m0 5.05v10.1m0 5.05v10.1m0 5.05v10.1m0 5.05v10.1m0 5.06v10.1m0 5.05v10.1m0 5.05v10.1m0 5.05v10.1m0 5.05v10.1m0 5.06v10.1m0 5.05v10.1m0 5.04v10.1m0 5.05v10.1m0 5.04v10.1m0 5.06v10.1m0 5.05v10.1m0 5.05v10.1m0 5.05v10.1m0 5.06v10.1m0 5.06v10.1m0 5.05v10.1m0 5.06v10.1m0 5.05v10.12m0 5.05v10.1m0 5.05v10.1m0 5.05v10.1m0 5.05v10.1m0 5.06v10.1m0 5.05v10.1m0 5.05v10.1m0 5.05v10.1m0 5.05v10.1m0 5.06v10.1m0 5.05v10.1m0 5.04v10.1m0 5.05v10.1m0 5.04v10.1m0 5.06v10.1m0 5.05v5.05" stroke="#333" fill="none"/><path d="M160.5 201.5h-1v-.5h1zM160.5 899h-1v-.5h1z" fill="#333"/><path d="M100 908c0-4.42 3.58-8 8-8h104c4.42 0 8 3.58 8 8v84c0 4.42-3.58 8-8 8H108c-4.42 0-8-3.58-8-8z" stroke="#000" stroke-width="2" fill="#99d5ca"/><use xlink:href="#a" transform="matrix(1,0,0,1,100,900) translate(44.962098765432096 51.46944444444445)"/><path d="M340 108c0-4.42 3.58-8 8-8h104c4.42 0 8 3.58 8 8v84c0 4.42-3.58 8-8 8H348c-4.42 0-8-3.58-8-8z" stroke="#000" stroke-width="2" fill="#99d5ca"/><use xlink:href="#b" transform="matrix(1,0,0,1,340,100) translate(30.747592592592603 51.46944444444445)"/><path d="M400 201.5v5.05m0 5.05v10.1m0 5.05v10.1m0 5.06V252m0 5.06v10.1m0 5.05v10.1m0 5.06v10.1m0 5.05v10.12m0 5.05v10.1m0 5.05v10.1m0 5.05v10.1m0 5.05v10.1m0 5.06v10.1m0 5.05v10.1m0 5.05v10.1m0 5.05v10.1m0 5.05v10.1m0 5.06v10.1m0 5.05v10.1m0 5.04v10.1m0 5.05v10.1m0 5.04v10.1m0 5.06v10.1m0 5.05v10.1m0 5.05v10.1m0 5.05v10.1m0 5.06v10.1m0 5.06v10.1m0 5.05v10.1m0 5.06v10.1m0 5.05v10.12m0 5.05v10.1m0 5.05v10.1m0 5.05v10.1m0 5.05v10.1m0 5.06v10.1m0 5.05v10.1m0 5.05v10.1m0 5.05v10.1m0 5.05v10.1m0 5.06v10.1m0 5.05v10.1m0 5.04v10.1m0 5.05v10.1m0 5.04v10.1m0 5.06v10.1m0 5.05v5.05" stroke="#333" fill="none"/><path d="M400.5 201.5h-1v-.5h1zM400.5 899h-1v-.5h1z" fill="#333"/><path d="M340 908c0-4.42 3.58-8 8-8h104c4.42 0 8 3.58 8 8v84c0 4.42-3.58 8-8 8H348c-4.42 0-8-3.58-8-8z" stroke="#000" stroke-width="2" fill="#99d5ca"/><use xlink:href="#b" transform="matrix(1,0,0,1,340,900) translate(30.747592592592603 51.46944444444445)"/><path d="M580 108c0-4.42 3.58-8 8-8h104c4.42 0 8 3.58 8 8v84c0 4.42-3.58 8-8 8H588c-4.42 0-8-3.58-8-8z" stroke="#000" stroke-width="2" fill="#99d5ca"/><use xlink:href="#c" transform="matrix(1,0,0,1,580,100) translate(20.882160493827165 51.46944444444445)"/><path d="M580 908c0-4.42 3.58-8 8-8h104c4.42 0 8 3.58 8 8v84c0 4.42-3.58 8-8 8H588c-4.42 0-8-3.58-8-8z" stroke="#000" stroke-width="2" fill="#99d5ca"/><use xlink:href="#c" transform="matrix(1,0,0,1,580,900) translate(20.882160493827165 51.46944444444445)"/><path d="M640 201.5v5.05m0 5.05v10.1m0 5.05v10.1m0 5.06V252m0 5.06v10.1m0 5.05v10.1m0 5.06v10.1m0 5.05v10.12m0 5.05v10.1m0 5.05v10.1m0 5.05v10.1m0 5.05v10.1m0 5.06v10.1m0 5.05v10.1m0 5.05v10.1m0 5.05v10.1m0 5.05v10.1m0 5.06v10.1m0 5.05v10.1m0 5.04v10.1m0 5.05v10.1m0 5.04v10.1m0 5.06v10.1m0 5.05v10.1m0 5.05v10.1m0 5.05v10.1m0 5.06v10.1m0 5.06v10.1m0 5.05v10.1m0 5.06v10.1m0 5.05v10.12m0 5.05v10.1m0 5.05v10.1m0 5.05v10.1m0 5.05v10.1m0 5.06v10.1m0 5.05v10.1m0 5.05v10.1m0 5.05v10.1m0 5.05v10.1m0 5.06v10.1m0 5.05v10.1m0 5.04v10.1m0 5.05v10.1m0 5.04v10.1m0 5.06v10.1m0 5.05v5.05" stroke="#333" fill="none"/><path d="M640.5 201.5h-1v-.5h1zM640.5 899h-1v-.5h1z" fill="#333"/><path d="M876.6 108c0-4.42 3.58-8 8-8h104c4.42 0 8 3.58 8 8v84c0 4.42-3.58 8-8 8h-104c-4.42 0-8-3.58-8-8z" stroke="#000" stroke-width="2" fill="#99d5ca"/><use xlink:href="#d" transform="matrix(1,0,0,1,876.5999999999999,100) translate(17.474444444444444 51.46944444444445)"/><path d="M876.6 908c0-4.42 3.58-8 8-8h104c4.42 0 8 3.58 8 8v84c0 4.42-3.58 8-8 8h-104c-4.42 0-8-3.58-8-8z" stroke="#000" stroke-width="2" fill="#99d5ca"/><use xlink:href="#d" transform="matrix(1,0,0,1,876.5999999999999,900) translate(17.474444444444444 51.46944444444445)"/><path d="M936.6 201.5v5.05m0 5.05v10.1m0 5.05v10.1m0 5.06V252m0 5.06v10.1m0 5.05v10.1m0 5.06v10.1m0 5.05v10.12m0 5.05v10.1m0 5.05v10.1m0 5.05v10.1m0 5.05v10.1m0 5.06v10.1m0 5.05v10.1m0 5.05v10.1m0 5.05v10.1m0 5.05v10.1m0 5.06v10.1m0 5.05v10.1m0 5.04v10.1m0 5.05v10.1m0 5.04v10.1m0 5.06v10.1m0 5.05v10.1m0 5.05v10.1m0 5.05v10.1m0 5.06v10.1m0 5.06v10.1m0 5.05v10.1m0 5.06v10.1m0 5.05v10.12m0 5.05v10.1m0 5.05v10.1m0 5.05v10.1m0 5.05v10.1m0 5.06v10.1m0 5.05v10.1m0 5.05v10.1m0 5.05v10.1m0 5.05v10.1m0 5.06v10.1m0 5.05v10.1m0 5.04v10.1m0 5.05v10.1m0 5.04v10.1m0 5.06v10.1m0 5.05v5.05" stroke="#333" fill="none"/><path d="M937.1 201.5h-1v-.5h1zM937.1 899h-1v-.5h1z" fill="#333"/><path d="M1127.25 108c0-4.42 3.58-8 8-8h104c4.42 0 8 3.58 8 8v84c0 4.42-3.58 8-8 8h-104c-4.42 0-8-3.58-8-8z" stroke="#000" stroke-width="2" fill="#99d5ca"/><use xlink:href="#e" transform="matrix(1,0,0,1,1127.25,100) translate(9.698827160493837 51.46944444444445)"/><path d="M640.5 380.5H748c6.63 0 12 5.36 12 12v15.87c0 6.63-5.37 12-12 12h-91.62M640.5 380.5h-.5" stroke="#333" fill="none"/><path d="M641.62 420.37l14.26-4.63V425z" stroke="#333" fill="#333"/><use xlink:href="#f" transform="matrix(1,0,0,1,768,392.29523809523806) translate(0.005000000000002558 10.844444444444445)"/><path d="M937.1 579.9h107.5c6.63 0 12 5.4 12 12v15.9c0 6.63-5.37 12-12 12h-91.62M937.1 579.9h-.5" stroke="#333" fill="none"/><path d="M938.22 619.8l14.26-4.64v9.28z" stroke="#333" fill="#333"/><use xlink:href="#g" transform="matrix(1,0,0,1,1064.5999999999997,591.7238095238096) translate(0.005000000000002558 10.844444444444445)"/><path d="M1127.25 908c0-4.42 3.58-8 8-8h104c4.42 0 8 3.58 8 8v84c0 4.42-3.58 8-8 8h-104c-4.42 0-8-3.58-8-8z" stroke="#000" stroke-width="2" fill="#99d5ca"/><use xlink:href="#e" transform="matrix(1,0,0,1,1127.25,900) translate(9.698827160493837 51.46944444444445)"/><path d="M640.5 480.2h279.72M640.5 480.2h-.5" stroke="#333" fill="none"/><path d="M934.98 480.2l-14.26 4.64v-9.28z" stroke="#333" fill="#333"/><use xlink:href="#h" transform="matrix(1,0,0,1,720.6351851851852,459.93333333333334) translate(0.0049999999999954525 10.844444444444445)"/><use xlink:href="#i" transform="matrix(1,0,0,1,720.6351851851852,459.93333333333334) translate(95.49635802469133 10.844444444444445)"/><path d="M952.98 540.03h233.36" stroke="#333" fill="none"/><path d="M938.22 540.03l14.26-4.64v9.26z" stroke="#333" fill="#333"/><path d="M1169.05 550.2l17.22-10.17-17.22-10.18" stroke="#333" fill="none"/><use xlink:href="#j" transform="matrix(1,0,0,1,1016.8716049382715,519.7619047619048) translate(0.005000000000002558 10.844444444444445)"/><path d="M952.98 679.63h233.36" stroke="#333" fill="none"/><path d="M938.22 679.63l14.26-4.64v9.26z" stroke="#333" fill="#333"/><path d="M1169.05 689.8l17.22-10.17-17.22-10.18" stroke="#333" fill="none"/><use xlink:href="#k" transform="matrix(1,0,0,1,1023.9506172839506,659.3619047619047) translate(0.005000000000002558 10.844444444444445)"/><path d="M400.5 340.6h223.12M400.5 340.6h-.5" stroke="#333" fill="none"/><path d="M638.38 340.6l-14.26 4.64v-9.28z" stroke="#333" fill="#333"/><use xlink:href="#l" transform="matrix(1,0,0,1,476.3962962962963,304.0666666666667) translate(0.36271604938271906 10.844444444444445)"/><use xlink:href="#m" transform="matrix(1,0,0,1,476.3962962962963,304.0666666666667) translate(40.99172839506173 10.844444444444445)"/><use xlink:href="#n" transform="matrix(1,0,0,1,476.3962962962963,304.0666666666667) translate(0.005000000000002558 27.11111111111111)"/><use xlink:href="#o" transform="matrix(1,0,0,1,476.3962962962963,304.0666666666667) translate(61.68277777777777 27.11111111111111)"/><path d="M399.5 859.1H176.38M399.5 859.1h.5" stroke="#333" fill="none"/><path d="M161.62 859.1l14.26-4.62v9.27z" stroke="#333" fill="#333"/><use xlink:href="#p" transform="matrix(1,0,0,1,210.1324074074074,838.847619047619) translate(0.0049999999999954525 10.844444444444445)"/><use xlink:href="#q" transform="matrix(1,0,0,1,210.1324074074074,838.847619047619) translate(81.52660493827159 10.844444444444445)"/><path d="M1187.25 201.5v5.05m0 5.05v10.1m0 5.05v10.1m0 5.06V252m0 5.06v10.1m0 5.05v10.1m0 5.06v10.1m0 5.05v10.12m0 5.05v10.1m0 5.05v10.1m0 5.05v10.1m0 5.05v10.1m0 5.06v10.1m0 5.05v10.1m0 5.05v10.1m0 5.05v10.1m0 5.05v10.1m0 5.06v10.1m0 5.05v10.1m0 5.04v10.1m0 5.05v10.1m0 5.04v10.1m0 5.06v10.1m0 5.05v10.1m0 5.05v10.1m0 5.05v10.1m0 5.06v10.1m0 5.06v10.1m0 5.05v10.1m0 5.06v10.1m0 5.05v10.12m0 5.05v10.1m0 5.05v10.1m0 5.05v10.1m0 5.05v10.1m0 5.06v10.1m0 5.05v10.1m0 5.05v10.1m0 5.05v10.1m0 5.05v10.1m0 5.06v10.1m0 5.05v10.1m0 5.04v10.1m0 5.05v10.1m0 5.04v10.1m0 5.06v10.1m0 5.05v5.05" stroke="#333" fill="none"/><path d="M1187.75 201.5h-1v-.5h1zM1187.75 899h-1v-.5h1z" fill="#333"/><path d="M160.5 260.83h223.12M160.5 260.83h-.5" stroke="#333" fill="none"/><path d="M398.38 260.83l-14.26 4.63v-9.27z" stroke="#333" fill="#333"/><use xlink:href="#r" transform="matrix(1,0,0,1,217.53148148148148,240.56190476190477) translate(0.005000000000002558 10.844444444444445)"/><use xlink:href="#s" transform="matrix(1,0,0,1,217.53148148148148,240.56190476190477) translate(36.11549382716049 10.844444444444445)"/><use xlink:href="#t" transform="matrix(1,0,0,1,217.53148148148148,240.56190476190477) translate(81.67722222222221 10.844444444444445)"/><path d="M639.5 799.3H416.38M639.5 799.3h.5" stroke="#333" fill="none"/><path d="M401.62 799.3l14.26-4.65v9.27z" stroke="#333" fill="#333"/><g><use xlink:href="#u" transform="matrix(1,0,0,1,500.47623456790126,779.0190476190477) translate(0.004999999999999005 10.844444444444445)"/></g><path d="M936.1 739.46H656.38M936.1 739.46h.5" stroke="#333" fill="none"/><path d="M641.62 739.46l14.26-4.64v9.27z" stroke="#333" fill="#333"/><g><use xlink:href="#u" transform="matrix(1,0,0,1,768.7762345679012,719.1904761904763) translate(0.004999999999999005 10.844444444444445)"/></g><defs><path fill="#333" d="M238-95c0 69-44 99-111 99C63 4 22-25 22-93v-155h51v151c-1 38 19 59 55 60 90 1 49-130 58-211h52v153" id="v"/><path fill="#333" d="M137-138c1-29-70-34-71-4 15 46 118 7 119 86 1 83-164 76-172 9l43-7c4 19 20 25 44 25 33 8 57-30 24-41C81-84 22-81 20-136c-2-80 154-74 161-7" id="w"/><path fill="#333" d="M185-48c-13 30-37 53-82 52C43 2 14-33 14-96s30-98 90-98c62 0 83 45 84 108H66c0 31 8 55 39 56 18 0 30-7 34-22zm-45-69c5-46-57-63-70-21-2 6-4 13-4 21h74" id="x"/><path fill="#333" d="M135-150c-39-12-60 13-60 57V0H25l-1-190h47c2 13-1 29 3 40 6-28 27-53 61-41v41" id="y"/><g id="a"><use transform="matrix(0.03765432098765432,0,0,0.03765432098765432,0,0)" xlink:href="#v"/><use transform="matrix(0.03765432098765432,0,0,0.03765432098765432,9.752469135802468,0)" xlink:href="#w"/><use transform="matrix(0.03765432098765432,0,0,0.03765432098765432,17.28333333333333,0)" xlink:href="#x"/><use transform="matrix(0.03765432098765432,0,0,0.03765432098765432,24.814197530864195,0)" xlink:href="#y"/></g><path fill="#333" d="M76-208v77h127v40H76V0H24v-248h183v40H76" id="z"/><path fill="#333" d="M110-194c64 0 96 36 96 99 0 64-35 99-97 99-61 0-95-36-95-99 0-62 34-99 96-99zm-1 164c35 0 45-28 45-65 0-40-10-65-43-65-34 0-45 26-45 65 0 36 10 65 43 65" id="A"/><path fill="#333" d="M135-194c87-1 58 113 63 194h-50c-7-57 23-157-34-157-59 0-34 97-39 157H25l-1-190h47c2 12-1 28 3 38 12-26 28-41 61-42" id="B"/><path fill="#333" d="M115-3C79 11 28 4 28-45v-112H4v-33h27l15-45h31v45h36v33H77v99c-1 23 16 31 38 25v30" id="C"/><path fill="#333" d="M88-194c31-1 46 15 58 34l-1-101h50l1 261h-48c-2-10 0-23-3-31C134-8 116 4 84 4 32 4 16-41 15-95c0-56 19-97 73-99zm17 164c33 0 40-30 41-66 1-37-9-64-41-64s-38 30-39 65c0 43 13 65 39 65" id="D"/><g id="b"><use transform="matrix(0.03765432098765432,0,0,0.03765432098765432,0,0)" xlink:href="#z"/><use transform="matrix(0.03765432098765432,0,0,0.03765432098765432,8.246296296296295,0)" xlink:href="#y"/><use transform="matrix(0.03765432098765432,0,0,0.03765432098765432,13.5179012345679,0)" xlink:href="#A"/><use transform="matrix(0.03765432098765432,0,0,0.03765432098765432,21.764197530864195,0)" xlink:href="#B"/><use transform="matrix(0.03765432098765432,0,0,0.03765432098765432,30.010493827160488,0)" xlink:href="#C"/><use transform="matrix(0.03765432098765432,0,0,0.03765432098765432,34.49135802469135,0)" xlink:href="#x"/><use transform="matrix(0.03765432098765432,0,0,0.03765432098765432,42.02222222222221,0)" xlink:href="#B"/><use transform="matrix(0.03765432098765432,0,0,0.03765432098765432,50.268518518518505,0)" xlink:href="#D"/></g><path fill="#333" d="M199 0l-22-63H83L61 0H9l90-248h61L250 0h-51zm-33-102l-36-108c-10 38-24 72-36 108h72" id="E"/><path fill="#333" d="M24-248c93 1 206-16 204 79-1 75-69 88-152 82V0H24v-248zm52 121c47 0 100 7 100-41 0-47-54-39-100-39v80" id="F"/><path fill="#333" d="M24 0v-248h52V0H24" id="G"/><path fill="#333" d="M67-125c0 54 23 88 75 88 28 0 53-7 68-21v-34h-60v-39h108v91C232-14 192 4 140 4 58 4 20-42 15-125 8-236 126-280 215-234c19 10 29 26 37 47l-47 15c-11-23-29-39-63-39-53 1-75 33-75 86" id="H"/><path fill="#333" d="M133-34C117-15 103 5 69 4 32 3 11-16 11-54c-1-60 55-63 116-61 1-26-3-47-28-47-18 1-26 9-28 27l-52-2c7-38 36-58 82-57s74 22 75 68l1 82c-1 14 12 18 25 15v27c-30 8-71 5-69-32zm-48 3c29 0 43-24 42-57-32 0-66-3-65 30 0 17 8 27 23 27" id="I"/><path fill="#333" d="M231 0h-52l-39-155L100 0H48L-1-190h46L77-45c9-52 24-97 36-145h53l37 145 32-145h46" id="J"/><path fill="#333" d="M123 10C108 53 80 86 19 72V37c35 8 53-11 59-39L3-190h52l48 148c12-52 28-100 44-148h51" id="K"/><g id="c"><use transform="matrix(0.03765432098765432,0,0,0.03765432098765432,0,0)" xlink:href="#E"/><use transform="matrix(0.03765432098765432,0,0,0.03765432098765432,9.752469135802468,0)" xlink:href="#F"/><use transform="matrix(0.03765432098765432,0,0,0.03765432098765432,18.789506172839502,0)" xlink:href="#G"/><use transform="matrix(0.03765432098765432,0,0,0.03765432098765432,22.554938271604932,0)" xlink:href="#H"/><use transform="matrix(0.03765432098765432,0,0,0.03765432098765432,33.09814814814814,0)" xlink:href="#I"/><use transform="matrix(0.03765432098765432,0,0,0.03765432098765432,40.629012345679,0)" xlink:href="#C"/><use transform="matrix(0.03765432098765432,0,0,0.03765432098765432,45.109876543209865,0)" xlink:href="#x"/><use transform="matrix(0.03765432098765432,0,0,0.03765432098765432,52.640740740740725,0)" xlink:href="#J"/><use transform="matrix(0.03765432098765432,0,0,0.03765432098765432,63.183950617283934,0)" xlink:href="#I"/><use transform="matrix(0.03765432098765432,0,0,0.03765432098765432,70.7148148148148,0)" xlink:href="#K"/></g><path fill="#333" d="M140-251c80 0 125 45 125 126S219 4 139 4C58 4 15-44 15-125s44-126 125-126zm-1 214c52 0 73-35 73-88 0-50-21-86-72-86-52 0-73 35-73 86s22 88 72 88" id="L"/><path fill="#333" d="M169-182c-1-43-94-46-97-3 18 66 151 10 154 114 3 95-165 93-204 36-6-8-10-19-12-30l50-8c3 46 112 56 116 5-17-69-150-10-154-114-4-87 153-88 188-35 5 8 8 18 10 28" id="M"/><path fill="#333" d="M128 0H69L1-190h53L99-40l48-150h52" id="N"/><path fill="#333" d="M25-224v-37h50v37H25zM25 0v-190h50V0H25" id="O"/><path fill="#333" d="M190-63c-7 42-38 67-86 67-59 0-84-38-90-98-12-110 154-137 174-36l-49 2c-2-19-15-32-35-32-30 0-35 28-38 64-6 74 65 87 74 30" id="P"/><g id="d"><use transform="matrix(0.03765432098765432,0,0,0.03765432098765432,0,0)" xlink:href="#L"/><use transform="matrix(0.03765432098765432,0,0,0.03765432098765432,10.543209876543209,0)" xlink:href="#y"/><use transform="matrix(0.03765432098765432,0,0,0.03765432098765432,15.814814814814813,0)" xlink:href="#D"/><use transform="matrix(0.03765432098765432,0,0,0.03765432098765432,24.06111111111111,0)" xlink:href="#x"/><use transform="matrix(0.03765432098765432,0,0,0.03765432098765432,31.591975308641974,0)" xlink:href="#y"/><use transform="matrix(0.03765432098765432,0,0,0.03765432098765432,36.86358024691358,0)" xlink:href="#M"/><use transform="matrix(0.03765432098765432,0,0,0.03765432098765432,45.900617283950616,0)" xlink:href="#x"/><use transform="matrix(0.03765432098765432,0,0,0.03765432098765432,53.431481481481484,0)" xlink:href="#y"/><use transform="matrix(0.03765432098765432,0,0,0.03765432098765432,58.70308641975309,0)" xlink:href="#N"/><use transform="matrix(0.03765432098765432,0,0,0.03765432098765432,66.23395061728395,0)" xlink:href="#O"/><use transform="matrix(0.03765432098765432,0,0,0.03765432098765432,69.99938271604938,0)" xlink:href="#P"/><use transform="matrix(0.03765432098765432,0,0,0.03765432098765432,77.53024691358024,0)" xlink:href="#x"/></g><path fill="#333" d="M195-6C206 82 75 100 31 46c-4-6-6-13-8-21l49-6c3 16 16 24 34 25 40 0 42-37 40-79-11 22-30 35-61 35-53 0-70-43-70-97 0-56 18-96 73-97 30 0 46 14 59 34l2-30h47zm-90-29c32 0 41-27 41-63 0-35-9-62-40-62-32 0-39 29-40 63 0 36 9 62 39 62" id="Q"/><path fill="#333" d="M240-174c0 40-23 61-54 70L253 0h-59l-57-94H76V0H24v-248c93 4 217-23 216 74zM76-134c48-2 112 12 112-38 0-48-66-32-112-35v73" id="R"/><path fill="#333" d="M135-194c53 0 70 44 70 98 0 56-19 98-73 100-31 1-45-17-59-34 3 33 2 69 2 105H25l-1-265h48c2 10 0 23 3 31 11-24 29-35 60-35zM114-30c33 0 39-31 40-66 0-38-9-64-40-64-56 0-55 130 0 130" id="S"/><g id="e"><use transform="matrix(0.03765432098765432,0,0,0.03765432098765432,0,0)" xlink:href="#E"/><use transform="matrix(0.03765432098765432,0,0,0.03765432098765432,9.752469135802468,0)" xlink:href="#Q"/><use transform="matrix(0.03765432098765432,0,0,0.03765432098765432,17.998765432098764,0)" xlink:href="#Q"/><use transform="matrix(0.03765432098765432,0,0,0.03765432098765432,26.245061728395058,0)" xlink:href="#y"/><use transform="matrix(0.03765432098765432,0,0,0.03765432098765432,31.516666666666662,0)" xlink:href="#x"/><use transform="matrix(0.03765432098765432,0,0,0.03765432098765432,39.047530864197526,0)" xlink:href="#Q"/><use transform="matrix(0.03765432098765432,0,0,0.03765432098765432,47.29382716049382,0)" xlink:href="#I"/><use transform="matrix(0.03765432098765432,0,0,0.03765432098765432,54.82469135802468,0)" xlink:href="#C"/><use transform="matrix(0.03765432098765432,0,0,0.03765432098765432,59.30555555555554,0)" xlink:href="#x"/><use transform="matrix(0.03765432098765432,0,0,0.03765432098765432,66.8364197530864,0)" xlink:href="#R"/><use transform="matrix(0.03765432098765432,0,0,0.03765432098765432,76.58888888888887,0)" xlink:href="#x"/><use transform="matrix(0.03765432098765432,0,0,0.03765432098765432,84.11975308641973,0)" xlink:href="#S"/><use transform="matrix(0.03765432098765432,0,0,0.03765432098765432,92.36604938271603,0)" xlink:href="#A"/></g><path fill="#333" d="M24-248c120-7 223 5 221 122C244-46 201 0 124 0H24v-248zM76-40c74 7 117-18 117-86 0-67-45-88-117-82v168" id="T"/><path fill="#333" d="M67-93c0 74 22 123 53 168H70C40 30 18-18 18-93s22-123 52-168h50c-32 44-53 94-53 168" id="U"/><path fill="#333" d="M102-93c0 74-22 123-52 168H0C30 29 54-18 53-93c0-74-22-123-53-168h50c30 45 52 94 52 168" id="V"/><g id="f"><use transform="matrix(0.03765432098765432,0,0,0.03765432098765432,0,0)" xlink:href="#Q"/><use transform="matrix(0.03765432098765432,0,0,0.03765432098765432,8.246296296296295,0)" xlink:href="#x"/><use transform="matrix(0.03765432098765432,0,0,0.03765432098765432,15.777160493827159,0)" xlink:href="#B"/><use transform="matrix(0.03765432098765432,0,0,0.03765432098765432,24.023456790123454,0)" xlink:href="#x"/><use transform="matrix(0.03765432098765432,0,0,0.03765432098765432,31.554320987654318,0)" xlink:href="#y"/><use transform="matrix(0.03765432098765432,0,0,0.03765432098765432,36.82592592592592,0)" xlink:href="#I"/><use transform="matrix(0.03765432098765432,0,0,0.03765432098765432,44.35679012345678,0)" xlink:href="#C"/><use transform="matrix(0.03765432098765432,0,0,0.03765432098765432,48.83765432098765,0)" xlink:href="#x"/><use transform="matrix(0.03765432098765432,0,0,0.03765432098765432,56.36851851851851,0)" xlink:href="#L"/><use transform="matrix(0.03765432098765432,0,0,0.03765432098765432,66.91172839506171,0)" xlink:href="#y"/><use transform="matrix(0.03765432098765432,0,0,0.03765432098765432,72.18333333333332,0)" xlink:href="#D"/><use transform="matrix(0.03765432098765432,0,0,0.03765432098765432,80.42962962962962,0)" xlink:href="#x"/><use transform="matrix(0.03765432098765432,0,0,0.03765432098765432,87.96049382716046,0)" xlink:href="#y"/><use transform="matrix(0.03765432098765432,0,0,0.03765432098765432,93.23209876543208,0)" xlink:href="#G"/><use transform="matrix(0.03765432098765432,0,0,0.03765432098765432,96.99753086419753,0)" xlink:href="#T"/><use transform="matrix(0.03765432098765432,0,0,0.03765432098765432,106.74999999999999,0)" xlink:href="#U"/><use transform="matrix(0.03765432098765432,0,0,0.03765432098765432,111.23086419753085,0)" xlink:href="#V"/></g><path fill="#333" d="M25 0v-261h50V0H25" id="W"/><g id="g"><use transform="matrix(0.03765432098765432,0,0,0.03765432098765432,0,0)" xlink:href="#S"/><use transform="matrix(0.03765432098765432,0,0,0.03765432098765432,8.246296296296295,0)" xlink:href="#W"/><use transform="matrix(0.03765432098765432,0,0,0.03765432098765432,12.011728395061727,0)" xlink:href="#I"/><use transform="matrix(0.03765432098765432,0,0,0.03765432098765432,19.54259259259259,0)" xlink:href="#P"/><use transform="matrix(0.03765432098765432,0,0,0.03765432098765432,27.073456790123455,0)" xlink:href="#x"/><use transform="matrix(0.03765432098765432,0,0,0.03765432098765432,34.60432098765432,0)" xlink:href="#U"/><use transform="matrix(0.03765432098765432,0,0,0.03765432098765432,39.08518518518518,0)" xlink:href="#L"/><use transform="matrix(0.03765432098765432,0,0,0.03765432098765432,49.62839506172839,0)" xlink:href="#y"/><use transform="matrix(0.03765432098765432,0,0,0.03765432098765432,54.89999999999999,0)" xlink:href="#D"/><use transform="matrix(0.03765432098765432,0,0,0.03765432098765432,63.146296296296285,0)" xlink:href="#x"/><use transform="matrix(0.03765432098765432,0,0,0.03765432098765432,70.67716049382715,0)" xlink:href="#y"/><use transform="matrix(0.03765432098765432,0,0,0.03765432098765432,75.94876543209875,0)" xlink:href="#V"/></g><path fill="#333" d="M76-54c-1 42 2 86-19 110H24C36 42 46 24 48 0H25v-54h51" id="X"/><g id="h"><use transform="matrix(0.03765432098765432,0,0,0.03765432098765432,0,0)" xlink:href="#S"/><use transform="matrix(0.03765432098765432,0,0,0.03765432098765432,8.246296296296295,0)" xlink:href="#W"/><use transform="matrix(0.03765432098765432,0,0,0.03765432098765432,12.011728395061727,0)" xlink:href="#I"/><use transform="matrix(0.03765432098765432,0,0,0.03765432098765432,19.54259259259259,0)" xlink:href="#P"/><use transform="matrix(0.03765432098765432,0,0,0.03765432098765432,27.073456790123455,0)" xlink:href="#x"/><use transform="matrix(0.03765432098765432,0,0,0.03765432098765432,34.60432098765432,0)" xlink:href="#L"/><use transform="matrix(0.03765432098765432,0,0,0.03765432098765432,45.14753086419753,0)" xlink:href="#y"/><use transform="matrix(0.03765432098765432,0,0,0.03765432098765432,50.41913580246913,0)" xlink:href="#D"/><use transform="matrix(0.03765432098765432,0,0,0.03765432098765432,58.66543209876542,0)" xlink:href="#x"/><use transform="matrix(0.03765432098765432,0,0,0.03765432098765432,66.19629629629628,0)" xlink:href="#y"/><use transform="matrix(0.03765432098765432,0,0,0.03765432098765432,71.46790123456789,0)" xlink:href="#U"/><use transform="matrix(0.03765432098765432,0,0,0.03765432098765432,75.94876543209875,0)" xlink:href="#O"/><use transform="matrix(0.03765432098765432,0,0,0.03765432098765432,79.71419753086418,0)" xlink:href="#D"/><use transform="matrix(0.03765432098765432,0,0,0.03765432098765432,87.96049382716046,0)" xlink:href="#X"/></g><path fill="#333" d="M220-157c-53 9-28 100-34 157h-49v-107c1-27-5-49-29-50C55-147 81-57 75 0H25l-1-190h47c2 12-1 28 3 38 10-53 101-56 108 0 13-22 24-43 59-42 82 1 51 116 57 194h-49v-107c-1-25-5-48-29-50" id="Y"/><g id="i"><use transform="matrix(0.03765432098765432,0,0,0.03765432098765432,0,0)" xlink:href="#O"/><use transform="matrix(0.03765432098765432,0,0,0.03765432098765432,3.765432098765432,0)" xlink:href="#C"/><use transform="matrix(0.03765432098765432,0,0,0.03765432098765432,8.246296296296297,0)" xlink:href="#x"/><use transform="matrix(0.03765432098765432,0,0,0.03765432098765432,15.77716049382716,0)" xlink:href="#Y"/><use transform="matrix(0.03765432098765432,0,0,0.03765432098765432,27.82654320987654,0)" xlink:href="#w"/><use transform="matrix(0.03765432098765432,0,0,0.03765432098765432,35.35740740740741,0)" xlink:href="#V"/></g><path fill="#333" d="M121-226c-27-7-43 5-38 36h38v33H83V0H34v-157H6v-33h28c-9-59 32-81 87-68v32" id="Z"/><path fill="#333" d="M114-157C55-157 80-60 75 0H25v-261h50l-1 109c12-26 28-41 61-42 86-1 58 113 63 194h-50c-7-57 23-157-34-157" id="aa"/><g id="j"><use transform="matrix(0.03765432098765432,0,0,0.03765432098765432,0,0)" xlink:href="#Z"/><use transform="matrix(0.03765432098765432,0,0,0.03765432098765432,4.480864197530864,0)" xlink:href="#x"/><use transform="matrix(0.03765432098765432,0,0,0.03765432098765432,12.011728395061727,0)" xlink:href="#C"/><use transform="matrix(0.03765432098765432,0,0,0.03765432098765432,16.49259259259259,0)" xlink:href="#P"/><use transform="matrix(0.03765432098765432,0,0,0.03765432098765432,24.023456790123454,0)" xlink:href="#aa"/><use transform="matrix(0.03765432098765432,0,0,0.03765432098765432,32.26975308641975,0)" xlink:href="#L"/><use transform="matrix(0.03765432098765432,0,0,0.03765432098765432,42.812962962962956,0)" xlink:href="#y"/><use transform="matrix(0.03765432098765432,0,0,0.03765432098765432,48.084567901234564,0)" xlink:href="#D"/><use transform="matrix(0.03765432098765432,0,0,0.03765432098765432,56.33086419753086,0)" xlink:href="#x"/><use transform="matrix(0.03765432098765432,0,0,0.03765432098765432,63.86172839506171,0)" xlink:href="#y"/><use transform="matrix(0.03765432098765432,0,0,0.03765432098765432,69.13333333333333,0)" xlink:href="#U"/><use transform="matrix(0.03765432098765432,0,0,0.03765432098765432,73.61419753086419,0)" xlink:href="#O"/><use transform="matrix(0.03765432098765432,0,0,0.03765432098765432,77.37962962962962,0)" xlink:href="#D"/><use transform="matrix(0.03765432098765432,0,0,0.03765432098765432,85.62592592592591,0)" xlink:href="#V"/></g><g id="k"><use transform="matrix(0.03765432098765432,0,0,0.03765432098765432,0,0)" xlink:href="#w"/><use transform="matrix(0.03765432098765432,0,0,0.03765432098765432,7.530864197530864,0)" xlink:href="#I"/><use transform="matrix(0.03765432098765432,0,0,0.03765432098765432,15.061728395061728,0)" xlink:href="#N"/><use transform="matrix(0.03765432098765432,0,0,0.03765432098765432,22.59259259259259,0)" xlink:href="#x"/><use transform="matrix(0.03765432098765432,0,0,0.03765432098765432,30.123456790123456,0)" xlink:href="#U"/><use transform="matrix(0.03765432098765432,0,0,0.03765432098765432,34.60432098765432,0)" xlink:href="#L"/><use transform="matrix(0.03765432098765432,0,0,0.03765432098765432,45.14753086419753,0)" xlink:href="#y"/><use transform="matrix(0.03765432098765432,0,0,0.03765432098765432,50.41913580246913,0)" xlink:href="#D"/><use transform="matrix(0.03765432098765432,0,0,0.03765432098765432,58.66543209876542,0)" xlink:href="#x"/><use transform="matrix(0.03765432098765432,0,0,0.03765432098765432,66.19629629629628,0)" xlink:href="#y"/><use transform="matrix(0.03765432098765432,0,0,0.03765432098765432,71.46790123456789,0)" xlink:href="#V"/></g><path fill="#333" d="M136-208V0H84v-208H4v-40h212v40h-80" id="ab"/><g id="l"><use transform="matrix(0.03765432098765432,0,0,0.03765432098765432,0,0)" xlink:href="#F"/><use transform="matrix(0.03765432098765432,0,0,0.03765432098765432,9.037037037037036,0)" xlink:href="#L"/><use transform="matrix(0.03765432098765432,0,0,0.03765432098765432,19.580246913580247,0)" xlink:href="#M"/><use transform="matrix(0.03765432098765432,0,0,0.03765432098765432,28.617283950617285,0)" xlink:href="#ab"/></g><path fill="#333" d="M4 7l51-268h42L46 7H4" id="ac"/><g id="m"><use transform="matrix(0.03765432098765432,0,0,0.03765432098765432,0,0)" xlink:href="#ac"/><use transform="matrix(0.03765432098765432,0,0,0.03765432098765432,3.765432098765432,0)" xlink:href="#A"/><use transform="matrix(0.03765432098765432,0,0,0.03765432098765432,12.011728395061727,0)" xlink:href="#y"/><use transform="matrix(0.03765432098765432,0,0,0.03765432098765432,17.28333333333333,0)" xlink:href="#D"/><use transform="matrix(0.03765432098765432,0,0,0.03765432098765432,25.52962962962962,0)" xlink:href="#x"/><use transform="matrix(0.03765432098765432,0,0,0.03765432098765432,33.060493827160485,0)" xlink:href="#y"/><use transform="matrix(0.03765432098765432,0,0,0.03765432098765432,38.33209876543209,0)" xlink:href="#w"/></g><path fill="#333" d="M133 41v34c-50 4-88-6-87-53 0-46 9-101-40-98v-34c48 2 40-52 40-98-1-47 37-57 87-53v34c-79-14-6 124-77 134 73 11-4 147 77 134" id="ad"/><path fill="#333" d="M142-158h-39l-4-90h48zm-75 0H28l-4-90h48" id="ae"/><path fill="#333" d="M35-132v-50h50v50H35zM35 0v-49h50V0H35" id="af"/><g id="n"><use transform="matrix(0.03765432098765432,0,0,0.03765432098765432,0,0)" xlink:href="#ad"/><use transform="matrix(0.03765432098765432,0,0,0.03765432098765432,5.271604938271604,0)" xlink:href="#ae"/><use transform="matrix(0.03765432098765432,0,0,0.03765432098765432,11.672839506172838,0)" xlink:href="#O"/><use transform="matrix(0.03765432098765432,0,0,0.03765432098765432,15.43827160493827,0)" xlink:href="#C"/><use transform="matrix(0.03765432098765432,0,0,0.03765432098765432,19.919135802469135,0)" xlink:href="#x"/><use transform="matrix(0.03765432098765432,0,0,0.03765432098765432,27.449999999999996,0)" xlink:href="#Y"/><use transform="matrix(0.03765432098765432,0,0,0.03765432098765432,39.49938271604938,0)" xlink:href="#w"/><use transform="matrix(0.03765432098765432,0,0,0.03765432098765432,47.03024691358024,0)" xlink:href="#ae"/><use transform="matrix(0.03765432098765432,0,0,0.03765432098765432,53.43148148148148,0)" xlink:href="#af"/></g><path fill="#333" d="M20 75v-336h95v34H67V41h48v34H20" id="ag"/><path fill="#333" d="M24 0v-54h51V0H24" id="ah"/><path fill="#333" d="M4 75V41h49v-268H4v-34h96V75H4" id="ai"/><path fill="#333" d="M94-36c2 56 4 113-52 111H8V41C85 54 13-83 84-94c-39-5-38-51-36-97 1-27-12-38-40-36v-34c49-4 87 6 86 53s-8 101 41 98v34c-26 1-42 13-41 40" id="aj"/><g id="o"><use transform="matrix(0.03765432098765432,0,0,0.03765432098765432,0,0)" xlink:href="#ag"/><use transform="matrix(0.03765432098765432,0,0,0.03765432098765432,4.480864197530864,0)" xlink:href="#ah"/><use transform="matrix(0.03765432098765432,0,0,0.03765432098765432,8.246296296296297,0)" xlink:href="#ah"/><use transform="matrix(0.03765432098765432,0,0,0.03765432098765432,12.011728395061729,0)" xlink:href="#ah"/><use transform="matrix(0.03765432098765432,0,0,0.03765432098765432,15.77716049382716,0)" xlink:href="#ai"/><use transform="matrix(0.03765432098765432,0,0,0.03765432098765432,20.258024691358024,0)" xlink:href="#aj"/></g><g id="p"><use transform="matrix(0.03765432098765432,0,0,0.03765432098765432,0,0)" xlink:href="#S"/><use transform="matrix(0.03765432098765432,0,0,0.03765432098765432,8.246296296296295,0)" xlink:href="#y"/><use transform="matrix(0.03765432098765432,0,0,0.03765432098765432,13.5179012345679,0)" xlink:href="#O"/><use transform="matrix(0.03765432098765432,0,0,0.03765432098765432,17.28333333333333,0)" xlink:href="#B"/><use transform="matrix(0.03765432098765432,0,0,0.03765432098765432,25.52962962962962,0)" xlink:href="#C"/><use transform="matrix(0.03765432098765432,0,0,0.03765432098765432,30.010493827160488,0)" xlink:href="#U"/><use transform="matrix(0.03765432098765432,0,0,0.03765432098765432,34.49135802469135,0)" xlink:href="#ae"/><use transform="matrix(0.03765432098765432,0,0,0.03765432098765432,40.892592592592585,0)" xlink:href="#L"/><use transform="matrix(0.03765432098765432,0,0,0.03765432098765432,51.4358024691358,0)" xlink:href="#y"/><use transform="matrix(0.03765432098765432,0,0,0.03765432098765432,56.7074074074074,0)" xlink:href="#D"/><use transform="matrix(0.03765432098765432,0,0,0.03765432098765432,64.9537037037037,0)" xlink:href="#x"/><use transform="matrix(0.03765432098765432,0,0,0.03765432098765432,72.48456790123456,0)" xlink:href="#y"/></g><path fill="#333" d="M80-75H40l-6-173h52zM34 0v-47h51V0H34" id="ak"/><g id="q"><use transform="matrix(0.03765432098765432,0,0,0.03765432098765432,0,0)" xlink:href="#S"/><use transform="matrix(0.03765432098765432,0,0,0.03765432098765432,8.246296296296295,0)" xlink:href="#W"/><use transform="matrix(0.03765432098765432,0,0,0.03765432098765432,12.011728395061727,0)" xlink:href="#I"/><use transform="matrix(0.03765432098765432,0,0,0.03765432098765432,19.54259259259259,0)" xlink:href="#P"/><use transform="matrix(0.03765432098765432,0,0,0.03765432098765432,27.073456790123455,0)" xlink:href="#x"/><use transform="matrix(0.03765432098765432,0,0,0.03765432098765432,34.60432098765432,0)" xlink:href="#D"/><use transform="matrix(0.03765432098765432,0,0,0.03765432098765432,42.85061728395061,0)" xlink:href="#ak"/><use transform="matrix(0.03765432098765432,0,0,0.03765432098765432,47.331481481481475,0)" xlink:href="#ae"/><use transform="matrix(0.03765432098765432,0,0,0.03765432098765432,53.73271604938271,0)" xlink:href="#V"/></g><path fill="#333" d="M67-125c0 53 21 87 73 88 37 1 54-22 65-47l45 17C233-25 199 4 140 4 58 4 20-42 15-125 8-235 124-281 211-232c18 10 29 29 36 50l-46 12c-8-25-30-41-62-41-52 0-71 34-72 86" id="al"/><path fill="#333" d="M147 0L96-86 75-71V0H25v-261h50v150l67-79h53l-66 74L201 0h-54" id="am"/><g id="r"><use transform="matrix(0.03765432098765432,0,0,0.03765432098765432,0,0)" xlink:href="#al"/><use transform="matrix(0.03765432098765432,0,0,0.03765432098765432,9.752469135802468,0)" xlink:href="#W"/><use transform="matrix(0.03765432098765432,0,0,0.03765432098765432,13.5179012345679,0)" xlink:href="#O"/><use transform="matrix(0.03765432098765432,0,0,0.03765432098765432,17.28333333333333,0)" xlink:href="#P"/><use transform="matrix(0.03765432098765432,0,0,0.03765432098765432,24.814197530864195,0)" xlink:href="#am"/></g><g id="s"><use transform="matrix(0.03765432098765432,0,0,0.03765432098765432,0,0)" xlink:href="#ae"/><use transform="matrix(0.03765432098765432,0,0,0.03765432098765432,6.401234567901234,0)" xlink:href="#F"/><use transform="matrix(0.03765432098765432,0,0,0.03765432098765432,15.43827160493827,0)" xlink:href="#W"/><use transform="matrix(0.03765432098765432,0,0,0.03765432098765432,19.203703703703702,0)" xlink:href="#I"/><use transform="matrix(0.03765432098765432,0,0,0.03765432098765432,26.734567901234566,0)" xlink:href="#P"/><use transform="matrix(0.03765432098765432,0,0,0.03765432098765432,34.26543209876543,0)" xlink:href="#x"/></g><g id="t"><use transform="matrix(0.03765432098765432,0,0,0.03765432098765432,0,0)" xlink:href="#L"/><use transform="matrix(0.03765432098765432,0,0,0.03765432098765432,10.543209876543209,0)" xlink:href="#y"/><use transform="matrix(0.03765432098765432,0,0,0.03765432098765432,15.814814814814813,0)" xlink:href="#D"/><use transform="matrix(0.03765432098765432,0,0,0.03765432098765432,24.06111111111111,0)" xlink:href="#x"/><use transform="matrix(0.03765432098765432,0,0,0.03765432098765432,31.591975308641974,0)" xlink:href="#y"/><use transform="matrix(0.03765432098765432,0,0,0.03765432098765432,36.86358024691358,0)" xlink:href="#ae"/></g><path fill="#333" d="M85 4C-2 5 27-109 22-190h50c7 57-23 150 33 157 60-5 35-97 40-157h50l1 190h-47c-2-12 1-28-3-38-12 25-28 42-61 42" id="an"/><g id="u"><use transform="matrix(0.03765432098765432,0,0,0.03765432098765432,0,0)" xlink:href="#y"/><use transform="matrix(0.03765432098765432,0,0,0.03765432098765432,5.271604938271604,0)" xlink:href="#x"/><use transform="matrix(0.03765432098765432,0,0,0.03765432098765432,12.802469135802468,0)" xlink:href="#C"/><use transform="matrix(0.03765432098765432,0,0,0.03765432098765432,17.28333333333333,0)" xlink:href="#an"/><use transform="matrix(0.03765432098765432,0,0,0.03765432098765432,25.52962962962962,0)" xlink:href="#y"/><use transform="matrix(0.03765432098765432,0,0,0.03765432098765432,30.80123456790123,0)" xlink:href="#B"/></g></defs></g></svg>